<?xml version="1.0" encoding="UTF-8" standalone="no"?>
<svg
   xmlns:dc="http://purl.org/dc/elements/1.1/"
   xmlns:cc="http://creativecommons.org/ns#"
   xmlns:rdf="http://www.w3.org/1999/02/22-rdf-syntax-ns#"
   xmlns:svg="http://www.w3.org/2000/svg"
   xmlns="http://www.w3.org/2000/svg"
   version="1.1"
   width="600"
   height="400"
   id="NATO Map Symbol">
  <text
     style="font-style:normal;font-weight:normal;font-size:100px;line-height:0%;font-family:sans-serif;text-align:center;letter-spacing:0px;word-spacing:0px;text-anchor:middle;fill:#0000ff;fill-opacity:1;stroke:none"
     xml:space="preserve"
     id="SOF"
     y="90.927742"
     x="297.33887">SOF</text>
    <g
       id="NAVY"
       transform="matrix(1.1062909,0,0,1.1062909,668.64489,177.98089)">
      <path
         style="fill:#0000ff;fill-opacity:1;fill-rule:nonzero;stroke:none;stroke-width:0.60439199"
         id="path1919-7"
         d="m -332.37611,-52.410165 c -7.47058,10e-7 -13.52552,5.830074 -13.52327,13.013315 -0.003,7.183241 6.05269,13.013316 13.52327,13.013316 7.47057,2e-6 13.52552,-5.830075 13.52327,-13.013316 0.003,-7.183241 -6.0527,-13.013315 -13.52327,-13.013315 z m -0.30219,6.327229 c 3.62649,0 6.57386,2.821333 6.57276,6.308341 9.1e-4,3.487016 -2.94627,6.308342 -6.57276,6.308342 -3.6265,0 -6.57385,-2.821325 -6.57276,-6.308342 -9.2e-4,-3.487009 2.94626,-6.308341 6.57276,-6.308341 z" />
      <path
         style="fill:#0000ff;stroke-width:0.60439199"
         id="path1881-8"
         d="m -337.43437,-28.957223 c -0.63653,-0.01125 0,1.254035 0,5.490436 v 5.490436 l -13.22456,-0.18472 c -10.39716,-0.145223 -13.4338,-0.01106 -14.20322,0.627492 -1.23037,1.02112 -1.42386,7.9042084 -0.22316,7.9384411 l 27.04654,-0.063113 c 0.0304,6.4605579 0.11435,12.9216296 0.0319,19.3821148 -0.30489,13.3450061 -0.53892,26.6911061 -0.66301,40.0390521 -0.0549,7.228982 -0.3298,14.16438 -0.61105,15.411996 -1.06002,4.702362 -4.02579,5.341084 -13.16644,2.835596 -9.50602,-2.605637 -21.31316,-8.398245 -23.30047,-11.431259 -1.57989,-2.41121 -1.82646,-4.478629 -0.68465,-5.740327 0.56926,-0.629016 1.41567,-0.997598 1.88092,-0.819061 0.51442,0.197401 1.05536,-0.233047 1.38042,-1.098446 1.14422,-3.046281 -2.67486,-7.54866 -10.197,-12.021445 -1.82829,-1.087132 -4.82003,-3.421802 -6.64832,-5.188168 -1.91831,-1.853337 -3.61014,-3.028361 -4.00037,-2.778377 -1.21427,0.777846 -3.69875,6.396558 -4.46213,10.091236 -1.53461,7.427359 0.41232,18.386679 4.03025,22.686342 1.90982,2.269703 2.97522,2.289497 3.42041,0.06354 0.78443,-3.922147 5.66623,-2.790798 10.98431,2.545603 4.20894,4.22343 12.22359,10.345879 15.71419,12.004185 1.32967,0.631693 3.2335,1.658736 4.23075,2.282311 0.99724,0.623581 3.98899,1.877967 6.64831,2.787523 5.57125,1.905509 12.09538,5.279219 14.6787,7.590529 0.98139,0.87806 2.46355,2.041509 3.29369,2.585438 1.45216,0.951488 1.54823,0.929639 2.53519,-0.576651 2.05466,-3.135809 5.59864,-5.879743 10.96724,-8.4914 3.01728,-1.467814 5.93932,-2.668752 6.49342,-2.668752 1.17779,0 11.11714,-4.397255 17.10471,-7.567267 4.69201,-2.484105 6.80561,-3.981436 12.04743,-8.53472 5.91782,-5.140499 8.91203,-5.721127 12.01778,-2.330445 l 1.939,2.1169 1.24486,-1.36141 c 2.25235,-2.463194 3.0813,-4.939726 3.5168,-10.506618 0.333,-4.25686 0.1918,-6.56795 -0.62701,-10.262308 -1.29383,-5.837653 -3.46323,-10.82671 -5.08527,-11.694798 -1.02415,-0.548111 -1.37276,-0.389373 -2.24798,1.023598 -1.52179,2.456793 -3.64825,4.388901 -7.74348,7.035781 -4.90357,3.16933 -7.86262,6.436601 -8.77246,9.686184 -0.87885,3.138964 -0.47875,4.278425 1.1889,3.385919 1.81921,-0.973609 3.00443,-0.708069 3.7053,0.830169 0.98676,2.1657 -0.49559,3.907811 -6.22509,7.315966 -9.78561,5.820905 -22.90649,10.588384 -29.14095,10.588384 -2.94191,0 -5.70459,-1.137985 -6.14704,-2.532062 -0.21336,-0.672236 -0.22432,-8.604814 -0.0243,-17.627952 0.19996,-9.023135 0.52346,-25.785796 0.71889,-37.250363 0.19544,-11.4645672 0.44693,-20.9928737 0.55888,-21.1740221 0.11196,-0.181142 6.34445,-0.2721391 13.84998,-0.2022237 15.57194,0.1450662 14.75278,0.4376825 14.62385,-5.2238622 l -0.0757,-3.324156 c -9.29958,-0.652025 -18.8195,0.569241 -28.08,-0.680884 -0.17479,-0.17479 -0.35759,-2.32885 -0.4062,-4.786803 l -0.0884,-5.540256 -9.8043,-0.17331 z" />
    </g>
  <path
     id="Neutral Frame"
     style="opacity:1;fill:none;fill-opacity:1;stroke:#0000ff;stroke-width:10;stroke-linecap:butt;stroke-linejoin:miter;stroke-miterlimit:4;stroke-dasharray:none;stroke-dashoffset:0;stroke-opacity:1"
     d="M 105,5 H 495 V 395 H 105 Z" />
</svg>
