<?xml version="1.0" encoding="UTF-8" standalone="no"?>
<svg
   xmlns="http://www.w3.org/2000/svg"
   id="NATO Map Symbol"
   height="400"
   width="600">
	<g
       id="JAM"
	   style="fill:none;stroke:#0000ff;stroke-width:10;stroke-linecap:butt">
      <path
         d="m 321.66666,67.750378 c 21.09807,0 22.23528,37.296152 43.33334,37.296152 21.09807,0 22.24055,-36.914262 43.33333,-37.296152 v 0 c 21.09806,0 22.23526,37.296152 43.33333,37.296152 21.09806,0 22.23526,-37.296152 43.33333,-37.296152 M 105,105.04653 c 21.09807,0 22.23527,-37.296152 43.33333,-37.296152 21.09807,0 22.23527,37.296152 43.33333,37.296152 21.09807,0 22.23527,-37.296152 43.33333,-37.296152 21.09806,0 22.23527,37.296152 43.33335,37.296152 21.09806,0 22.24054,-36.914262 43.33332,-37.296152"
		 id="Wave1"/>
      <path
         d="m 321.66667,20.442169 c 21.09807,0 22.23528,37.296153 43.33334,37.296153 21.09807,0 22.24055,-36.914263 43.33333,-37.296153 v 0 c 21.09806,0 22.23526,37.296153 43.33333,37.296153 21.09806,0 22.23526,-37.296153 43.33333,-37.296153 M 105.00001,57.738322 c 21.09807,0 22.23527,-37.296153 43.33333,-37.296153 21.09807,0 22.23527,37.296153 43.33333,37.296153 21.09807,0 22.23527,-37.296153 43.33333,-37.296153 21.09806,0 22.23527,37.296153 43.33335,37.296153 21.09806,0 22.24054,-36.914263 43.33332,-37.296153"
         id="Wave2" />
    </g>
  <text
     style="font-size:125px;font-family:DejaVu Sans Mono, sans-serif;text-align:center;text-anchor:middle;fill:#0000ff;stroke:none"
     id="MAIN"
     y="245"
     x="300">CYBER</text>
  <path
     id="Neutral Frame"
     style="fill:none;stroke:#0000ff;stroke-width:10;stroke-linejoin:miter;stroke-miterlimit:4"
     d="M 105,5 H 495 V 395 H 105 Z" />
</svg>
