<?xml version="1.0" encoding="UTF-8" standalone="no"?>
<svg
   xmlns="http://www.w3.org/2000/svg"
   id="NATO Map Symbol"
   height="400"
   width="600">
  <g
     id="SpLvl"
	 style="fill:none;stroke:#0000ff;stroke-width:10;stroke-linecap:butt">
  <path
     id="Corps"
     d="M 495,5 435,200 495,395" />
  </g>
  <g
     id="Tpt"
     style="fill:none;stroke:#0000ff;stroke-width:10;stroke-linecap:butt">
    <path
       id="Wheel"
       d="m 394.32926,258.822 a 94.329284,94.290644 0 1 1 -188.65855,0 94.329284,94.290644 0 1 1 188.65855,0 z" />
    <path
       id="Wheel-H"
       d="M 205.67071,258.822 H 394.32925" />
    <path
       id="Wheel-D1"
       d="M 233.29911,325.49555 366.70085,192.14846" />
    <path
       id="Wheel-V"
       d="M 299.99999,164.53137 V 353.11264" />
    <path
       id="Wheel-D2"
       d="M 233.29911,192.14846 366.70085,325.49555" />
  </g>
  <g
     id="Rail"
     style="fill:none;stroke:#0000ff;stroke-width:10;stroke-linecap:square;stroke-miterlimit:4" >
      <path
         d="m 206.75972,114.88127 c 0.005,13.63822 -11.04971,24.69673 -24.68792,24.69673 -13.63821,0 -24.69267,-11.05851 -24.6878,-24.69673 -0.005,-13.63821 11.04959,-24.696733 24.6878,-24.696733 13.63821,0 24.6928,11.058523 24.68792,24.696733 z"
         id="Wheel-L1" />
      <path
         d="m 267.43896,114.88127 a 24.687925,24.687925 0 1 1 -49.37585,0 24.687925,24.687925 0 1 1 49.37585,0 z"
         id="Wheel-L2" />
      <path
         d="m 381.93688,114.88127 a 24.687925,24.687925 0 1 1 -49.37584,0 24.687925,24.687925 0 1 1 49.37584,0 z"
         id="Wheel-R1" />
      <path
         d="m 442.616,114.88127 c 0.005,13.63822 -11.04959,24.69673 -24.6878,24.69673 -13.6382,0 -24.69279,-11.05851 -24.68792,-24.69673 -0.005,-13.63821 11.04972,-24.696733 24.68792,-24.696733 13.63821,0 24.69267,11.058523 24.6878,24.696733 z"
         id="Wheel-R2" />
      <path
         id="Deck"
         d="M 157.384,80.184538 H 442.616"/>
  </g>
  <path
     id="Neutral Frame"
     style="fill:none;stroke:#0000ff;stroke-width:10;stroke-linejoin:miter;stroke-miterlimit:4"
     d="M 105,5 H 495 V 395 H 105 Z" />
</svg>
