<?xml version="1.0" encoding="UTF-8" standalone="no"?>
<svg xmlns="http://www.w3.org/2000/svg" 
   id="NATO Map Symbol"
   height="400"
   width="600">
  <g
     id="Mortar">
    <path
       d="m 321.51648,257.3036 c 0,10.84526 -9.67551,19.63708 -21.61085,19.63708 -11.93535,0 -21.61086,-8.79182 -21.61086,-19.63708 0,-10.84525 9.67551,-19.63707 21.61086,-19.63707 11.93534,0 21.61085,8.79182 21.61085,19.63707 z"
       id="path2985"
       style="fill:none;stroke:#0000ff;stroke-width:10.00000095;stroke-linecap:round;stroke-linejoin:miter;stroke-miterlimit:4;stroke-dasharray:none;stroke-opacity:1" />
    <path
       d="M 299.90563,237.66653 V 124.20787"
       id="path2992"
       style="fill:none;stroke:#0000ff;stroke-width:10.00000095;stroke-linecap:butt;stroke-linejoin:miter;stroke-miterlimit:4;stroke-dasharray:none;stroke-opacity:1" />
    <path
       d="M 323.36342,144.256 299.99999,124.20787 276.63658,144.256"
       id="path2996"
       style="fill:none;stroke:#0000ff;stroke-width:10.00000095;stroke-linecap:butt;stroke-linejoin:miter;stroke-miterlimit:4;stroke-dasharray:none;stroke-opacity:1" />
  </g>
  <path
     style="color:#0000ff;display:inline;overflow:visible;visibility:visible;fill:none;stroke:#0000ff;stroke-width:10"
     d="m 215.40054,292.5 c -51.4861,0 -93.22383,-41.01389 -93.22383,-92.5 0,-51.4861 41.73773,-92.5 93.22383,-92.5 h 169.19892 c 51.4861,0 93.22383,41.0139 93.22383,92.5 0,51.48611 -41.73773,92.5 -93.22383,92.5 z"
     id="ARMOUR" />
  <path
     id="Neutral Frame"
     style="opacity:1;fill:none;fill-opacity:1;stroke:#0000ff;stroke-width:10;stroke-linecap:butt;stroke-linejoin:miter;stroke-miterlimit:4;stroke-dasharray:none;stroke-dashoffset:0;stroke-opacity:1"
     d="M 105,5 H 495 V 395 H 105 Z" />
</svg>
