<?xml version="1.0" encoding="UTF-8" standalone="no"?>
<svg
   xmlns="http://www.w3.org/2000/svg"
   id="NATO Map Symbol"
   height="400"
   width="600">
  <path
     id="Recce"
     style="fill:none;stroke:#0000ff;stroke-width:10;stroke-linecap:butt"
     d="M 495,5 105,395" />
  <text
     style="fill:#0000ff;font-size:100px;font-family:sans-serif;text-align:center;text-anchor:middle;stroke:none"
     id="S1"
     y="93"
     x="300">SOF</text>
  <g
     id="Pirate"
	 style="fill:#0000ff;stroke:none">
    <path
       d="m 392.9,280.7 c 1.1,-2.7 2.8,-7.4 3.4,-10.7 -16.3,-8 -26.6,-12.6 -39,-20.5 1.2,-1.6 -4.4,-6.3 -5.9,-4.1 -47.6,-32.1 -85.9,-91.3 -99.5,-143.7 -2.6,63.6 51.4,122 94.3,153.6 l 5.9,3.8 c 13.3,9 25.3,15.4 34.3,19 z"
       id="Sword1" />
    <path
       d="m 386.4,278 c -2.3,3.7 -4.9,8 -9,9.5 -5.3,1.9 -12,0.8 -16.7,-2.3 -5.3,-3.5 -8.4,-10.1 -9.7,-16.2 -0.7,-3.6 0.1,-6.7 1.1,-9.9 1.1,-3.5 3.2,-6.7 5.2,-9.7 1.2,-1.8 2.5,-3.3 4,-5 l -4.7,-5.6 c -2,2.2 -3.7,4.2 -5.2,6.5 -2,3.1 -4,6.4 -5.2,9.9 -1.5,4.7 -3,9.8 -2,14.7 1.7,8.4 5.9,17.4 13.1,22.1 6.3,4.2 15.7,6.1 22.6,2.9 9.1,-4.2 14,-11.7 16.5,-25 -2,-1 -5.9,-2.9 -5.9,-2.9 0,0 -2,7.7 -4.1,11 z"
       id="handle1" />
    <path
       d="m 207.2,280.7 c -1.1,-2.7 -2.8,-7.4 -3.4,-10.7 16.3,-8 26.6,-12.6 39,-20.5 -1.2,-1.6 4.4,-6.3 5.9,-4.1 47.6,-32.1 85.9,-91.3 99.5,-143.7 2.6,63.6 -51.4,122 -94.3,153.6 l -5.9,3.8 c -13.3,9 -25.3,15.4 -34.3,19 z"
       id="sword2" />
    <path
       d="m 213.7,278 c 2.3,3.7 4.9,8 9,9.5 5.3,1.9 12,0.8 16.7,-2.3 5.3,-3.5 8.4,-10.1 9.7,-16.2 0.7,-3.6 -0.1,-6.7 -1.1,-9.9 -1.1,-3.5 -3.2,-6.7 -5.2,-9.7 -1.2,-1.8 -2.5,-3.3 -4,-5 l 4.7,-5.6 c 2,2.2 3.7,4.2 5.2,6.5 2,3.1 4,6.4 5.2,9.9 1.5,4.7 3,9.8 2,14.7 -1.7,8.4 -5.9,17.4 -13.1,22.1 -6.3,4.2 -15.7,6.1 -22.6,2.9 -9.1,-4.2 -14,-11.7 -16.5,-25 2,-1 5.9,-2.9 5.9,-2.9 0,0 2,7.7 4.1,11 z"
       id="handle2" />
  </g>
  <path
     id="Neutral Frame"
     style="fill:none;stroke:#0000ff;stroke-width:10;stroke-linejoin:miter;stroke-miterlimit:4"
     d="M 105,5 H 495 V 395 H 105 Z" />
</svg>
