<?xml version="1.0" encoding="UTF-8" standalone="no"?>
<svg
   xmlns="http://www.w3.org/2000/svg"
   id="NATO Map Symbol"
   height="400"
   width="600">
  <g
     id="SpLvl"
	 style="fill:none;stroke:#0000ff;stroke-width:10;stroke-linecap:butt">
  <path
     id="Corps"
     d="M 495,5 435,200 495,395" />
  </g>
  <path
     style="fill:none;stroke:#0000ff;stroke-width:10;stroke-linecap:butt"
     d="M 105,303.79177 H 465"
     id="Supply" />
  <g
     id="Gear"
	 style="fill:none;stroke:#0000ff;stroke-width:10;stroke-linecap:butt">
    <path
       d="m 347.30471,152.68343 a 66.898996,66.915743 0 1 1 -94.60944,94.63314 66.898996,66.915743 0 1 1 94.60944,-94.63314 z"
       id="circle1" />
    <path
       d="m 231.41777,131.4006 17.90409,17.90857"
       id="Tooth1" />
    <path
       d="m 350.67816,250.69083 17.90407,17.90858"
       id="Tooth2" />
    <path
       d="m 249.33967,250.67301 -17.9041,17.90859"
       id="Tooth3" />
    <path
       d="M 368.56442,131.41842 350.66035,149.327"
       id="Tooth4" />
    <path
       d="m 203.01007,200 h 25.32022"
       id="Tooth5" />
    <path
       d="m 371.66972,200 h 25.32021"
       id="Tooth7" />
    <path
       d="m 300,271.66246 v 25.32656"
       id="Tooth8" />
    <path
       d="m 300,103.01099 v 25.32656"
       id="Tooth6" />
  </g>
  <path
     id="Neutral Frame"
     style="fill:none;stroke:#0000ff;stroke-width:10;stroke-linejoin:miter;stroke-miterlimit:4"
     d="M 105,5 H 495 V 395 H 105 Z" />
</svg>
