<?xml version="1.0" encoding="UTF-8" standalone="no"?>
<svg
   xmlns="http://www.w3.org/2000/svg"
   id="NATO Map Symbol"
   height="400"
   width="600">
    <g
       transform="translate(0,-78.232275)"
       id="AFV Wheeled">
      <path
         id="Wheel-L"
         style="fill:none;stroke:#0000ff;stroke-width:10"
         d="m 250.28578,338.88127 a 31.357262,31.357262 0 1 1 -62.71451,0 31.357262,31.357262 0 1 1 62.71451,0 z" />
      <path
         id="Wheel-C"
         style="fill:none;stroke:#0000ff;stroke-width:10"
         d="m 331.35727,338.88127 a 31.357262,31.357262 0 1 1 -62.71452,0 31.357262,31.357262 0 1 1 62.71452,0 z" />
      <path
         id="Wheel-R"
         style="fill:none;stroke:#0000ff;stroke-width:10"
         d="m 412.42874,338.88127 a 31.357262,31.357262 0 1 1 -62.71452,0 31.357262,31.357262 0 1 1 62.71452,0 z" />
      <path
         id="ARMOUR"
         d="m 215.40054,292.5 c -51.4861,0 -93.22383,-41.01389 -93.22383,-92.5 0,-51.4861 41.73773,-92.5 93.22383,-92.5 h 169.19892 c 51.4861,0 93.22383,41.0139 93.22383,92.5 0,51.48611 -41.73773,92.5 -93.22383,92.5 z"
         style="fill:none;stroke:#0000ff;stroke-width:10" />
    </g>
  <path
     id="ABN"
     d="m 184.38444,356.7218 c 0,0 34.41086,-31.99987 68.95575,-30.86118 39.3232,1.29621 46.49508,40.79953 46.49508,40.79953 0,0 6.23863,-39.4259 46.49509,-40.79953 40.25646,-1.37362 68.95575,30.86118 68.95575,30.86118"
     style="fill:none;stroke:#0000ff;stroke-width:10;stroke-linecap:butt;stroke-linejoin:miter;stroke-miterlimit:4" />
  <path
     id="Neutral Frame"
     style="fill:none;stroke:#0000ff;stroke-width:10;stroke-linejoin:miter;stroke-miterlimit:4"
     d="M 105,5 H 495 V 395 H 105 Z" />
</svg>
