<?xml version="1.0" encoding="UTF-8" standalone="no"?>
<svg
   xmlns="http://www.w3.org/2000/svg"
   id="NATO Map Symbol"
   height="400"
   width="600">
  <path
     style="fill:none;stroke:#0000ff;stroke-width:10"
     d="m 315,38 c 0,-8.3 -6.7,-17 -15,-17 -8.3,0 -15,8.7 -15,17 v 58"
     id="FlameWpns" />
  <g
     id="CBRN"
	 style="fill:none;stroke:#0000ff;stroke-width:10;stroke-linecap:round;stroke-linejoin:round">
    <path
       d="m 249.78974,177.29784 c 3.82873,-4.59447 0,-25.26959 -16.84639,-36.75577 -17.61214,-11.48618 -37.52152,-13.01767 -42.88173,-3.82873 -7.65746,9.18894 0,25.26959 16.84639,36.75577 17.61214,11.48618 39.05301,8.4232 42.88173,3.82873 z m -31.39555,-43.64748 c 65.85409,26.03534 134.00541,135.5369 134.00541,135.5369" />
    <path
       d="m 350.21026,177.29784 c -3.82873,-4.59447 0,-25.26959 16.84639,-36.75577 17.61214,-11.48618 37.52152,-13.01767 42.88174,-3.82873 7.65745,9.18894 0,25.26959 -16.8464,36.75577 -17.61214,11.48618 -39.053,8.4232 -42.88173,3.82873 z m 31.39555,-43.64748 C 315.75172,159.6857 247.6004,269.18726 247.6004,269.18726" />
    <g
        id="CBRN1"
	    style="fill:#0000ff;stroke:none">
	   <path
          d="m 249.78974,177.29784 c 3.82873,-4.59447 0,-25.26959 -16.84639,-36.75577 -17.61214,-11.48618 -37.52152,-13.01767 -42.88173,-3.82873 -7.65746,9.18894 0,25.26959 16.84639,36.75577 17.61214,11.48618 39.05301,8.4232 42.88173,3.82873 z" />
       <path
          d="m 350.21026,177.29784 c -3.82873,-4.59447 0,-25.26959 16.84639,-36.75577 17.61214,-11.48618 37.52152,-13.01767 42.88174,-3.82873 7.65745,9.18894 0,25.26959 -16.8464,36.75577 -17.61214,11.48618 -39.053,8.4232 -42.88173,3.82873 z" />
    </g>
  </g>
   <path
      id="ARMOUR"
      d="m 215,292 c -51,0 -92,-41 -92,-92 0,-51 41,-92 92,-92 h 170 c 51,0 92,41 92,92 0,51 -42,92 -92,92 z"
      style="fill:none;stroke:#0000ff;stroke-width:10" />
  <path
     id="ABN"
     d="m 185,357 c 0,0 35.45511,-32.13869 70,-31 39.3232,1.29621 45,41 45,41 0,0 4.74354,-39.62637 45,-41 40.25646,-1.37362 70,31 70,31"
     style="fill:none;stroke:#0000ff;stroke-width:10;stroke-linecap:butt;stroke-linejoin:miter;stroke-miterlimit:4" />
  <path
     id="Neutral Frame"
     style="fill:none;stroke:#0000ff;stroke-width:10;stroke-linejoin:miter;stroke-miterlimit:4"
     d="M 105,5 H 495 V 395 H 105 Z" />
</svg>
