<?xml version="1.0" encoding="UTF-8" standalone="no"?>
<svg
   xmlns="http://www.w3.org/2000/svg"
   id="NATO Map Symbol"
   height="400"
   width="600">
  <text
     style="fill:#0000ff;font-size:75px;font-family:sans-serif;text-align:center;text-anchor:middle;stroke:none"
     id="S1"
     y="175"
     x="300">S</text>
  <g
     id="CBRN"
	 style="fill:none;stroke:#0000ff;stroke-width:12;stroke-linecap:round;stroke-linejoin:round">
    <path
       d="m 234.42955,210.35285 c 5,-6 0,-33 -22,-48 -23,-15 -49,-17 -56,-5 -10,12 0,33 22,48 23,15 51,11 56,5 z m -41,-57 c 86,34 177,197 177,197" />
    <path
       d="m 365.57045,210.35285 c -5,-6 0,-33 22,-48 23,-15 49,-17 56,-5 10,12 0,33 -22,48 -23,15 -51,11 -56,5 z m 41,-57 c -86,34 -177,197 -177,197" />
    <g
        id="CBRN1"
	    style="fill:#0000ff;stroke:none">
	   <path
          d="m 234.42955,210.35285 c 5,-6 0,-33 -22,-48 -23,-15 -49,-17 -56,-5 -10,12 0,33 22,48 23,15 51,11 56,5 z" />
       <path
          d="m 365.57045,210.35285 c -5,-6 0,-33 22,-48 23,-15 49,-17 56,-5 10,12 0,33 -22,48 -23,15 -51,11 -56,5 z" />
    </g>
  </g>
   <path
      id="ARMOUR"
      d="m 215.40054,292.5 c -51.4861,0 -93.22383,-41.01389 -93.22383,-92.5 0,-51.4861 41.73773,-92.5 93.22383,-92.5 h 169.19892 c 51.4861,0 93.22383,41.0139 93.22383,92.5 0,51.48611 -41.73773,92.5 -93.22383,92.5 z"
      style="fill:none;stroke:#0000ff;stroke-width:10" />
  <path
     id="Neutral Frame"
     style="fill:none;stroke:#0000ff;stroke-width:10;stroke-linejoin:miter;stroke-miterlimit:4"
     d="M 105,5 H 495 V 395 H 105 Z" />
</svg>
