<?xml version="1.0" encoding="UTF-8" standalone="no"?>
<svg
   xmlns="http://www.w3.org/2000/svg"
   width="600"
   height="400"
   id="NATO Map Symbol">
  <path
     id="Theatre Level"
     style="fill:none;stroke:#0000ff;stroke-width:10;stroke-linecap:butt;stroke-linejoin:miter;stroke-miterlimit:4;stroke-dasharray:none;stroke-opacity:1"
     d="M 105,5 195,200 105,395" />
  <path
     id="Corps Level"
     style="fill:none;stroke:#0000ff;stroke-width:10;stroke-linecap:butt;stroke-linejoin:miter;stroke-miterlimit:4;stroke-dasharray:none;stroke-opacity:1"
     d="M 495,5 405,200 495,395" />
  <g
     id="Tpt">
    <path
       style="fill:none;stroke:#0000ff;stroke-width:10;stroke-miterlimit:4;stroke-dasharray:none;stroke-opacity:1"
       id="Wheel"
       d="m 383.1667,200 a 83.166707,83.143921 0 1 1 -166.3334,0 83.166707,83.143921 0 1 1 166.3334,0 z" />
    <path
       style="fill:none;stroke:#0000ff;stroke-width:10;stroke-linecap:butt;stroke-linejoin:miter;stroke-miterlimit:4;stroke-dasharray:none;stroke-opacity:1"
       id="Wheel-H"
       d="M 216.8333,200 H 383.16669" />
    <path
       style="fill:none;stroke:#0000ff;stroke-width:10;stroke-linecap:butt;stroke-linejoin:miter;stroke-miterlimit:4;stroke-dasharray:none;stroke-opacity:1"
       id="Wheel-D1"
       d="M 241.19226,258.79162 358.80773,141.20838" />
    <path
       style="fill:none;stroke:#0000ff;stroke-width:10;stroke-linecap:butt;stroke-linejoin:miter;stroke-miterlimit:4;stroke-dasharray:none;stroke-opacity:1"
       id="Wheel-V"
       d="M 300,116.85609 V 283.14391" />
    <path
       style="fill:none;stroke:#0000ff;stroke-width:10;stroke-linecap:butt;stroke-linejoin:miter;stroke-miterlimit:4;stroke-dasharray:none;stroke-opacity:1"
       id="path3787-1-8"
       d="M 241.19226,141.20838 358.80773,258.79162" />
  </g>
  <path
     d="m 429.75779,314.29616 c 0,27.19661 -58.09454,58.37556 -129.75779,58.37556 -71.66324,0 -129.75779,-27.72602 -129.75779,-58.37556 z"
     id="Float"
     style="color:#0000ff;fill:none;stroke:#0000ff;stroke-width:10;stroke-miterlimit:4" />
  <path
     id="Neutral Frame"
     style="fill:none;stroke:#0000ff;stroke-width:10;stroke-linejoin:miter;stroke-miterlimit:4"
     d="M 105,5 H 495 V 395 H 105 Z" />
</svg>
