<?xml version="1.0" encoding="UTF-8" standalone="no"?>
<svg
   xmlns="http://www.w3.org/2000/svg"
   id="NATO Map Symbol"
   height="400"
   width="600">
  <g
     id="RADAR"
	 style="fill:none;stroke:#0000ff;stroke-width:10;stroke-linecap:butt;stroke-linejoin:miter;stroke-miterlimit:4">
    <path
       id="Dish"
       d="M 339.85093,73.12644 321.94031,87.34267 C 309.08075,95.999383 291.02517,95.59846 278.49595,86.505965 265.86717,77.815614 259.47351,61.201493 263.0405,46.289266 265.02966,37.04098 275.45304,25.705554 278.21253,23.22177 l 6.85843,-6.173193" />
    <path
       id="Bolt"
       d="m 267.40924,77.995382 37.5941,-31.775964 -1.34264,19.692146 34.0137,-28.643122" />
  </g>
  <path
     id="Surv"
     d="M 423.74368,287.49982 H 176.25631 L 300,112.49982 Z"
     style="fill:#0000ff;stroke:#0000ff;stroke-width:10;stroke-linejoin:miter;stroke-miterlimit:10" />
  <path
     id="ABN"
     d="m 185,357 c 0,0 35.45511,-32.13869 70,-31 39.3232,1.29621 45,41 45,41 0,0 4.74354,-39.62637 45,-41 40.25646,-1.37362 70,31 70,31"
     style="fill:none;stroke:#0000ff;stroke-width:10;stroke-linecap:butt;stroke-linejoin:miter;stroke-miterlimit:4" />
  <path
     id="Neutral Frame"
     style="fill:none;stroke:#0000ff;stroke-width:10;stroke-linejoin:miter;stroke-miterlimit:4"
     d="M 105,5 H 495 V 395 H 105 Z" />
</svg>
