<?xml version="1.0" encoding="UTF-8" standalone="no"?>
<svg
   xmlns="http://www.w3.org/2000/svg"
   id="NATO Map Symbol"
   height="400"
   width="600">
  <g
     style="fill:none;stroke:#0000ff;stroke-width:10;stroke-linecap:none;stroke-linejoin:miter;stroke-miterlimit:4"
     id="Obs">
  <path
     id="Surv"
     d="M 482.97799,330.27386 H 117.022 L 300,71.503893 Z" />
    <path
       id="Recce"
       d="M 117,330.3 C 208.5,287 300,244 391.5,200.9" />
  </g>
  <g
     id="CBRN"
	 style="fill:none;stroke:#0000ff;stroke-width:10;stroke-linecap:round;stroke-linejoin:round">
    <path
       d="m 260.836,246.29135 c 2.98641,-3.58369 0,-19.71028 -13.14019,-28.66951 -13.73747,-8.95922 -29.26678,-10.15378 -33.44775,-2.9864 -5.97281,7.16737 0,19.71028 13.14019,28.6695 13.73747,8.95922 30.46135,6.57009 33.44775,2.98641 z m -24.48853,-34.04504 c 51.36619,20.30757 104.52422,105.71878 104.52422,105.71878" />
    <path
       d="m 339.164,246.29135 c -2.98641,-3.58369 0,-19.71028 13.14019,-28.66951 13.73747,-8.95922 29.26678,-10.15378 33.44776,-2.9864 5.97281,7.16737 0,19.71028 -13.1402,28.6695 -13.73747,8.95922 -30.46134,6.57009 -33.44775,2.98641 z m 24.48853,-34.04504 C 312.28634,232.55388 259.12831,317.96509 259.12831,317.96509" />
    <g
        id="CBRN1"
	    style="fill:#0000ff;stroke:none">
	   <path
          d="m 260.836,246.29135 c 2.98641,-3.58369 0,-19.71028 -13.14019,-28.66951 -13.73747,-8.95922 -29.26678,-10.15378 -33.44775,-2.9864 -5.97281,7.16737 0,19.71028 13.14019,28.6695 13.73747,8.95922 30.46135,6.57009 33.44775,2.98641 z" />
       <path
          d="m 339.164,246.29135 c -2.98641,-3.58369 0,-19.71028 13.14019,-28.66951 13.73747,-8.95922 29.26678,-10.15378 33.44776,-2.9864 5.97281,7.16737 0,19.71028 -13.1402,28.6695 -13.73747,8.95922 -30.46134,6.57009 -33.44775,2.98641 z" />
    </g>
  </g>
  <path
     id="Neutral Frame"
     style="fill:none;stroke:#0000ff;stroke-width:10;stroke-linejoin:miter;stroke-miterlimit:4"
     d="M 105,5 H 495 V 395 H 105 Z" />
</svg>
