<?xml version="1.0" encoding="UTF-8" standalone="no"?>
<svg
   xmlns="http://www.w3.org/2000/svg"
   width="600"
   height="400"
   id="NATO Map Symbol">
  <text
     style="fill:#0000ff;font-size:100px;font-family:sans-serif;text-align:center;text-anchor:middle;stroke:none"
     id="S1"
     y="93"
     x="300">SOF</text>
  <g
     id="Pirate"
	 style="fill:#ffffff;stroke:#0000ff;stroke-width:5;stroke-miterlimit:4">
    <path
       d="m 393.8085,281.46835 c 1.07754,-2.74287 2.85329,-7.46373 3.4703,-10.84174 -16.49952,-8.12268 -26.89465,-12.7228 -39.4244,-20.7377 1.18851,-1.64735 -4.41018,-6.33124 -5.925,-4.10196 -48.03289,-32.39655 -86.78309,-92.24454 -100.50266,-145.13201 -2.60416,64.25336 51.95852,123.1812 95.26125,155.15902 l 5.92505,3.8741 c 13.41173,9.05858 25.56296,15.52472 34.63875,19.14247 z"
       id="Sword1" />
    <path
       d="m 387.25179,278.83053 c -2.33219,3.73791 -4.95854,8.11138 -9.11546,9.57123 -5.35186,1.8795 -12.12945,0.84567 -16.8636,-2.27886 -5.31681,-3.50909 -8.45486,-10.18087 -9.7991,-16.40784 -0.70982,-3.2881 0.13841,-6.81555 1.13941,-10.027 1.10231,-3.53647 3.18524,-6.71792 5.24136,-9.79915 1.19853,-1.79608 2.52253,-3.30636 4.10196,-5.01351 l -4.78559,-5.69714 c -2.02801,2.19282 -3.70974,4.25088 -5.24137,6.60869 -2.05449,3.16271 -4.09225,6.43491 -5.24141,10.02701 -1.51883,4.74762 -3.03346,9.92578 -2.05096,14.81265 1.70503,8.48065 5.99517,17.57177 13.21737,22.33288 6.39548,4.21611 15.82551,6.15503 22.78866,2.9625 9.17358,-4.20598 14.16771,-11.78335 16.63574,-25.29538 -2.06244,-1.01534 -5.91727,-2.89443 -5.91727,-2.89443 0,0 -2.0215,7.75143 -4.10974,11.09835 z"
       id="handle1" />
    <path
       d="m 206.19149,281.37893 c -1.07754,-2.74286 -2.85329,-7.46372 -3.47029,-10.84173 16.49952,-8.12268 26.89465,-12.72281 39.4244,-20.7377 -1.18852,-1.64735 4.41018,-6.33124 5.925,-4.10196 48.03289,-32.39655 86.78309,-92.24454 100.50266,-145.13202 2.60416,64.25337 -51.95852,123.18121 -95.26125,155.15903 l -5.92505,3.87409 c -13.41174,9.05858 -25.56296,15.52473 -34.63875,19.14247 z"
       id="sword2" />
    <path
       d="m 212.74821,278.74111 c 2.33219,3.73792 4.95854,8.11139 9.11546,9.57124 5.35186,1.8795 12.12945,0.84567 16.8636,-2.27887 5.31681,-3.50909 8.45485,-10.18086 9.7991,-16.40783 0.70982,-3.2881 -0.13841,-6.81555 -1.13941,-10.02701 -1.10231,-3.53647 -3.18524,-6.71791 -5.24136,-9.79914 -1.19853,-1.79608 -2.52253,-3.30636 -4.10196,-5.01351 l 4.78559,-5.69714 c 2.02801,2.19282 3.70974,4.25087 5.24137,6.60869 2.05449,3.16271 4.09225,6.43491 5.24141,10.02701 1.51883,4.74762 3.03346,9.92578 2.05096,14.81265 -1.70503,8.48064 -5.99517,17.57176 -13.21737,22.33288 -6.39548,4.21611 -15.82551,6.15503 -22.78866,2.9625 -9.17358,-4.20599 -14.16771,-11.78335 -16.63574,-25.29538 2.06244,-1.01534 5.91726,-2.89444 5.91726,-2.89444 0,0 2.02151,7.75144 4.10975,11.09835 z"
       id="handle2" />
  </g>
  <path
     id="Neutral Frame"
     style="opacity:1;fill:none;fill-opacity:1;stroke:#0000ff;stroke-width:10;stroke-linecap:butt;stroke-linejoin:miter;stroke-miterlimit:4;stroke-dasharray:none;stroke-dashoffset:0;stroke-opacity:1"
     d="M 105,5 H 495 V 395 H 105 Z" />
</svg>
