<?xml version="1.0" encoding="UTF-8" standalone="no"?>
<svg
   xmlns="http://www.w3.org/2000/svg"
   id="NATO Map Symbol"
   height="400"
   width="600">
  <text
     style="fill:#0000ff;font-size:100px;font-family:sans-serif;text-align:center;text-anchor:middle;stroke:none"
     id="S1"
     y="93"
     x="300">ASLT</text>
   <path
      id="ARMOUR"
      d="m 215.40054,292.5 c -51.4861,0 -93.22383,-41.01389 -93.22383,-92.5 0,-51.4861 41.73773,-92.5 93.22383,-92.5 h 169.19892 c 51.4861,0 93.22383,41.0139 93.22383,92.5 0,51.48611 -41.73773,92.5 -93.22383,92.5 z"
      style="fill:none;stroke:#0000ff;stroke-width:10" />
  <text
     style="font-size:100px;font-family:sans-serif;text-align:center;text-anchor:middle;fill:#0000ff;stroke:none"
     id="S2"
     y="380"
     x="300">L</text>
  <path
     id="GunSys"
     d="M 165,5 V 395"
     style="fill:none;stroke:#0000ff;stroke-width:10;stroke-linecap:butt" />
  <path
     id="Wave" 
     d="m 105,231.32886 c 31.6471,0 33.35292,-62.65772 65.00001,-62.65772 31.64711,0 33.36084,62.01615 65,62.65772 v 0 c 31.64711,0 33.35289,-62.65772 65.00001,-62.65772 31.64709,0 33.35289,62.65772 64.99999,62.65772 31.6471,0 33.35291,-62.65772 65,-62.65772 31.64711,0 33.3529,62.65772 64.99999,62.65772"
     style="fill:none;stroke:#0000ff;stroke-width:10;stroke-linecap:butt;"/>
  <path
     id="Neutral Frame"
     style="fill:none;stroke:#0000ff;stroke-width:10;stroke-linejoin:miter;stroke-miterlimit:4"
     d="M 105,5 H 495 V 395 H 105 Z" />
</svg>
