<?xml version="1.0" encoding="UTF-8" standalone="no"?>
<svg
   xmlns="http://www.w3.org/2000/svg"
   id="NATO Map Symbol"
   height="400"
   width="600">
  <g
     id="EOD"
     style="fill:none;stroke:#0000ff;stroke-width:10;stroke-linecap:butt;stroke-linejoin:miter;stroke-miterlimit:4;">
    <path
       d="M 271,155 V 62 c 0,-17 19,-40 29,-40 10,0 29,23 29,40 v 93 z"/>
    <path
       d="M 247,155 H 353"/>
    <path
       d="M 247,135 353,42"/>
    <path
       d="m 247,42 106,93"/>
  </g>
  <path
     d="M 300,332 V 208 M 175,332 V 208 h 250 v 124"
     style="fill:none;stroke:#0000ff;stroke-width:20;stroke-linecap:butt;stroke-linejoin:miter;stroke-miterlimit:4"
     id="ENGR" />
   <path
      id="ARMOUR"
      d="m 215.40054,357.5 c -51.4861,0 -93.22383,-41.01389 -93.22383,-92.5 0,-51.4861 41.73773,-92.5 93.22383,-92.5 h 169.19892 c 51.4861,0 93.22383,41.0139 93.22383,92.5 0,51.48611 -41.73773,92.5 -93.22383,92.5 z"
      style="fill:none;stroke:#0000ff;stroke-width:10" />
  <path
     id="Neutral Frame"
     style="fill:none;stroke:#0000ff;stroke-width:10;stroke-linejoin:miter;stroke-miterlimit:4"
     d="M 105,5 H 495 V 395 H 105 Z" />
</svg>
