<?xml version="1.0" encoding="UTF-8" standalone="no"?>
<svg
   xmlns="http://www.w3.org/2000/svg"
   id="NATO Map Symbol"
   height="400"
   width="600">
  <g
     id="AFV Wheeled">
    <path
       d="m 250.28578,344.88127 a 31.357262,31.357262 0 1 1 -62.71451,0 31.357262,31.357262 0 1 1 62.71451,0 z"
       style="fill:none;stroke:#0000ff;stroke-width:10;stroke-linecap:round;stroke-linejoin:miter;stroke-miterlimit:4;stroke-dasharray:none;stroke-opacity:1"
       id="Wheel-L" />
    <path
       d="m 331.35727,344.88127 a 31.357262,31.357262 0 1 1 -62.71452,0 31.357262,31.357262 0 1 1 62.71452,0 z"
       style="fill:none;stroke:#0000ff;stroke-width:10;stroke-linecap:round;stroke-linejoin:miter;stroke-miterlimit:4;stroke-dasharray:none;stroke-opacity:1"
       id="Wheel-C" />
    <path
       d="m 412.42874,344.88127 a 31.357262,31.357262 0 1 1 -62.71452,0 31.357262,31.357262 0 1 1 62.71452,0 z"
       style="fill:none;stroke:#0000ff;stroke-width:10;stroke-linecap:round;stroke-linejoin:miter;stroke-miterlimit:4;stroke-dasharray:none;stroke-opacity:1"
       id="Wheel-R" />
    <path
       style="color:#0000ff;display:inline;overflow:visible;visibility:visible;fill:none;stroke:#0000ff;stroke-width:10;stroke-linecap:round;stroke-linejoin:miter;stroke-miterlimit:4;stroke-dasharray:none;stroke-dashoffset:0;stroke-opacity:1;marker:none;enable-background:accumulate"
       d="m 215.40054,292.5 c -51.4861,0 -93.22383,-41.01389 -93.22383,-92.5 0,-51.4861 41.73773,-92.5 93.22383,-92.5 h 169.19892 c 51.4861,0 93.22383,41.0139 93.22383,92.5 0,51.48611 -41.73773,92.5 -93.22383,92.5 z"
       id="ARMOUR" />
  </g>
  <g
     id="Tpt">
    <path
       d="m 373.10448,200 a 73.104489,73.099529 0 1 1 -146.20896,0 73.104489,73.099529 0 1 1 146.20896,0 z"
       id="path3007"
       style="fill:none;stroke:#0000ff;stroke-width:10;stroke-miterlimit:4;stroke-dasharray:none;stroke-opacity:1" />
    <path
       d="M 226.89552,200 H 373.10447"
       id="path3787"
       style="fill:none;stroke:#0000ff;stroke-width:10;stroke-linecap:butt;stroke-linejoin:miter;stroke-miterlimit:4;stroke-dasharray:none;stroke-opacity:1" />
    <path
       d="M 248.30732,251.68916 351.69267,148.31084"
       id="path3787-1"
       style="fill:none;stroke:#0000ff;stroke-width:10;stroke-linecap:butt;stroke-linejoin:miter;stroke-miterlimit:4;stroke-dasharray:none;stroke-opacity:1" />
    <path
       d="M 300,126.90048 V 273.09952"
       id="path3787-7"
       style="fill:none;stroke:#0000ff;stroke-width:10;stroke-linecap:butt;stroke-linejoin:miter;stroke-miterlimit:4;stroke-dasharray:none;stroke-opacity:1" />
    <path
       d="M 248.30732,148.31084 351.69267,251.68916"
       id="path3787-1-8"
       style="fill:none;stroke:#0000ff;stroke-width:10;stroke-linecap:butt;stroke-linejoin:miter;stroke-miterlimit:4;stroke-dasharray:none;stroke-opacity:1" />
  </g>
  <path
     id="Neutral Frame"
     style="fill:none;stroke:#0000ff;stroke-width:10;stroke-linejoin:miter;stroke-miterlimit:4"
     d="M 105,5 H 495 V 395 H 105 Z" />
</svg>
