<?xml version="1.0" encoding="UTF-8" standalone="no"?>
<svg
   xmlns="http://www.w3.org/2000/svg"
   id="NATO Map Symbol"
   height="400"
   width="600">
  <path
     id="Sigs"
     style="fill:none;stroke:#0000ff;stroke-width:10;stroke-linecap:butt;stroke-linejoin:miter;stroke-miterlimit:4;"
     d="M 495,395 300,160 v 80 L 105,5" />
  <path
     id="Sled"
     d="m 381.07148,313.51307 c 17.32251,0 31.36345,14.04593 31.35726,31.36845 0.006,17.32252 -14.03475,31.36845 -31.35726,31.36845 l -162.14296,0.01 c -17.32632,0 -31.36883,-14.05187 -31.35725,-31.3782 -0.0116,-17.32633 14.03093,-31.3782 31.35725,-31.3782"
     style="fill:none;stroke:#0000ff;stroke-width:10;stroke-linecap:round;stroke-linejoin:miter;stroke-miterlimit:4" />
  <g
     id="Repair"
     style="fill:none;stroke:#0000ff;stroke-width:10;stroke-linecap:round;stroke-linejoin:miter;stroke-miterlimit:4">
  <path
     id="Maint-0"
     d="M 239.57574,55.11873 H 361.43195"/>
  <path
     id="Maint-1"
     d="m 206.89204,86.79476 c 17.49418,0 31.67602,-14.18184 31.67602,-31.67603 0,-17.49418 -14.18184,-31.67602 -31.67602,-31.67602"/>
  <path
     id="Maint-2"
     d="m 393.10797,86.79476 c -17.49419,0 -31.67602,-14.18184 -31.67602,-31.67603 0,-17.49418 14.18183,-31.67602 31.67602,-31.67602"/>
  </g>
  <path
     id="Neutral Frame"
     style="fill:none;stroke:#0000ff;stroke-width:10;stroke-linejoin:miter;stroke-miterlimit:4"
     d="M 105,5 H 495 V 395 H 105 Z" />
</svg>
