<?xml version="1.0" encoding="UTF-8" standalone="no"?>
<svg
   xmlns="http://www.w3.org/2000/svg"
   id="NATO Map Symbol"
   height="400"
   width="600">
  <path
     d="m 300.12109,62.671027 c -9.06024,3.125816 -18.16087,6.251631 -18.32233,12.174226 v 0 c 0,11.845195 36.40248,12.503262 36.40248,24.262563 0,11.845194 -36.40248,12.503264 -36.40248,24.348464 0,11.84519 36.40248,12.50325 36.40248,24.34845 0,11.84519 -36.40248,12.50326 -36.40248,24.34846 0,5.9226 9.10062,9.04841 18.20124,12.17422"
     style="fill:none;stroke:#0000ff;stroke-width:12;stroke-linecap:butt;stroke-linejoin:miter;stroke-miterlimit:4"
     id="Wave" />
  <g
     style="fill:none;stroke:#0000ff;stroke-width:10;stroke-miterlimit:4"
     id="Bridge">
   <path
       d="m 166,61 56,42 h 156 l 56,-42" />
   <path
       d="m 166,186 56,-42 h 156 l 56,42" />
  </g>
  <path
     id="ENGR"
     style="fill:none;stroke:#0000ff;stroke-width:25.5;stroke-linecap:butt;stroke-linejoin:miter;stroke-miterlimit:4"
     d="M 300,340 V 210 M 150,340 V 210 h 300 v 130" />
  <path
     id="Neutral Frame"
     style="fill:none;stroke:#0000ff;stroke-width:10;stroke-linejoin:miter;stroke-miterlimit:4"
     d="M 105,5 H 495 V 395 H 105 Z" />
</svg>
