<?xml version="1.0" encoding="UTF-8" standalone="no"?>
<svg
   xmlns="http://www.w3.org/2000/svg"
   id="NATO Map Symbol"
   height="400"
   width="600">
  <text
     style="font-size:175px;font-family:sans-serif;text-align:center;text-anchor:middle;fill:#0000ff;stroke:none"
     id="MAIN"
     y="263"
     x="300">SEC</text>
  <g
     id="Rail"
	 style="fill:none;stroke:#0000ff;stroke-width:10;stroke-linecap:butt">
    <path
       d="m 180.51546,308.88127 c 0,11.38494 -9.22931,20.61423 -20.61424,20.61423 -11.38492,0 -20.61422,-9.22929 -20.61422,-20.61423 0,-11.38494 9.2293,-20.61423 20.61422,-20.61423 11.38493,0 20.61424,9.22929 20.61424,20.61423 z" />
    <path
       d="m 233.81177,308.88127 c 0,11.38494 -9.22931,20.61423 -20.61423,20.61423 -11.38493,0 -20.61424,-9.22929 -20.61424,-20.61423 0,-11.38494 9.22931,-20.61423 20.61424,-20.61423 11.38492,0 20.61423,9.22929 20.61423,20.61423 z" />
    <path
       d="m 407.41668,308.88127 c 0.007,11.38995 -9.22429,20.62707 -20.61423,20.62707 -11.38994,0 -20.62133,-9.23712 -20.61423,-20.62707 -0.007,-11.38995 9.22429,-20.62707 20.61423,-20.62707 11.38994,0 20.62133,9.23712 20.61423,20.62707 z" />
    <path
       d="m 460.713,308.88127 c 0.007,11.38995 -9.22429,20.62707 -20.61423,20.62707 -11.38994,0 -20.62133,-9.23712 -20.61423,-20.62707 -0.007,-11.38995 9.22429,-20.62707 20.61423,-20.62707 11.38994,0 20.62133,9.23712 20.61423,20.62707 z" />
    <path
       d="m 138,278.267 324,4e-5" />
  </g>
  <path
     id="Neutral Frame"
     style="fill:none;stroke:#0000ff;stroke-width:10;stroke-linejoin:miter;stroke-miterlimit:4"
     d="M 105,5 H 495 V 395 H 105 Z" />
</svg>
