<?xml version="1.0" encoding="UTF-8" standalone="no"?>
<svg
   xmlns="http://www.w3.org/2000/svg"
   id="NATO Map Symbol"
   height="400"
   width="600">
  <g
     id="SpLvl"
	 style="fill:none;stroke:#0000ff;stroke-width:10;stroke-linecap:butt">
  <path
     id="Corps"
     d="M 495,5 435,200 495,395" />
  </g>
  <g
     id="Maint"
     style="fill:none;stroke:#0000ff;stroke-width:10;stroke-linecap:round;stroke-linejoin:miter;stroke-miterlimit:4">
  <path
     id="Maint-0"
     d="M 209.10077,200 H 392.41514"/>
  <path
     id="Maint-1"
     d="m 159.93304,152.34818 c 26.31737,0 47.65182,21.33445 47.65182,47.65182 0,26.31737 -21.33445,47.65182 -47.65182,47.65182"/>
  <path
     id="Maint-2"
     d="m 440.06696,152.34818 c -26.31738,0 -47.65182,21.33445 -47.65182,47.65182 0,26.31738 21.33444,47.65182 47.65182,47.65182"/>
  </g>
  <g
     id="Ammo"
     style="fill:none;stroke:#0000ff;stroke-width:10;stroke-linecap:butt;stroke-linejoin:miter;stroke-miterlimit:4;">
    <path
       d="M 281.12339,96.022097 V 42.705632 c 0,-9.543303 12.28237,-23.0873 18.87661,-23.0873 6.59424,0 18.87661,13.543997 18.87661,23.0873 v 53.316465 z"
       id="Ammo1" />
    <path
       d="M 266.03641,96.022097 H 333.9636"
       id="Ammo2" />
  </g>
  <path
     id="Neutral Frame"
     style="fill:none;stroke:#0000ff;stroke-width:10;stroke-linejoin:miter;stroke-miterlimit:4"
     d="M 105,5 H 495 V 395 H 105 Z" />
</svg>
