<?xml version="1.0" encoding="UTF-8" standalone="no"?>
<svg
   xmlns="http://www.w3.org/2000/svg"
   id="NATO Map Symbol"
   height="400"
   width="600">
  <g
     id="MOR"
	 style="fill:none;stroke:#0000ff;stroke-width:10;stroke-linecap:round;stroke-linejoin:miter;stroke-miterlimit:4">
    <path
       d="m 334,258 a 34,34 0 0 1 -34,34 34,34 0 0 1 -34,-34 34,34 0 0 1 34,-34 34,34 0 0 1 34,34 z" />
    <path
       d="M 300,225 V 70" />
    <path
       d="M 336,104 300,70 264,104" />
  </g>
  <path
     id="Wave" 
     d="m 105,243.5 c 31.6471,0 33.35292,62.65772 65.00001,62.65772 31.64711,0 33.36084,-62.01615 65,-62.65772 v 0 c 31.64711,0 33.35289,62.65772 65.00001,62.65772 31.64709,0 33.35289,-62.65772 64.99999,-62.65772 31.6471,0 33.35291,62.65772 65,62.65772 31.64711,0 33.3529,-62.65772 64.99999,-62.65772"
     style="fill:none;stroke:#0000ff;stroke-width:10;stroke-linecap:butt;"/>
  <path
     id="Neutral Frame"
     style="fill:none;stroke:#0000ff;stroke-width:10;stroke-linejoin:miter;stroke-miterlimit:4"
     d="M 105,5 H 495 V 395 H 105 Z" />
</svg>
