<?xml version="1.0" encoding="UTF-8" standalone="no"?>
<svg
   xmlns="http://www.w3.org/2000/svg"
   id="NATO Map Symbol"
   height="400"
   width="600">
  <path
     id="Recce"
     style="fill:none;stroke:#0000ff;stroke-width:10;stroke-linecap:butt"
     d="M 495,5 105,395" />
  <g
     style="fill:none;stroke:#0000ff;stroke-width:10;stroke-linecap:square;stroke-linejoin:miter;stroke-miterlimit:4"
     id="Image">
    <path
       d="m 219.00978,34.884569 h 127.10965 l -28.1216,59.257132 h -98.98805 z"
       id="Camera" />
    <path
       d="m 338.24538,53.573357 h 42.18241 v 29.628566 h -55.68078"
       id="Zoom" />
    <path
       d="m 379.30293,47.647644 h 1.68729 V 89.58346 h -1.68729 z"
       id="Lense" />
  </g>
    <path
     id="Surv"
     d="M 413.137,279.99976 H 186.86299 L 300,119.99988 Z"
     style="fill:#0000ff;stroke:none" />
   <path
      id="ARMOUR"
      d="m 215.40054,292.5 c -51.4861,0 -93.22383,-41.01389 -93.22383,-92.5 0,-51.4861 41.73773,-92.5 93.22383,-92.5 h 169.19892 c 51.4861,0 93.22383,41.0139 93.22383,92.5 0,51.48611 -41.73773,92.5 -93.22383,92.5 z"
      style="fill:none;stroke:#0000ff;stroke-width:10" />
  <path
     id="ABN"
     d="m 185,357 c 0,0 35.45511,-32.13869 70,-31 39.3232,1.29621 45,41 45,41 0,0 4.74354,-39.62637 45,-41 40.25646,-1.37362 70,31 70,31"
     style="fill:none;stroke:#0000ff;stroke-width:10;stroke-linecap:butt;stroke-linejoin:miter;stroke-miterlimit:4" />
  <path
     id="GunSys"
     d="M 165,5 V 395"
     style="fill:none;stroke:#0000ff;stroke-width:10;stroke-linecap:butt" />
  <path
     id="Neutral Frame"
     style="fill:none;stroke:#0000ff;stroke-width:10;stroke-linejoin:miter;stroke-miterlimit:4"
     d="M 105,5 H 495 V 395 H 105 Z" />
</svg>
