<?xml version="1.0" encoding="UTF-8" standalone="no"?>
<svg
   xmlns="http://www.w3.org/2000/svg"
   id="NATO Map Symbol"
   height="400"
   width="600">
  <g
     style="fill:none;stroke:#0000ff;stroke-width:10;stroke-linecap:square;stroke-linejoin:miter;stroke-miterlimit:4"
     id="Image">
    <path
       d="m 219.00978,34.884569 h 127.10965 l -28.1216,59.257132 h -98.98805 z"
       id="Camera" />
    <path
       d="m 338.24538,53.573357 h 42.18241 v 29.628566 h -55.68078"
       id="Zoom" />
    <path
       d="m 379.30293,47.647644 h 1.68729 V 89.58346 h -1.68729 z"
       id="Lense" />
  </g>
    <path
     id="Surv"
     d="M 413.137,279.99976 H 186.86299 L 300,119.99988 Z"
     style="fill:#0000ff;stroke:none" />
   <path
      id="ARMOUR"
      d="m 215.40054,292.5 c -51.4861,0 -93.22383,-41.01389 -93.22383,-92.5 0,-51.4861 41.73773,-92.5 93.22383,-92.5 h 169.19892 c 51.4861,0 93.22383,41.0139 93.22383,92.5 0,51.48611 -41.73773,92.5 -93.22383,92.5 z"
      style="fill:none;stroke:#0000ff;stroke-width:10" />
  <path
     id="Sled"
     d="m 381.07148,313.51307 c 17.32251,0 31.36345,14.04593 31.35726,31.36845 0.006,17.32252 -14.03475,31.36845 -31.35726,31.36845 l -162.14296,0.01 c -17.32632,0 -31.36883,-14.05187 -31.35725,-31.3782 -0.0116,-17.32633 14.03093,-31.3782 31.35725,-31.3782"
     style="fill:none;stroke:#0000ff;stroke-width:10;stroke-linecap:round;stroke-linejoin:miter;stroke-miterlimit:4" />
  <path
     id="GunSys"
     d="M 165,5 V 395"
     style="fill:none;stroke:#0000ff;stroke-width:10;stroke-linecap:butt" />
  <path
     id="Neutral Frame"
     style="fill:none;stroke:#0000ff;stroke-width:10;stroke-linejoin:miter;stroke-miterlimit:4"
     d="M 105,5 H 495 V 395 H 105 Z" />
</svg>
