<?xml version="1.0" encoding="UTF-8" standalone="no"?>
<svg
   xmlns="http://www.w3.org/2000/svg"
   id="NATO Map Symbol"
   height="400"
   width="600">
  <path
     style="fill:#0000ff;fill-opacity:1;stroke:none;stroke-width:0;stroke-linejoin:round;stroke-miterlimit:4"
     id="ArrowL"
     d="M 159.29523,122.48592 110,10 221.75103,59.939597 Z" />
  <path
     d="M 378.00004,59.690297 490,10 440.45583,122.23663 Z"
     id="ArrowR"
     style="fill:#0000ff;fill-opacity:1;stroke:none;stroke-width:0;stroke-linejoin:round;stroke-miterlimit:4" />
  <path
     style="fill:none;stroke:#0000ff;stroke-width:10;stroke-linecap:butt;"
     id="Infantry1"
     d="M 495,395 120,20" />
  <path
     style="fill:none;stroke:#0000ff;stroke-width:10;stroke-linecap:butt;"
     id="Infantry2"
     d="M 480,20 105,395" />
  <path
     id="Wave" 
     d="m 105,231.32886 c 31.6471,0 33.35292,-62.65772 65.00001,-62.65772 31.64711,0 33.36084,62.01615 65,62.65772 v 0 c 31.64711,0 33.35289,-62.65772 65.00001,-62.65772 31.64709,0 33.35289,62.65772 64.99999,62.65772 31.6471,0 33.35291,-62.65772 65,-62.65772 31.64711,0 33.3529,62.65772 64.99999,62.65772"
     style="fill:none;stroke:#0000ff;stroke-width:10;stroke-linecap:butt;"/>
  <path
     id="Neutral Frame"
     style="fill:none;stroke:#0000ff;stroke-width:10;stroke-linejoin:miter;stroke-miterlimit:4"
     d="M 105,5 H 495 V 395 H 105 Z" />
</svg>
