<?xml version="1.0" encoding="UTF-8" standalone="no"?>
<svg
   xmlns="http://www.w3.org/2000/svg"
   id="NATO Map Symbol"
   height="400"
   width="600">
  <g
     id="Mach"
	 style="fill:#0000ff;stroke:#0000ff;stroke-width:10;stroke-linecap:butt;stroke-linejoin:miter;stroke-miterlimit:4">
    <path
       d="m 465,123.5 c 0,18.77768 -15.22232,34 -34,34 -18.77768,0 -34,-15.22232 -34,-34 0,-18.77768 15.22232,-34 34,-34 18.77768,0 34,15.22232 34,34 z" />
    <path
       d="m 203,123.5 c 0,18.77768 -15.22232,34 -34,34 -18.77768,0 -34,-15.22232 -34,-34 0,-18.77768 15.22232,-34 34,-34 18.77768,0 34,15.22232 34,34 z" />
    <path
       d="M 404,123.5 H 196" />
  </g>
  <g
     style="fill:none;stroke:#0000ff;stroke-width:10;stroke-miterlimit:4;stroke-dasharray:none"
     id="Bridge">
   <path
       d="m 166,61 56,42 h 156 l 56,-42" />
   <path
       d="m 166,186 56,-42 h 156 l 56,42" />
  </g>
  <path
     id="ENGR"
     style="fill:none;stroke:#0000ff;stroke-width:25.5;stroke-linecap:butt;stroke-linejoin:miter;stroke-miterlimit:4"
     d="M 300,340 V 210 M 150,340 V 210 h 300 v 130" />
  <path
     id="Neutral Frame"
     style="fill:none;stroke:#0000ff;stroke-width:10;stroke-linejoin:miter;stroke-miterlimit:4"
     d="M 105,5 H 495 V 395 H 105 Z" />
</svg>
