<?xml version="1.0" encoding="UTF-8" standalone="no"?>
<svg
   xmlns:dc="http://purl.org/dc/elements/1.1/"
   xmlns:cc="http://creativecommons.org/ns#"
   xmlns:rdf="http://www.w3.org/1999/02/22-rdf-syntax-ns#"
   xmlns:svg="http://www.w3.org/2000/svg"
   xmlns="http://www.w3.org/2000/svg"
   id="NATO Map Symbol"
   height="400"
   width="600"
   version="1.1">
  <path
     style="fill:none;stroke:#0000ff;stroke-width:10;stroke-linecap:butt;stroke-linejoin:miter;stroke-miterlimit:4;stroke-dasharray:none;stroke-opacity:1"
     d="m 386.74359,255.40574 c -9.50824,9.51098 -20.90419,17.1273 -33.32873,22.27475 -12.42454,5.14746 -25.86786,7.822 -39.31648,7.822 -13.44862,0 -26.89195,-2.67454 -39.31648,-7.822 -12.42454,-5.14745 -23.82049,-12.76377 -33.32873,-22.27475 -9.50823,-9.51098 -17.12126,-20.90914 -22.26512,-33.33516 -5.14387,-12.42603 -7.81453,-25.87013 -7.81063,-39.31875 -0.004,-13.44862 2.66676,-26.89272 7.81063,-39.31875 5.14386,-12.42602 12.75689,-23.82418 22.26512,-33.33516 9.50824,-9.51099 20.90419,-17.127304 33.32873,-22.27476 12.42453,-5.147457 25.86786,-7.822 39.31648,-7.822 13.44862,0 26.89194,2.674543 39.31648,7.822 12.42454,5.147456 23.82049,12.76377 33.32873,22.27476 -25.19558,23.68172 -49.68337,48.21144 -74.41218,72.40589 23.88114,25.1455 51.12454,47.20115 74.41218,72.90193 z"
     id="path3787-1-8" />
  <path
     id="Supply"
     style="fill:none;fill-rule:evenodd;stroke:#0000ff;stroke-width:10;stroke-linecap:butt;stroke-linejoin:miter;stroke-miterlimit:4;stroke-dasharray:none;stroke-opacity:1"
     d="M 105,303.79177 H 495" />
  <path
     id="Neutral Frame"
     style="opacity:1;fill:none;fill-opacity:1;stroke:#0000ff;stroke-width:10;stroke-linecap:butt;stroke-linejoin:miter;stroke-miterlimit:4;stroke-dasharray:none;stroke-dashoffset:0;stroke-opacity:1"
     d="M 105,5 H 495 V 395 H 105 Z" />
</svg>
