<?xml version="1.0" encoding="iso-8859-1"?>
<!DOCTYPE svg PUBLIC "-//W3C//DTD SVG 20000303 Stylable//EN"
"http://www.w3.org/TR/2000/03/WD-SVG-20000303/DTD/svg-20000303-stylable.dtd">

<svg width="1.4460in" height="1.5286in" viewBox="0 0 945 999">

<path style="fill:#131516" d="M176,834 l247,-342 -221,-316 104,0 117,171 46,72 58,-65 117,-178 105,0 -222,316 241,342 -104,0 -163,-230 -32,-40 -26,46 -163,224 -104,0z" />
<path style="fill:#131516" d="M433,485 l-19,0 -248,342 20,14 247,-342 0,-14 0,14 0,-1 1,0 0,-1 0,-1 0,0 1,-1 0,0 0,-1 0,-1 0,0 0,-1 0,0 0,-2 0,-1 0,-1 -1,-1 0,-1 -1,-1 0,-1 -1,0 -1,-1 -1,-1 -1,0 -1,-1 -1,0 -1,-1 -1,0 -1,0 -1,0 -1,0 -1,0 -1,0 -1,1 0,0 -1,0 -1,0 0,1 -1,0 0,0 -1,1 0,0 0,1 -1,0 0,1z" />
<path style="fill:#131516" d="M202,164 l-10,19 222,316 19,-14 -221,-316 -10,-5 10,5 -1,0 0,-1 -1,-1 0,0 -1,0 0,-1 -1,0 0,-1 -1,0 -1,-1 -1,0 -2,0 -1,0 -1,0 -1,0 -1,0 -1,1 -1,0 -1,1 -1,0 -1,1 -1,1 0,0 -1,1 -1,1 0,1 -1,1 0,1 0,1 0,0 0,1 0,1 0,0 0,1 0,0 0,1 0,0 0,1 1,1 0,0 0,1 0,0 1,1 0,1z" />
<path style="fill:#131516" d="M316,169 l-10,-5 -104,0 0,24 104,0 10,-19 -10,19 1,0 1,0 0,0 1,-1 0,0 1,0 1,0 0,0 1,-1 0,0 1,0 0,0 1,-1 1,-1 1,-1 0,-1 1,-1 0,-1 0,-1 1,-1 0,-1 0,-1 0,-1 0,-1 -1,-1 0,-1 0,-1 -1,-1 0,-1 -1,-1 -1,-1 -1,-1 0,0 -1,0 0,-1 -1,0 0,0 -1,0 -1,-1 0,0 -1,0 0,0 -1,0 -1,0z" />
<path style="fill:#131516" d="M433,341 l0,-1 -117,-171 -20,14 117,171 20,-13 -20,13 1,0 0,1 1,0 0,1 1,0 0,1 1,0 0,0 1,1 0,0 1,0 0,0 1,1 0,0 1,0 1,0 1,0 1,0 1,0 1,0 1,-1 1,0 1,-1 1,0 1,-1 1,-1 0,0 1,-1 1,-1 0,-1 1,-1 0,-1 0,-1 0,-1 0,-1 0,-1 0,0 0,-1 0,0 0,-1 0,-1 -1,0 0,-1 0,0 -1,-1 0,-1z" />
<path style="fill:#131516" d="M478,427 l1,-14 -46,-72 -20,12 46,73 19,1 -19,-1 0,0 1,1 0,0 0,1 1,0 0,1 1,0 0,1 1,0 0,0 1,0 0,1 1,0 1,0 0,0 1,0 1,0 1,0 1,0 1,0 1,0 1,-1 1,0 1,-1 1,0 1,-1 1,-1 0,-1 1,0 1,-1 0,-1 0,-1 1,-2 0,-1 0,0 0,-1 0,0 0,-1 0,-1 -1,0 0,-1 0,0 0,-1 -1,-1 0,0 0,-1z" />
<path style="fill:#131516" d="M537,360 l-19,-14 -58,66 18,15 58,-66 1,-1 -1,1 1,0 0,-1 0,0 1,-1 0,0 0,-1 1,-1 0,0 0,-1 0,0 0,-1 0,0 0,-2 0,-1 0,-1 0,-1 -1,-1 0,-1 -1,-1 0,-1 -1,0 -1,-1 -1,-1 -1,-1 -1,0 -1,-1 -1,0 -1,0 -1,0 -1,0 -1,0 -1,0 -1,0 0,0 -1,0 0,1 -1,0 0,0 -1,0 0,1 -1,0 -1,1 0,0 -1,1z" />
<path style="fill:#131516" d="M644,164 l-9,5 -118,178 20,13 117,-178 -10,-18 10,18 1,0 0,-1 0,0 1,-1 0,-1 0,0 0,-1 0,0 0,-2 0,-1 0,-1 0,-1 0,-1 -1,-1 0,-1 -1,-1 -1,-1 0,-1 -1,0 -1,-1 -1,-1 -1,0 -1,0 -1,-1 -1,0 -1,0 -1,0 -1,0 -2,0 -1,1 0,0 -1,0 0,0 -1,1 0,0 -1,0 0,1 -1,0 0,1 -1,0 0,1 0,0z" />
<path style="fill:#131516" d="M758,183 l-9,-19 -105,0 0,24 105,0 9,-5 -9,5 0,0 1,0 1,0 0,-1 1,0 1,0 0,0 1,0 0,-1 1,0 0,0 1,0 1,-1 1,-1 0,-1 1,-1 0,-1 1,-1 0,-1 0,-1 0,-1 0,-1 0,-1 0,-1 0,-1 0,-1 -1,-1 0,-1 -1,-1 0,-1 -1,-1 -1,-1 -1,0 0,0 -1,-1 0,0 -1,0 0,0 -1,-1 -1,0 0,0 -1,0 -1,0 0,0z" />
<path style="fill:#131516" d="M518,499 l19,0 221,-316 -19,-14 -221,316 0,14 0,-14 -1,1 0,0 0,1 -1,0 0,1 0,1 0,0 0,1 -1,0 0,1 0,1 0,0 0,1 0,0 0,1 1,0 0,1 0,1 1,1 0,1 1,1 1,1 1,1 1,0 1,1 0,1 2,0 1,0 1,1 1,0 1,0 1,0 1,-1 1,0 1,0 0,0 1,-1 0,0 1,0 0,-1 1,0 0,0 1,-1 0,0 1,-1 0,0z" />
<path style="fill:#131516" d="M768,846 l10,-19 -241,-342 -19,14 240,342 10,5 -10,-5 1,0 0,1 1,0 0,1 1,0 0,1 1,0 0,0 1,1 0,0 1,0 0,0 1,1 1,0 0,0 1,0 1,0 1,0 1,0 1,0 1,-1 1,0 1,-1 1,0 1,-1 1,-1 0,-1 1,0 1,-1 0,-1 1,-1 0,-1 0,-2 0,-1 0,-1 0,-1 0,-1 0,0 -1,-1 0,0 0,-1 0,-1 -1,0 0,-1z" />
<path style="fill:#131516" d="M654,841 l10,5 104,0 0,-24 -104,0 -10,19 10,-19 -1,0 0,0 -1,0 -1,0 0,1 -1,0 -1,0 0,0 -1,0 0,1 -1,0 0,0 -1,1 -1,1 -1,1 0,1 -1,1 0,1 0,1 -1,1 0,1 0,1 0,1 0,1 1,1 0,1 0,1 1,1 0,1 1,1 1,1 0,0 0,0 1,1 0,0 1,0 0,1 1,0 0,0 1,0 1,0 0,1 1,0 1,0 0,0 1,0z" />
<path style="fill:#131516" d="M510,596 l-18,14 162,231 20,-14 -163,-230 -1,-1 1,1 0,-1 -1,0 0,-1 -1,0 0,-1 -1,0 0,0 -1,-1 -1,0 -1,-1 -1,0 -1,0 -1,0 -1,0 -1,0 -1,0 -2,0 -1,1 -1,0 0,1 -1,1 -1,0 -1,1 -1,1 0,1 -1,1 0,1 0,1 -1,1 0,1 0,1 0,0 0,1 1,1 0,0 0,1 0,0 0,1 1,1 0,0 0,1 1,0z" />
<path style="fill:#131516" d="M458,558 l2,14 32,39 18,-15 -32,-39 -20,1 20,-1 -1,-1 0,0 -1,-1 0,0 -1,-1 0,0 -1,0 0,-1 -1,0 0,0 -1,0 0,0 -1,-1 -2,0 -1,0 -1,0 -1,1 -1,0 -1,0 -1,1 -1,0 -1,1 -1,1 0,1 -1,0 -1,1 0,1 -1,1 0,1 0,1 0,2 0,1 0,0 0,1 0,0 0,1 0,1 1,0 0,1 0,0 0,1 1,0 0,1 1,1z" />
<path style="fill:#131516" d="M452,617 l1,-1 26,-46 -21,-12 -26,46 20,13 -20,-13 0,1 0,1 0,0 -1,1 0,1 0,0 0,1 0,0 0,1 0,1 0,0 0,1 0,1 0,1 1,1 0,1 1,1 1,1 0,1 1,0 1,1 1,1 1,0 1,0 1,1 1,0 1,0 1,0 1,0 1,0 2,0 1,-1 0,0 1,0 0,-1 1,0 0,0 1,-1 0,0 0,-1 1,0 0,-1 1,0 0,-1z" />
<path style="fill:#131516" d="M280,846 l10,-5 162,-224 -19,-14 -163,224 10,19 -10,-19 0,1 0,0 -1,1 0,0 0,1 0,1 -1,0 0,1 0,0 0,1 0,1 0,0 0,1 0,0 0,1 0,0 0,1 1,1 0,1 1,1 1,1 0,1 1,1 1,1 1,0 1,1 1,0 1,1 1,0 1,0 1,0 1,0 1,0 1,0 0,0 1,-1 0,0 1,0 0,0 1,0 0,-1 1,0 0,-1 1,0 0,0 1,-1 0,0 1,-1z" />
<path style="fill:#131516" d="M166,827 l10,19 104,0 0,-24 -104,0 -10,5 10,-5 -1,0 -1,0 0,0 -1,0 -1,1 0,0 -1,0 0,0 -1,0 0,1 -1,0 0,0 -1,1 -1,1 -1,1 0,1 -1,1 0,1 -1,1 0,1 0,1 0,1 0,1 0,1 0,1 1,1 0,1 1,1 0,1 1,1 0,1 1,0 0,0 1,1 0,0 1,0 0,1 1,0 0,0 1,0 0,0 1,1 1,0 0,0 1,0 1,0z" />
<path style="fill:#131516" d="M11,0 l-11,11 0,988 23,0 0,-988 -12,-11 12,11 0,0 0,-1 0,-1 0,0 0,-1 0,-1 -1,0 0,-1 0,0 0,-1 -1,0 0,-1 -1,-1 -1,-1 0,0 -1,-1 -1,0 -1,-1 -1,0 -1,0 -2,0 -1,0 -1,0 -1,0 -1,0 -1,0 -1,1 -1,0 -1,1 -1,0 -1,1 0,1 -1,1 0,0 0,1 -1,0 0,1 0,0 0,1 0,1 0,0 0,1 0,1 0,0z" />
<path style="fill:#131516" d="M945,11 l-12,-11 -922,0 0,23 922,0 12,-12 -12,12 0,0 1,0 1,0 1,0 0,0 1,0 0,-1 1,0 0,0 1,0 0,-1 1,0 1,-1 1,0 0,-1 1,-1 0,-1 1,-1 0,-1 0,-1 0,-2 1,-1 -1,-1 0,-1 0,-1 0,-1 -1,-1 0,-1 -1,-1 0,-1 -1,-1 -1,0 -1,-1 0,0 -1,0 0,-1 -1,0 0,0 -1,0 0,0 -1,0 -1,0 -1,0 0,0z" />
<path style="fill:#131516" d="M945,999 l0,-988 -24,0 0,988z" />

</svg>
