<?xml version="1.0" encoding="utf-8"?>
<!-- Generator: Adobe Illustrator 19.2.1, SVG Export Plug-In . SVG Version: 6.00 Build 0)  -->
<svg version="1.1" id="svg2" xmlns:svg="http://www.w3.org/2000/svg"
	 xmlns="http://www.w3.org/2000/svg" xmlns:xlink="http://www.w3.org/1999/xlink" x="0px" y="0px" viewBox="0 0 180 25"
	 style="enable-background:new 0 0 180 25;" xml:space="preserve">
<g>
	<path d="M92.1,25l6.6-13L92.9,0h2.7l3.1,6.4c0.6,1.3,1.1,2.4,1.4,3.1c0.4-0.9,0.8-1.9,1.4-2.8l3.5-6.6h2.5l-6,11.8l6.5,13.2h-2.8
		l-4.3-8.9c-0.2-0.5-0.5-1.1-0.8-1.7c-0.4,0.9-0.7,1.5-0.8,1.9L94.9,25H92.1z"/>
	<path d="M72.1,25l6.6-13L72.9,0h2.7l3.1,6.4c0.6,1.3,1.1,2.4,1.4,3.1c0.4-0.9,0.8-1.9,1.4-2.8L84.9,0h2.5l-6,11.8L87.9,25h-2.8
		l-4.3-8.9c-0.2-0.5-0.5-1.1-0.8-1.7c-0.4,0.9-0.7,1.5-0.8,1.9L74.9,25H72.1z"/>
</g>
</svg>
