<?xml version="1.0" encoding="utf-8"?>
<!-- Generator: Adobe Illustrator 19.2.1, SVG Export Plug-In . SVG Version: 6.00 Build 0)  -->
<svg version="1.1" id="svg2" xmlns:svg="http://www.w3.org/2000/svg"
	 xmlns="http://www.w3.org/2000/svg" xmlns:xlink="http://www.w3.org/1999/xlink" x="0px" y="0px" viewBox="0 0 180 25"
	 style="enable-background:new 0 0 180 25;" xml:space="preserve">
<g>
	<path d="M61.8,25l6.6-13L62.5,0h2.7l3.1,6.4c0.6,1.3,1.1,2.4,1.4,3.1c0.4-0.9,0.8-1.9,1.4-2.8L74.6,0H77l-6,11.8L77.5,25h-2.8
		l-4.3-8.9c-0.2-0.5-0.5-1.1-0.8-1.7c-0.4,0.9-0.7,1.5-0.8,1.9L64.5,25H61.8z"/>
	<path d="M102.5,25l6.6-13l-5.9-12h2.7l3.1,6.4c0.6,1.3,1.1,2.4,1.4,3.1c0.4-0.9,0.8-1.9,1.4-2.8l3.5-6.6h2.5l-6,11.8l6.5,13.2h-2.8
		l-4.3-8.9c-0.2-0.5-0.5-1.1-0.8-1.7c-0.4,0.9-0.7,1.5-0.8,1.9l-4.3,8.7H102.5z"/>
	<path d="M82.5,25l6.6-13L83.3,0H86l3.1,6.4c0.6,1.3,1.1,2.4,1.4,3.1c0.4-0.9,0.8-1.9,1.4-2.8L95.3,0h2.5l-6,11.8L98.3,25h-2.8
		l-4.3-8.9c-0.2-0.5-0.5-1.1-0.8-1.7c-0.4,0.9-0.7,1.5-0.8,1.9L85.2,25H82.5z"/>
</g>
</svg>
