<?xml version="1.0" encoding="utf-8"?>
<!-- Generator: Adobe Illustrator 19.2.1, SVG Export Plug-In . SVG Version: 6.00 Build 0)  -->
<svg version="1.1" id="svg2" xmlns:svg="http://www.w3.org/2000/svg"
	 xmlns="http://www.w3.org/2000/svg" xmlns:xlink="http://www.w3.org/1999/xlink" x="0px" y="0px" viewBox="0 0 180 25"
	 style="enable-background:new 0 0 180 25;" xml:space="preserve">
<g>
	<path id="path3210" d="M87.5,12.5c0,4.1-3.4,7.5-7.5,7.5c-4.1,0-7.5-3.4-7.5-7.5S75.9,5,80,5C84.1,5,87.5,8.4,87.5,12.5z"/>
	<path id="path3212" d="M107.5,12.5c0,4.1-3.4,7.5-7.5,7.5s-7.5-3.4-7.5-7.5S95.9,5,100,5S107.5,8.4,107.5,12.5z"/>
	<path id="path3221" d="M67.5,12.5c0,4.1-3.4,7.5-7.5,7.5s-7.5-3.4-7.5-7.5S55.9,5,60,5S67.5,8.4,67.5,12.5z"/>
	<path id="path3223" d="M127.5,12.5c0,4.1-3.4,7.5-7.5,7.5c-4.1,0-7.5-3.4-7.5-7.5S115.9,5,120,5C124.1,5,127.5,8.4,127.5,12.5z"/>
</g>
</svg>
