<?xml version="1.0" encoding="utf-8"?>
<!-- Generator: Adobe Illustrator 19.2.1, SVG Export Plug-In . SVG Version: 6.00 Build 0)  -->
<svg version="1.1" id="svg2" xmlns:svg="http://www.w3.org/2000/svg"
	 xmlns="http://www.w3.org/2000/svg" xmlns:xlink="http://www.w3.org/1999/xlink" x="0px" y="0px" viewBox="0 0 180 25"
	 style="enable-background:new 0 0 180 25;" xml:space="preserve">
<g>
	<path id="path3208" d="M97.5,12.5c0,4.1-3.4,7.5-7.5,7.5s-7.5-3.4-7.5-7.5S85.9,5,90,5S97.5,8.4,97.5,12.5z"/>
	<path id="path3215" d="M77.5,12.5c0,4.1-3.4,7.5-7.5,7.5c-4.1,0-7.5-3.4-7.5-7.5S65.9,5,70,5C74.1,5,77.5,8.4,77.5,12.5z"/>
	<path id="path3217" d="M117.5,12.5c0,4.1-3.4,7.5-7.5,7.5c-4.1,0-7.5-3.4-7.5-7.5S105.9,5,110,5C114.1,5,117.5,8.4,117.5,12.5z"/>
</g>
</svg>
