<?xml version="1.0" encoding="UTF-8" standalone="no"?>
<svg
   xmlns="http://www.w3.org/2000/svg"
   id="NATO Map Symbol"
   height="400"
   width="600">
  <g
     id="Book">
    <path
       id="Page1"
       style="fill:#ffffff;stroke-width:1.70119286"
       d="m 252.96201,232.7252 c -7.80847,-0.25518 -15.63396,0.1361 -23.35737,1.22486 -6.63466,0.93566 -13.18425,2.4157 -19.56372,4.40609 -1.54809,0.47633 -3.28331,0.86761 -4.74633,1.59912 -0.93566,0.47634 -1.70119,1.02072 -2.53478,-0.017 -1.15681,-1.39498 -0.39127,-3.92976 -0.20414,-5.52888 0.37426,-3.21525 0.79956,-6.41349 1.2929,-9.61174 2.14351,-14.23898 5.01852,-28.34187 6.9749,-42.61488 0.85059,-6.31142 1.54808,-12.67389 2.36465,-18.98531 0.40829,-3.24928 0.86761,-6.49856 1.39498,-9.73082 0.64646,-3.96378 0.78255,-6.75374 4.49115,-9.15242 6.31143,-4.08287 13.88174,-5.88613 21.11181,-7.63836 7.79146,-1.88832 15.56591,-3.48744 23.62956,-3.18123 5.64796,0.22116 11.14282,1.71821 16.12731,4.35505 2.4157,1.2759 4.72932,2.77295 6.92386,4.42311 2.17753,1.61613 4.83139,3.35135 6.5666,5.4268 1.54809,1.83729 2.04143,3.50446 2.19454,5.40979 -1.07175,24.3781 -0.90163,84.82148 -0.7145,89.10849 0.017,0.35725 0.051,0.7145 0.068,1.07175 -0.0851,0.45932 -0.34024,0.81657 -1.08876,0.81657 -0.90164,0.017 -1.88833,-0.5784 -2.67088,-0.98669 -1.61613,-0.8506 -3.24928,-1.66717 -4.88242,-2.4327 -10.56441,-4.9845 -21.69021,-7.58733 -33.37741,-7.96159 z" />
    <path
       id="Page2"
       style="fill:#ffffff;stroke-width:1.70119286"
       d="m 397.20616,239.92125 c -0.8506,1.03773 -1.59912,0.49334 -2.53478,0.017 -1.44601,-0.73151 -3.18123,-1.12279 -4.74633,-1.59912 -6.37947,-1.9904 -12.92906,-3.45342 -19.56371,-4.40609 -7.72342,-1.08876 -15.56592,-1.46303 -23.37439,-1.22486 -11.67019,0.37426 -22.79599,2.97709 -33.37741,7.96158 -1.63314,0.78255 -3.26629,1.59912 -4.88242,2.43271 -0.78255,0.40829 -1.76924,0.98669 -2.68789,0.98669 -0.74852,0 -1.0037,-0.35725 -1.08876,-0.81657 0.017,-0.35725 0.0681,-0.7145 0.0681,-1.07175 0.18713,-4.28701 0.37426,-64.73039 -0.7145,-89.10849 0.1531,-1.90533 0.64645,-3.5725 2.17752,-5.40979 1.76924,-2.07546 4.40609,-3.82768 6.58362,-5.42681 2.19454,-1.63314 4.49115,-3.1472 6.92385,-4.4231 5.00151,-2.63685 10.47935,-4.1339 16.12731,-4.35505 8.06366,-0.32323 15.83811,1.29291 23.62957,3.18123 7.23007,1.75223 14.80038,3.53848 21.12882,7.63836 3.7086,2.39868 3.84469,5.18863 4.49115,9.15241 0.52737,3.23227 0.98669,6.48155 1.39498,9.73083 0.79956,6.32843 1.49705,12.67388 2.36465,18.98531 1.95638,14.256 4.8484,28.3759 6.97489,42.61488 0.45933,3.19824 0.91865,6.39649 1.29291,9.61174 0.20414,1.59912 0.96968,4.1339 -0.18713,5.52888 z" />
    <path
       d="m 406.8179,254.95979 c 0.11908,-2.38167 1.20785,-9.03333 1.17382,-10.32624 -0.11908,-16.56962 -10.63245,-71.17791 -12.31663,-84.48124 l -0.10208,-0.81657 c -0.5784,-5.22266 -0.79956,-11.43202 -2.7219,-16.36548 -1.93936,-4.96748 -8.21677,-6.7027 -12.74194,-8.45492 -18.73013,-7.14501 -39.87596,-13.16724 -59.74589,-6.87282 -7.75744,2.44971 -14.74935,6.82178 -20.36328,13.71161 -5.59693,-6.88983 -12.60584,-11.2619 -20.34627,-13.71161 -19.86993,-6.29442 -41.01576,-0.27219 -59.74589,6.87282 -4.52518,1.73521 -10.8366,3.47043 -12.75895,8.45492 -1.92235,4.93346 -2.1435,11.12581 -2.72191,16.36548 l -0.10207,0.81657 c -1.68418,13.30333 -12.18054,67.91162 -12.31664,84.48124 -0.034,1.30992 1.07175,7.94457 1.19084,10.32624 0.17012,3.43641 -0.23817,6.88983 -0.068,10.30923 -0.34024,1.19084 -0.034,2.31362 0.69749,3.19825 0.47633,0.91864 1.20785,1.48003 2.00741,1.76924 1.82027,2.0074 5.12059,0.68047 7.2811,0 19.35958,-6.26039 40.6415,-6.02223 60.6135,-3.36837 3.53849,0.45933 7.05996,1.03773 10.56441,1.71821 3.64056,0.7145 7.09398,2.00741 10.58142,3.24928 2.87502,1.02071 5.88613,1.87131 8.91425,2.44971 2.17753,0.49335 4.30402,0.69749 5.2737,0.71451 0.34024,0 0.64645,-0.034 0.96968,-0.051 0.32323,0 0.64645,0.051 0.96968,0.051 0.96968,0 3.09617,-0.20415 5.2737,-0.71451 3.02812,-0.5784 6.03923,-1.429 8.91425,-2.44971 3.48745,-1.24187 6.95788,-2.53478 10.59843,-3.24928 3.50446,-0.68048 7.02593,-1.25888 10.56441,-1.71821 19.95499,-2.65386 41.25393,-2.89202 60.6135,3.36837 2.14351,0.69748 5.44382,2.0074 7.2641,0 0.81657,-0.28921 1.53107,-0.8506 2.0074,-1.76924 0.73152,-0.88463 1.03773,-2.00741 0.69749,-3.19825 0.11909,-3.43641 -0.2892,-6.87282 -0.11908,-10.30923 z M 252.96201,232.7252 c -7.80847,-0.25518 -15.63396,0.1361 -23.35737,1.22486 -6.63466,0.93566 -13.18425,2.4157 -19.56372,4.40609 -1.54809,0.47633 -3.28331,0.86761 -4.74633,1.59912 -0.93566,0.47634 -1.70119,1.02072 -2.53478,-0.017 -1.15681,-1.39498 -0.39127,-3.92976 -0.20414,-5.52888 0.37426,-3.21525 0.79956,-6.41349 1.2929,-9.61174 2.14351,-14.23898 5.01852,-28.34187 6.9749,-42.61488 0.85059,-6.31142 1.54808,-12.67389 2.36465,-18.98531 0.40829,-3.24928 0.86761,-6.49856 1.39498,-9.73082 0.64646,-3.96378 0.78255,-6.75374 4.49115,-9.15242 6.31143,-4.08287 13.88174,-5.88613 21.11181,-7.63836 7.79146,-1.88832 15.56591,-3.48744 23.62956,-3.18123 5.64796,0.22116 11.14282,1.71821 16.12731,4.35505 2.4157,1.2759 4.72932,2.77295 6.92386,4.42311 2.17753,1.61613 4.83139,3.35135 6.5666,5.4268 1.54809,1.83729 2.04143,3.50446 2.19454,5.40979 -1.07175,24.3781 -0.90163,84.82148 -0.7145,89.10849 0.017,0.35725 0.051,0.7145 0.068,1.07175 -0.0851,0.45932 -0.34024,0.81657 -1.08876,0.81657 -0.90164,0.017 -1.88833,-0.5784 -2.67088,-0.98669 -1.61613,-0.8506 -3.24928,-1.66717 -4.88242,-2.4327 -10.56441,-4.9845 -21.69021,-7.58733 -33.37741,-7.96159 z m 144.24415,7.19605 c -0.8506,1.03773 -1.59912,0.49334 -2.53478,0.017 -1.44601,-0.73151 -3.18123,-1.12279 -4.74633,-1.59912 -6.37947,-1.9904 -12.92906,-3.45342 -19.56371,-4.40609 -7.72342,-1.08876 -15.56592,-1.46303 -23.37439,-1.22486 -11.67019,0.37426 -22.79599,2.97709 -33.37741,7.96158 -1.63314,0.78255 -3.26629,1.59912 -4.88242,2.43271 -0.78255,0.40829 -1.76924,0.98669 -2.68789,0.98669 -0.74852,0 -1.0037,-0.35725 -1.08876,-0.81657 0.017,-0.35725 0.0681,-0.7145 0.0681,-1.07175 0.18713,-4.28701 0.37426,-64.73039 -0.7145,-89.10849 0.1531,-1.90533 0.64645,-3.5725 2.17752,-5.40979 1.76924,-2.07546 4.40609,-3.82768 6.58362,-5.42681 2.19454,-1.63314 4.49115,-3.1472 6.92385,-4.4231 5.00151,-2.63685 10.47935,-4.1339 16.12731,-4.35505 8.06366,-0.32323 15.83811,1.29291 23.62957,3.18123 7.23007,1.75223 14.80038,3.53848 21.12882,7.63836 3.7086,2.39868 3.84469,5.18863 4.49115,9.15241 0.52737,3.23227 0.98669,6.48155 1.39498,9.73083 0.79956,6.32843 1.49705,12.67388 2.36465,18.98531 1.95638,14.256 4.8484,28.3759 6.97489,42.61488 0.45933,3.19824 0.91865,6.39649 1.29291,9.61174 0.20414,1.59912 0.96968,4.1339 -0.18713,5.52888 z"
       style="fill:#000000;stroke-width:1.70119286"/>
    <path
       d="m 281.38895,152.53097 c -16.1103,-7.5533 -37.81752,-7.96158 -54.02989,-0.20414 -4.28701,2.05844 -0.54438,8.26779 3.7086,6.34545 13.79668,-6.29442 32.71394,-5.34175 46.10233,1.07175 4.83139,2.29661 9.06736,-4.93346 4.21896,-7.21306 z"
       style="fill:#000000;stroke-width:1.70119286" />
    <path
       d="m 280.87859,172.43493 c -17.14803,-7.51928 -39.19549,-10.36027 -56.49662,-1.44602 -3.75963,1.93936 -0.45932,7.24708 3.26629,5.57991 15.87213,-7.09397 34.89147,-2.92605 50.32129,2.78996 3.9978,1.49705 6.83879,-5.20565 2.90904,-6.92385 z"
       style="fill:#000000;stroke-width:1.70119286" />
    <path
       d="m 279.97696,192.28785 c -1.82028,-1.53108 -4.35506,-2.24558 -6.5496,-3.04514 -15.92316,-5.81808 -37.06899,-6.05624 -52.36271,1.76924 -3.36836,1.71821 -0.52737,6.61764 2.78995,5.66497 8.33585,-2.36465 16.17835,-3.67457 24.83742,-3.75963 6.78776,-0.068 12.94608,0.64645 19.42762,2.58581 1.95637,0.57841 3.82769,0.79956 5.699,1.68418 1.34394,0.62944 3.01111,1.429 4.49115,1.61614 3.23226,0.39127 3.89573,-4.35506 2.07545,-6.15832 z"
       style="fill:#000000;stroke-width:1.70119286"
       id="path26" />
    <path
       d="m 278.29278,211.46029 c -18.40691,-8.67608 -39.05939,-7.07696 -57.68746,-0.51036 -3.84469,1.36096 -2.0074,7.28111 1.90534,6.05625 8.76114,-2.75593 16.05926,-4.81438 25.36479,-4.93346 8.94827,-0.10207 18.66208,2.82398 26.86183,6.03924 4.40609,1.75222 8.02963,-4.54219 3.5555,-6.65167 z"
       style="fill:#000000;stroke-width:1.70119286" />
    <path
       d="m 322.79598,159.72702 c 13.38839,-6.4135 32.30566,-7.34916 46.10233,-1.07176 4.23597,1.93936 7.99561,-4.287 3.7086,-6.34545 -16.19536,-7.75744 -37.90258,-7.34915 -54.01287,0.20415 -4.86542,2.29661 -0.64646,9.52668 4.20194,7.21306 z"
       style="fill:#000000;stroke-width:1.70119286" />
    <path
       d="m 322.01343,179.35878 c 15.42982,-5.71601 34.44916,-9.88393 50.32129,-2.78996 3.72561,1.66717 7.02593,-3.64055 3.26629,-5.57991 -17.31814,-8.91425 -39.3656,-6.07326 -56.49662,1.44602 -3.92975,1.7182 -1.10577,8.4209 2.90904,6.92385 z"
       style="fill:#000000;stroke-width:1.70119286" />
    <path
       d="m 321.65618,198.82043 c 1.49705,-0.18713 3.1302,-0.98669 4.47414,-1.61614 1.88832,-0.88462 3.75964,-1.10577 5.71601,-1.68418 6.48154,-1.92234 12.63986,-2.63685 19.42762,-2.58581 8.65907,0.068 16.51858,1.37797 24.85443,3.75964 3.30031,0.95266 6.14131,-3.96378 2.78996,-5.66498 -15.29373,-7.82548 -36.45657,-7.58732 -52.36272,-1.76924 -2.19454,0.79956 -4.72932,1.49705 -6.56661,3.04514 l -0.40828,0.37426 c -1.83729,1.76924 -1.1398,6.53258 2.07545,6.14131 z"
       style="fill:#000000;stroke-width:1.70119286" />
    <path
       d="m 379.37766,210.94993 c -18.62806,-6.5666 -39.28055,-8.16572 -57.68745,0.51036 -4.47414,2.10948 -0.8506,8.40389 3.5725,6.65167 8.18274,-3.21526 17.87954,-6.14131 26.84483,-6.03924 9.28851,0.11908 16.60364,2.17753 25.34777,4.93346 3.92976,1.24187 5.76704,-4.69529 1.92235,-6.05625 z"
       style="fill:#000000;stroke-width:1.70119286" />
  </g>
  <path
     id="Neutral Frame"
     style="fill:none;stroke:#000000;stroke-width:10;stroke-linejoin:miter;stroke-miterlimit:4"
     d="M 105,5 H 495 V 395 H 105 Z" />
</svg>
