<?xml version="1.0" encoding="UTF-8" standalone="no"?>
<svg
   xmlns="http://www.w3.org/2000/svg"
   id="NATO Map Symbol"
   height="400"
   width="600">
  <path
     id="Sigs"
     style="fill:none;stroke:#000000;stroke-width:10;stroke-linecap:butt;stroke-linejoin:miter;stroke-miterlimit:4;"
     d="M 495,395 300,160 v 80 L 105,5" />
    <g
       id="AFV Wheeled"
	   style="fill:none;stroke:#000000;stroke-width:10">
      <path
         id="Wheel-L"
         d="m 250.28578,338.88127 a 31.357262,31.357262 0 1 1 -62.71451,0 31.357262,31.357262 0 1 1 62.71451,0 z" />
      <path
         id="Wheel-C"
         d="m 331.35727,338.88127 a 31.357262,31.357262 0 1 1 -62.71452,0 31.357262,31.357262 0 1 1 62.71452,0 z" />
      <path
         id="Wheel-R"
         d="m 412.42874,338.88127 a 31.357262,31.357262 0 1 1 -62.71452,0 31.357262,31.357262 0 1 1 62.71452,0 z" />
      <path
         id="ARMOUR"
         d="m 215.40054,292.5 c -51.4861,0 -93.22383,-41.01389 -93.22383,-92.5 0,-51.4861 41.73773,-92.5 93.22383,-92.5 h 169.19892 c 51.4861,0 93.22383,41.0139 93.22383,92.5 0,51.48611 -41.73773,92.5 -93.22383,92.5 z" />
    </g>
  <g
     id="Repair"
     style="fill:none;stroke:#000000;stroke-width:10;stroke-linecap:round;stroke-linejoin:miter;stroke-miterlimit:4">
  <path
     id="Maint-0"
     d="M 239.57574,55.11873 H 361.43195"/>
  <path
     id="Maint-1"
     d="m 206.89204,86.79476 c 17.49418,0 31.67602,-14.18184 31.67602,-31.67603 0,-17.49418 -14.18184,-31.67602 -31.67602,-31.67602"/>
  <path
     id="Maint-2"
     d="m 393.10797,86.79476 c -17.49419,0 -31.67602,-14.18184 -31.67602,-31.67603 0,-17.49418 14.18183,-31.67602 31.67602,-31.67602"/>
  </g>
  <path
     id="Neutral Frame"
     style="fill:none;stroke:#000000;stroke-width:10;stroke-linejoin:miter;stroke-miterlimit:4"
     d="M 105,5 H 495 V 395 H 105 Z" />
</svg>
