<?xml version="1.0" encoding="UTF-8" standalone="no"?>
<svg
   xmlns:dc="http://purl.org/dc/elements/1.1/"
   xmlns:cc="http://creativecommons.org/ns#"
   xmlns:rdf="http://www.w3.org/1999/02/22-rdf-syntax-ns#"
   xmlns:svg="http://www.w3.org/2000/svg"
   xmlns="http://www.w3.org/2000/svg"
   version="1.1"
   width="600"
   height="400"
   id="NATO Map Symbol">
  <path
     style="fill:#000000;fill-opacity:1;stroke:none;stroke-width:10;stroke-linecap:round;stroke-linejoin:miter;stroke-miterlimit:4;stroke-dasharray:none;stroke-opacity:1"
     id="path2987"
     d="m 384.58379,200 a 84.583791,84.583791 0 1 1 -169.16757,0 84.583791,84.583791 0 1 1 169.16757,0 z" />
  <path
     id="HORSE"
     d="m 347.13683,361.66548 c -0.38815,1.05945 -0.75206,2.09241 -1.18873,3.04592 -2.03783,4.15834 -6.06496,6.09182 -10.09209,6.9129 v -7.54857 h 2.93544 c 0.55797,-1.56269 1.69818,-2.72808 3.17804,-3.23133 0.46093,-0.26486 0.75205,-0.68863 0.84909,-1.24485 0.0485,0 0.0485,0 0.0485,0 0.38816,-3.46969 0.92187,-7.12479 1.57689,-10.83286 0.31537,-0.92701 0.0243,-1.77458 -0.89762,-2.09241 -1.98931,-0.26486 -3.90583,-0.68864 -5.82236,-1.24486 -4.12419,-0.21189 -8.27261,-1.21836 -11.8388,-3.57563 -3.17805,1.88052 -4.34252,5.53561 -6.06496,8.74045 v -0.053 c -4.07566,6.93939 -7.375,14.35553 -9.92229,22.03654 -0.16981,0.47675 -0.24259,0.97998 -0.24259,1.48322 0,0.79459 0.21834,1.5362 0.55798,2.17187 1.94079,2.17187 3.20229,4.84698 4.19695,7.62804 l -7.66612,0.0795 c -0.0485,-2.01296 -0.21833,-3.94645 -1.31003,-5.64157 -0.97039,-0.92702 -1.72244,-1.72161 -1.868,-3.20483 0.21833,-1.88053 1.31003,-3.54915 2.03783,-5.24427 v 0 c 0.89761,-2.09242 1.43133,-4.31726 1.69818,-6.56859 0.29112,-1.93349 0.77632,-3.8405 1.26152,-5.74752 1.43133,-5.21778 2.13486,-10.62097 3.10525,-15.97119 -8.6365,1.50972 -17.3943,0.79459 -25.90951,-1.11241 -0.94614,5.48264 -2.37747,10.77989 -4.19695,15.97119 -0.67928,2.70159 1.23725,5.45616 2.45024,7.62803 2.69285,4.34374 5.72533,8.36965 8.32113,12.79284 1.57689,2.11891 2.88692,4.50266 3.90583,7.04534 l -8.10278,0.13243 -0.2426,-3.23132 c -0.0243,-0.47675 -0.0243,-0.9535 -0.41242,-1.19187 -1.16448,-0.3973 -1.74671,-1.50973 -2.15913,-2.67511 -0.89761,-2.35728 -2.03782,-4.6351 -3.39637,-6.80696 -2.49877,-3.76105 -5.50699,-7.04534 -8.95188,-9.77342 0,0 0,0 -0.0485,-0.053 -0.89761,-0.63568 -1.06743,-1.66864 -1.06743,-2.72809 0.33964,-1.98646 0.70353,-3.97293 1.01892,-5.98588 0.29111,-3.89347 -1.31003,-7.62804 -4.24548,-9.90585 -1.57689,2.62213 -3.59046,4.82049 -5.82236,6.80696 -2.69285,2.06593 -5.24013,4.37023 -7.59334,6.88642 v 0 c -0.58223,0.63567 -1.1402,1.24485 -1.64967,1.85403 -1.23724,1.74809 -2.08633,3.78753 -2.78987,5.82698 -1.40708,3.91996 -2.42599,7.70748 -3.12952,11.33609 -0.2426,1.19188 0.0243,2.38377 0.55798,3.41673 v 0 c 1.2615,1.80107 2.28042,3.78753 3.00821,5.98589 l -7.54482,0.0794 -0.0485,-3.70808 c 0.0485,-0.34431 -0.0728,-0.52972 -0.24261,-0.79458 h -0.0485 c -1.31004,-0.71513 -1.79522,-1.98647 -1.60115,-3.52267 2.32895,-6.1448 3.2023,-11.3361 4.58512,-16.84524 v 0 c 0.55797,-1.93349 0.67927,-4.0259 0.46092,-6.06535 -0.14555,-0.97999 0.14557,-1.88052 0.67929,-2.67511 0.8976,-1.19187 1.81949,-2.4897 2.76562,-3.78752 1.96505,-2.67511 2.86266,-6.01238 3.4449,-9.29667 0.97039,-5.05887 0.097,-10.3826 0.58223,-15.65336 0.70354,-4.2113 2.88692,-7.91937 5.33717,-11.1507 -11.08675,1.5362 -9.94653,20.15602 -10.04357,29.63809 0,0.60918 0,1.19188 0,1.85403 l -10.0921,-0.13243 c 0.43668,-16.81875 2.45025,-36.47153 22.10072,-33.95533 4.70641,-1.69513 9.38856,-3.4697 14.38609,-3.60214 11.64472,0.10595 20.62087,3.70808 32.19281,2.41025 16.18132,-2.27781 18.00081,-23.57274 35.63771,-23.94355 2.20765,0 4.46382,0.37081 6.57441,1.05946 3.34787,-0.82108 6.79276,-1.03297 10.2134,-0.74162 -1.81948,1.56269 -3.51768,3.09889 -5.21587,4.68806 -0.70353,4.89995 -0.16982,9.85288 -0.33963,14.77932 0.0485,1.58916 -0.33963,8.95234 -0.67928,12.23663 0.19408,2.86052 -2.64433,4.31726 -5.33717,4.02591 -1.35855,-0.15892 -1.45559,-1.21837 -3.37211,-1.48323 -1.23726,-0.84756 -0.77632,-2.48971 -0.89762,-3.8405 -0.21834,-3.28429 -1.67393,-6.25076 -2.32895,-9.45558 -1.06743,-0.45027 -2.03782,-0.98 -2.9597,-1.5362 -2.08635,3.57563 -3.17804,7.681 -3.22656,11.86583 -0.0728,3.70807 -0.1213,7.41613 -0.1213,11.1242 0,-0.26486 0,-0.0794 -0.0485,0.053 -0.16982,2.83402 -0.89761,5.5621 -2.11061,7.99884 4.46381,0.82107 8.73354,2.30429 12.8092,4.44968 1.64966,1.00648 3.71176,1.90701 4.80345,3.70808 0.0485,0 0.0485,0 0.0485,0.053 0.58224,1.00648 0.63075,2.17186 0.41241,3.28429 -1.23724,6.22426 -2.76562,11.9188 -4.85196,16.76578 z"
     style="fill:#000000;fill-opacity:1;stroke-width:0.92270589" />
  <path
     id="Neutral Frame"
     style="opacity:1;fill:none;fill-opacity:1;stroke:#000000;stroke-width:10;stroke-linecap:butt;stroke-linejoin:miter;stroke-miterlimit:4;stroke-dasharray:none;stroke-dashoffset:0;stroke-opacity:1"
     d="M 105,5 H 495 V 395 H 105 Z" />
</svg>
