<?xml version="1.0" encoding="UTF-8" standalone="no"?>
<svg
   xmlns="http://www.w3.org/2000/svg"
   id="NATO Map Symbol"
   height="400"
   width="600">
  <path
     style="fill:#000000;fill-opacity:1;stroke:none;stroke-width:10;stroke-linecap:round;stroke-linejoin:miter;stroke-miterlimit:4;stroke-dasharray:none;stroke-opacity:1"
     id="Arty"
     d="m 384.58379,200 a 84.583791,84.583791 0 1 1 -169.16757,0 84.583791,84.583791 0 1 1 169.16757,0 z" />
    <g
       id="CBRN">
      <path
         d="m 277.7596,49.066074 c 3.60279,-4.39791 0.0654,-12.390209 -7.89184,-17.83872 -7.95923,-5.450663 -17.34406,-6.305752 -20.94686,-1.90569 -3.60075,4.39791 -0.0654,12.390209 7.89388,17.83872 7.95719,5.448515 17.34202,6.303604 20.94482,1.90569 z M 263.34025,27.925159 c 30.27859,12.817756 61.29653,66.03099 61.29653,66.03099"
         id="CBRN1"
         style="fill:none;stroke:#000000;stroke-width:6.28;stroke-linecap:round;stroke-linejoin:round" />
      <path
         d="m 322.239,48.610602 c -3.60279,-4.397914 -0.0654,-12.39021 7.89183,-17.840874 7.95924,-5.448512 17.34407,-6.301453 20.94687,-1.90569 3.60279,4.397914 0.0694,12.390209 -7.89388,17.840874 -7.95924,5.45066 -17.34203,6.305749 -20.94482,1.90569 z m 14.41731,-21.140918 c -30.27859,12.819904 -61.29245,66.028839 -61.29245,66.028839"
         id="CBRN2"
         style="fill:none;stroke:#000000;stroke-width:6.28;stroke-linecap:round;stroke-linejoin:round" />
      <path
         d="M 276.3261,46.355276 A 14.787145,10.256101 31.157697 1 1 250.40156,32.186034 14.787145,10.256101 31.157697 1 1 276.3261,46.355276 Z"
         id="CBRN3"
         style="fill:#000000;stroke:none" />
      <path
         d="M 323.88606,46.64816 A 10.256101,14.787145 58.8423 1 0 349.8106,32.478918 10.256101,14.787145 58.8423 1 0 323.88606,46.64816 Z"
         id="CBRN4"
         style="fill:#000000;stroke:none" />
    </g>
  <path
     id="Neutral Frame"
     style="fill:none;stroke:#000000;stroke-width:10;stroke-linejoin:miter;stroke-miterlimit:4"
     d="M 105,5 H 495 V 395 H 105 Z" />
</svg>
