<?xml version="1.0" encoding="UTF-8" standalone="no"?>
<svg
   xmlns="http://www.w3.org/2000/svg"
   id="NATO Map Symbol"
   height="400"
   width="600">
  <path
     id="Sigs"
     style="fill:none;stroke:#000000;stroke-width:10;stroke-linecap:butt;stroke-linejoin:miter;stroke-miterlimit:4;"
     d="M 495,395 300,160 v 80 L 105,5" />
  <g
     id="TacSat"
	 style="fill:#000000;stroke:#000000;stroke-width:10;stroke-linecap:square;stroke-linejoin:miter;stroke-miterlimit:4">
    <path
       d="m 261.59925,105.45917 h 76.80151 v 139.28489 h -76.80151 z"
       id="Pnl-1" />
    <path
       d="m 160.44604,105.45917 h 76.8015 v 139.28489 h -76.8015 z"
       id="Pnl-2" />
    <path
       d="m 362.75245,105.45917 h 76.80151 v 139.28489 h -76.80151 z"
       id="Pnl-3" />
    <path
       style="fill:none"
       d="m 207.07965,292.61264 c 23.7804,-15.71758 56.6327,-25.4391 92.92036,-25.4391 36.28765,0 69.13996,9.72153 92.92035,25.4391"
       id="dish" />
    <path
       d="m 237.24754,175.10161 c 8.11824,0 16.23547,0 24.35171,0"
       id="Arm-1" />
    <path
       d="m 338.40076,175.10161 c 8.11823,0 16.23546,0 24.35169,0"
       id="Arm-2" />
    <path
       d="m 300,244.74406 c 0,7.47549 10e-6,14.95199 10e-6,22.42948"
       id="Neck" />
  </g>
    <text
     style="font-size:100px;font-family:sans-serif;text-align:center;text-anchor:middle;fill:#000000;stroke:none"
     id="S2"
     y="380"
     x="300">TAC</text>
  <path
     id="Neutral Frame"
     style="fill:none;stroke:#000000;stroke-width:10;stroke-linejoin:miter;stroke-miterlimit:4"
     d="M 105,5 H 495 V 395 H 105 Z" />
</svg>
