<?xml version="1.0" encoding="UTF-8" standalone="no"?>
<svg
   xmlns="http://www.w3.org/2000/svg"
   id="NATO Map Symbol"
   height="400"
   width="600">
  <g
     id="Tpt"
	 style="fill:none;stroke:#000000;stroke-width:10;stroke-linecap:butt">
    <path
       id="Wheel"
       d="m 383.1667,200 a 83.166707,83.143921 0 1 1 -166.3334,0 83.166707,83.143921 0 1 1 166.3334,0 z" />
    <path
       id="Wheel-H"
       d="M 216.8333,200 H 383.16669" />
    <path
       id="Wheel-D1"
       d="M 241.19226,258.79162 358.80773,141.20838" />
    <path
       id="Wheel-V"
       d="M 300,116.85609 V 283.14391" />
    <path
       id="path3787-1-8"
       d="M 241.19226,141.20838 358.80773,258.79162" />
  </g>
  <g
     id="Control">
    <path
       id="vert"
       style="fill:#000000;fill-opacity:1;fill-rule:evenodd;stroke:#000000;stroke-width:0;stroke-linejoin:round;stroke-miterlimit:4;stroke-dasharray:none;stroke-opacity:1"
       d="m 290.64594,362.64886 9.71406,20.97775 9.71404,-20.97775 z m 0,-44.03019 9.71406,-20.97775 9.71404,20.97775 z m 12.91406,0 h -6.40002 v 44.03019 H 303.56 Z" />
    <path
       id="horiz"
       style="fill:#000000;fill-opacity:1;fill-rule:evenodd;stroke:#000000;stroke-width:0;stroke-linejoin:round;stroke-miterlimit:4;stroke-dasharray:none;stroke-opacity:1"
       d="m 278.3449,330.91971 -20.97775,9.71406 20.97775,9.71404 z m 44.03019,0 20.97775,9.71406 -20.97775,9.71404 z m 0,12.91406 v -6.40002 H 278.3449 v 6.40002 z" />
  </g>
  <path
     id="Neutral Frame"
     style="fill:none;stroke:#000000;stroke-width:10;stroke-linejoin:miter;stroke-miterlimit:4"
     d="M 105,5 H 495 V 395 H 105 Z" />
</svg>
