<?xml version="1.0" encoding="UTF-8" standalone="no"?>
<svg
   xmlns="http://www.w3.org/2000/svg"
   id="NATO Map Symbol"
   height="400"
   width="600">
  <g
     id="Ordnance"
	 style="fill:none;stroke:#000000;stroke-width:10;stroke-linecap:butt">
    <path
       d="m 342.30247,235.80494 a 43.35,43.35 0 0 1 -43.35,43.35 43.35,43.35 0 0 1 -43.35,-43.35 43.35,43.35 0 0 1 43.35,-43.35 43.35,43.35 0 0 1 43.35,43.35 z" />
    <path
       d="m 314.22583,120.49095 c 18.33412,10.08475 30.58826,22.99893 30.58826,51.36955 0,14.18531 -3.42371,27.0277 -8.95909,36.32376" />
    <path
       d="m 263.86802,144.82834 c -5.36425,8.10928 -8.68211,19.31212 -8.68211,31.68646 0,12.37433 3.31785,23.57719 8.68211,31.68645" />
    <path
       d="m 293.28705,155.37735 c 5.00071,10.32519 8.09372,24.58928 8.09372,40.34498" />
    <path
       d="m 307.0722,128.5948 c 16.27328,8.20042 27.15001,18.70161 27.15001,41.77123 0,11.5348 -3.03887,21.97761 -7.95206,29.53671" />
  </g>
   <path
      id="ARMOUR"
      d="m 215.40054,292.5 c -51.4861,0 -93.22383,-41.01389 -93.22383,-92.5 0,-51.4861 41.73773,-92.5 93.22383,-92.5 h 169.19892 c 51.4861,0 93.22383,41.0139 93.22383,92.5 0,51.48611 -41.73773,92.5 -93.22383,92.5 z"
      style="fill:none;stroke:#000000;stroke-width:10" />
  <path
     id="Neutral Frame"
     style="fill:none;stroke:#000000;stroke-width:10;stroke-linejoin:miter;stroke-miterlimit:4"
     d="M 105,5 H 495 V 395 H 105 Z" />
</svg>
