<?xml version="1.0" encoding="UTF-8" standalone="no"?>
<svg
   xmlns="http://www.w3.org/2000/svg"
   id="NATO Map Symbol"
   height="400"
   width="600">
  <g
     id="MOR"
	 style="fill:none;stroke:#000000;stroke-width:10;stroke-linecap:round;stroke-linejoin:miter;stroke-miterlimit:4">
    <path
       d="m 334,227 c 0,18.77768 -15.22232,34 -34,34 -18.77768,0 -34,-15.22232 -34,-34 0,-18.77768 15.22232,-34 34,-34 18.77768,0 34,15.22232 34,34 z" />
    <path
       d="M 300,192 V 68" />
    <path
       d="M 336,102 300,68 264,102" />
  </g>
  <g
     id="Truck"
	 style="fill:none;stroke:#000000;stroke-width:10;stroke-linecap:butt;stroke-linejoin:miter;stroke-miterlimit:4">
    <path
       d="m 441,301 a 34,34 0 0 1 -34,34 34,34 0 0 1 -34,-34 34,34 0 0 1 34,-34 34,34 0 0 1 34,34 z" />
    <path
       d="m 227,301 a 34,34 0 0 1 -34,34 34,34 0 0 1 -34,-34 34,34 0 0 1 34,-34 34,34 0 0 1 34,34 z" />
    <path
       d="M 441,267 H 159" />
  </g>
  <path
     id="Neutral Frame"
     style="fill:none;stroke:#000000;stroke-width:10;stroke-linejoin:miter;stroke-miterlimit:4"
     d="M 105,5 H 495 V 395 H 105 Z" />
</svg>
