<?xml version="1.0" encoding="UTF-8" standalone="no"?>
<svg
   xmlns="http://www.w3.org/2000/svg"
   id="NATO Map Symbol"
   height="400"
   width="600">
  <g
     id="NAVY"
	 style="fill:#000000;fill-rule:nonzero;stroke:none">
  <path
       id="N1"
       d="m 300.88484,124.71349 c -7.77769,1e-5 -14.08155,6.06975 -14.07921,13.54829 -0.003,7.47854 6.30152,13.54829 14.07921,13.54829 7.77768,0 14.08155,-6.06975 14.07921,-13.54829 0.003,-7.47854 -6.30153,-13.54829 -14.07921,-13.54829 z m -0.31462,6.58734 c 3.77558,0 6.84411,2.93732 6.84297,6.56768 0.001,3.63036 -3.06739,6.56767 -6.84297,6.56767 -3.77557,0 -6.8441,-2.93731 -6.84297,-6.56767 -0.001,-3.63036 3.0674,-6.56768 6.84297,-6.56768 z" />
  <path
       id="N2"
       d="m 295.61863,149.13058 c -0.6627,-0.0117 0,1.30559 0,5.71614 v 5.71615 l -13.76822,-0.19232 c -10.82458,-0.15119 -13.98605,-0.0115 -14.7871,0.65329 -1.28096,1.0631 -1.4824,8.22915 -0.23233,8.26479 l 28.15841,-0.0657 c 0.0316,6.72615 0.11905,13.45284 0.0332,20.17891 -0.31742,13.89361 -0.56108,27.78837 -0.69027,41.68504 -0.0571,7.52616 -0.34336,14.74667 -0.63616,16.04558 -1.1036,4.89567 -4.19129,5.56065 -13.70772,2.95216 -9.89681,-2.71275 -22.18933,-8.74349 -24.25834,-11.90119 -1.64483,-2.51033 -1.90155,-4.66274 -0.71279,-5.97631 0.59265,-0.65487 1.47386,-1.03861 1.95824,-0.85273 0.53557,0.20551 1.09875,-0.24263 1.43717,-1.1436 1.19125,-3.17152 -2.78482,-7.85899 -10.6162,-12.51565 -1.90344,-1.13182 -5.01817,-3.56247 -6.92162,-5.40145 -1.99718,-1.92952 -3.75855,-3.15285 -4.16483,-2.89259 -1.26419,0.80982 -3.8508,6.65952 -4.64556,10.50608 -1.5977,7.7327 0.42926,19.14255 4.19592,23.61897 1.98834,2.36301 3.09754,2.38362 3.56103,0.0662 0.81668,-4.08339 5.89917,-2.90553 11.43587,2.65025 4.38196,4.39705 12.72609,10.77119 16.3602,12.49767 1.38432,0.65766 3.36642,1.72693 4.40467,2.37614 1.03824,0.64921 4.15297,1.95517 6.92162,2.90211 5.80027,1.98385 12.59261,5.49625 15.28213,7.90258 1.02173,0.91415 2.56483,2.12543 3.4291,2.69172 1.51185,0.9906 1.61187,0.96786 2.6394,-0.60036 2.13913,-3.26472 5.8288,-6.12145 11.4181,-8.84047 3.14133,-1.52816 6.18348,-2.77847 6.76037,-2.77847 1.2262,0 11.57415,-4.57802 17.80787,-7.87835 4.8849,-2.58623 7.0854,-4.14512 12.5427,-8.88558 6.1611,-5.35183 9.27839,-5.95632 12.51182,-2.42625 l 2.01871,2.20392 1.29604,-1.41737 c 2.34495,-2.56446 3.20797,-5.1428 3.66137,-10.93854 0.3467,-4.43186 0.19969,-6.83796 -0.65278,-10.68419 -1.34702,-6.07764 -3.60561,-11.27179 -5.29433,-12.17557 -1.06625,-0.57064 -1.42918,-0.40538 -2.34039,1.06568 -1.58435,2.55779 -3.79822,4.56933 -8.06181,7.32502 -5.10515,3.29962 -8.18585,6.70121 -9.13309,10.08438 -0.91498,3.268 -0.49844,4.45431 1.23777,3.52511 1.89401,-1.01363 3.12795,-0.73718 3.85763,0.8643 1.02732,2.25473 -0.51597,4.06846 -6.481,7.61672 -10.1879,6.0602 -23.84818,11.02367 -30.33893,11.02367 -3.06285,0 -5.9391,-1.18477 -6.39975,-2.63616 -0.22213,-0.69987 -0.23353,-8.95855 -0.0254,-18.35263 0.20819,-9.39407 0.54499,-26.84583 0.74846,-38.78171 0.20347,-11.93587 0.4653,-21.85588 0.58185,-22.04447 0.11656,-0.18859 6.60526,-0.28333 14.41934,-0.21054 16.2121,0.15103 15.35927,0.45568 15.22504,-5.43861 l -0.0788,-3.46081 c -9.68188,-0.67883 -19.59315,0.59264 -29.23435,-0.70888 -0.18198,-0.18197 -0.37228,-2.42459 -0.4229,-4.98358 l -0.092,-5.76802 -10.20735,-0.18043 z"/>
  </g>
  <g
   id="Dive"
   style="fill:none;stroke:#000000;stroke-width:8.5;stroke-linecap:butt;stroke-linejoin:miter;stroke-miterlimit:4">
   <path
      id="Face"
      d="m 323.7096,60.414332 a 23.709604,23.709604 0 1 1 -47.4192,0 23.709604,23.709604 0 1 1 47.4192,0 z" />
   <path
      id="Right"
      d="M 335.21393,75.290207 H 348.2669 V 45.538459 h -13.05297" />
   <path
      id="Left"
      d="M 264.78606,75.290207 H 251.73309 V 45.53846 h 13.05297" />
   <path
      id="Neck"
      d="m 285.12412,95.62826 -8.41322,15.45675 h 46.57818 l -8.41322,-15.45675" />
   <path
      d="m 336.62051,60.427977 a 36.754102,36.939029 0 1 1 -73.5082,0 36.754102,36.939029 0 1 1 73.5082,0 z"
      id="Helmet" />
  </g>
  <text
     style="font-size:100px;font-family:sans-serif;text-align:center;text-anchor:middle;fill:#000000;stroke:none"
     id="S2"
     y="380"
     x="300">DML</text>
  <path
     id="Neutral Frame"
     style="fill:none;stroke:#000000;stroke-width:10;stroke-linejoin:miter;stroke-miterlimit:4"
     d="M 105,5 H 495 V 395 H 105 Z" />
</svg>
