<?xml version="1.0" encoding="UTF-8" standalone="no"?>
<svg
   xmlns="http://www.w3.org/2000/svg"
   id="NATO Map Symbol"
   height="400"
   width="600">
  <g
     id="Navy"
	 style="fill:none;stroke:#000000;stroke-width:10;stroke-miterlimit:4">
    <path
       d="m 300.50537,18.460153 c -4.44226,0 -8.04274,3.466765 -8.0414,7.738171 -0.002,4.271406 3.59914,7.738172 8.0414,7.738172 4.44227,0 8.04275,-3.466766 8.04141,-7.738172 0,-0.0012 0,-0.0024 0,-0.0036 0,-4.269773 -3.60037,-7.734614 -8.04141,-7.734614 z" />
    <path
       d="M 328.92701,85.238782 C 313.04271,101.12308 287.1406,100.9745 271.07303,84.906917" />
    <path
       d="M 300,35 V 95" />
    <path
       d="m 280,48 h 40" />
    <path
       d="m 267.2756,83.776292 3.43264,-3.697195 -4.53193,-1.506913 z" />
    <path
       d="m 332.7244,83.776292 -3.43265,-3.697195 4.53193,-1.506913 z" />
  </g>
   <path
      id="ARMOUR"
      d="m 215,292 c -51,0 -92,-41 -92,-92 0,-51 41,-92 92,-92 h 170 c 51,0 92,41 92,92 0,51 -42,92 -92,92 z"
      style="fill:none;stroke:#000000;stroke-width:10" />
  <path
     id="GunSys"
     d="M 165,5 V 395"
     style="fill:none;stroke:#000000;stroke-width:10;stroke-linecap:butt" />
  <path
     id="Wave" 
     d="m 105,231.32886 c 31.6471,0 33.35292,-62.65772 65.00001,-62.65772 31.64711,0 33.36084,62.01615 65,62.65772 v 0 c 31.64711,0 33.35289,-62.65772 65.00001,-62.65772 31.64709,0 33.35289,62.65772 64.99999,62.65772 31.6471,0 33.35291,-62.65772 65,-62.65772 31.64711,0 33.3529,62.65772 64.99999,62.65772"
     style="fill:none;stroke:#000000;stroke-width:10;stroke-linecap:butt;"/>
  <g
     style="fill:none;stroke:#000000;stroke-width:10;stroke-linecap:butt"
     id="Infantry">
  <path
     d="M 495,395 105,5" />
  <path
     d="M 495,5 105,395" />
  </g>
  <path
     id="Neutral Frame"
     style="fill:none;stroke:#000000;stroke-width:10;stroke-linejoin:miter;stroke-miterlimit:4"
     d="M 105,5 H 495 V 395 H 105 Z" />
</svg>
