<?xml version="1.0" encoding="UTF-8" standalone="no"?>
<svg
   xmlns="http://www.w3.org/2000/svg"
   id="NATO Map Symbol"
   height="400"
   width="600">
  <g
     id="MOR"
	 style="fill:none;stroke:#000000;stroke-width:10;stroke-linecap:round;stroke-linejoin:miter;stroke-miterlimit:4">
    <path
       d="m 334,210 a 34,34 0 0 1 -34,34 34,34 0 0 1 -34,-34 34,34 0 0 1 34,-34 34,34 0 0 1 34,34 z" />
    <path
       d="M 300,175 V 25" />
    <path
       d="M 336,59 300,25 264,59" />
  </g>
  <g
     id="Tow"
	 style="fill:none;stroke:#000000;stroke-width:10;stroke-linecap:butt;stroke-linejoin:miter;stroke-miterlimit:4">
    <path
       d="m 441,259 a 34,34 0 0 1 -34,34 34,34 0 0 1 -34,-34 34,34 0 0 1 34,-34 34,34 0 0 1 34,34 z" />
    <path
       d="m 227,259 a 34,34 0 0 1 -34,34 34,34 0 0 1 -34,-34 34,34 0 0 1 34,-34 34,34 0 0 1 34,34 z" />
    <path
       d="M 373,259 H 227" />
  </g>
  <path
     id="ABN"
     d="m 185,357 c 0,0 35.45511,-32.13869 70,-31 39.3232,1.29621 45,41 45,41 0,0 4.74354,-39.62637 45,-41 40.25646,-1.37362 70,31 70,31"
     style="fill:none;stroke:#000000;stroke-width:10;stroke-linecap:butt;stroke-linejoin:miter;stroke-miterlimit:4" />
  <path
     id="Neutral Frame"
     style="fill:none;stroke:#000000;stroke-width:10;stroke-linejoin:miter;stroke-miterlimit:4"
     d="M 105,5 H 495 V 395 H 105 Z" />
</svg>
