<?xml version="1.0" encoding="UTF-8" standalone="no"?>
<svg
   xmlns="http://www.w3.org/2000/svg"
   id="NATO Map Symbol"
   height="400"
   width="600">
  <g
     id="SpLvl"
	 style="fill:none;stroke:#000000;stroke-width:10;stroke-linecap:butt">
  <path
     id="Theatre"
     d="M 105,5 165,200 105,395" />
  <path
     id="Corps"
     d="M 495,5 435,200 495,395" />
  </g>
  <g
     id="Tpt"
     style="fill:none;stroke:#000000;stroke-width:10;stroke-linecap:butt">
    <path
       id="Wheel"
       d="m 394.32926,284.822 a 94.329284,94.290644 0 1 1 -188.65855,0 94.329284,94.290644 0 1 1 188.65855,0 z" />
    <path
       id="Wheel-H"
       d="M 206,285 H 394" />
    <path
       id="Wheel-D1"
       d="M 233,351.5 367,218" />
    <path
       id="Wheel-V"
       d="M 300,191 V 379" />
    <path
       id="Wheel-D2"
       d="M 233,218 367,351.5" />
  </g>
  <g
     id="Missile"
     style="fill:none;stroke:#000000;stroke-width:10;stroke-linecap:butt;stroke-linejoin:miter;stroke-miterlimit:4;">
    <path
       d="M 266.18965,178.78839 V 72.316122 c 0,-19.057849 21.99925,-46.105031 33.81035,-46.105031 11.8111,0 33.81035,27.047182 33.81035,46.105031 V 178.78839"
       id="Msl1"/>
    <path
       d="M 300,26.211091 V 178.78839"
       id="Msl2" />
  </g>
  <path
     id="Neutral Frame"
     style="fill:none;stroke:#000000;stroke-width:10;stroke-linejoin:miter;stroke-miterlimit:4"
     d="M 105,5 H 495 V 395 H 105 Z" />
</svg>
