<?xml version="1.0" encoding="UTF-8" standalone="no"?>
<svg
   xmlns="http://www.w3.org/2000/svg"
   id="NATO Map Symbol"
   height="400"
   width="600">
  <path
     style="fill:#000000;stroke:none"
     d="M 299.96746,16.250008 A 69.414315,69.412745 0 0 1 260,56.281638 69.414315,69.412745 0 0 1 300.03253,96.25 69.414315,69.412745 0 0 1 340,56.216558 69.414315,69.412745 0 0 1 299.96746,16.250008 Z"
     id="Sensor" />
  <path
     id="Surv"
     d="M 423.74368,287.49982 H 176.25631 L 300,112.49982 Z"
     style="fill:#000000;stroke:#000000;stroke-width:10;stroke-linejoin:miter;stroke-miterlimit:10" />
  <path
     id="ABN"
     d="m 185,357 c 0,0 35.45511,-32.13869 70,-31 39.3232,1.29621 45,41 45,41 0,0 4.74354,-39.62637 45,-41 40.25646,-1.37362 70,31 70,31"
     style="fill:none;stroke:#000000;stroke-width:10;stroke-linecap:butt;stroke-linejoin:miter;stroke-miterlimit:4" />
  <path
     id="Neutral Frame"
     style="fill:none;stroke:#000000;stroke-width:10;stroke-linejoin:miter;stroke-miterlimit:4"
     d="M 105,5 H 495 V 395 H 105 Z" />
</svg>
