<?xml version="1.0" encoding="UTF-8" standalone="no"?>
<svg
   xmlns="http://www.w3.org/2000/svg"
   width="600"
   height="400"
   id="NATO Map Symbol">
  <path
     id="Theatre Level"
     style="fill:none;stroke:#000000;stroke-width:10;stroke-linecap:butt;stroke-linejoin:miter;stroke-miterlimit:4;stroke-dasharray:none;stroke-opacity:1"
     d="M 105,5 195,200 105,395" />
  <path
     id="Corps Level"
     style="fill:none;stroke:#000000;stroke-width:10;stroke-linecap:butt;stroke-linejoin:miter;stroke-miterlimit:4;stroke-dasharray:none;stroke-opacity:1"
     d="M 495,5 405,200 495,395" />
  <g
     id="Tpt">
    <path
       style="fill:none;stroke:#000000;stroke-width:10;stroke-miterlimit:4;stroke-dasharray:none;stroke-opacity:1"
       id="Wheel"
       d="m 383.1667,200 a 83.166707,83.143921 0 1 1 -166.3334,0 83.166707,83.143921 0 1 1 166.3334,0 z" />
    <path
       style="fill:none;stroke:#000000;stroke-width:10;stroke-linecap:butt;stroke-linejoin:miter;stroke-miterlimit:4;stroke-dasharray:none;stroke-opacity:1"
       id="Wheel-H"
       d="M 216.8333,200 H 383.16669" />
    <path
       style="fill:none;stroke:#000000;stroke-width:10;stroke-linecap:butt;stroke-linejoin:miter;stroke-miterlimit:4;stroke-dasharray:none;stroke-opacity:1"
       id="Wheel-D1"
       d="M 241.19226,258.79162 358.80773,141.20838" />
    <path
       style="fill:none;stroke:#000000;stroke-width:10;stroke-linecap:butt;stroke-linejoin:miter;stroke-miterlimit:4;stroke-dasharray:none;stroke-opacity:1"
       id="Wheel-V"
       d="M 300,116.85609 V 283.14391" />
    <path
       style="fill:none;stroke:#000000;stroke-width:10;stroke-linecap:butt;stroke-linejoin:miter;stroke-miterlimit:4;stroke-dasharray:none;stroke-opacity:1"
       id="path3787-1-8"
       d="M 241.19226,141.20838 358.80773,258.79162" />
  </g>
  <g
     id="Rail">
    <path
       id="Wheel-L1"
       style="fill:none;stroke:#000000;stroke-width:10"
       d="m 219.51546,344.88127 c 0,11.38494 -9.22931,20.61423 -20.61424,20.61423 -11.38492,0 -20.61422,-9.22929 -20.61422,-20.61423 0,-11.38494 9.2293,-20.61423 20.61422,-20.61423 11.38493,0 20.61424,9.22929 20.61424,20.61423 z" />
    <path
       id="Wheel-L2"
       style="fill:none;stroke:#000000;stroke-width:10"
       d="m 272.81177,344.88127 a 20.614235,20.614235 0 1 1 -41.22847,0 20.614235,20.614235 0 1 1 41.22847,0 z" />
    <path
       id="Wheel-R1"
       style="fill:none;stroke:#000000;stroke-width:10"
       d="m 368.41668,344.88127 a 20.614234,20.614234 0 1 1 -41.22846,0 20.614234,20.614234 0 1 1 41.22846,0 z" />
    <path
       id="Wheel-R2"
       style="fill:none;stroke:#000000;stroke-width:10;stroke-linecap:round;stroke-linejoin:miter;stroke-miterlimit:4;stroke-dasharray:none;stroke-opacity:1"
       d="m 421.713,344.88127 a 20.614234,20.614234 0 1 1 -41.22846,0 20.614234,20.614234 0 1 1 41.22846,0 z" />
    <path
       style="stroke:#000000;stroke-width:10;stroke-linecap:butt"
       d="M 178.287,314.26704 H 421.713"
       id="Deck" />
  </g>
  <path
     id="Neutral Frame"
     style="fill:none;stroke:#000000;stroke-width:10;stroke-linejoin:miter;stroke-miterlimit:4"
     d="M 105,5 H 495 V 395 H 105 Z" />
</svg>
