<?xml version="1.0" encoding="UTF-8" standalone="no"?>
<svg
   xmlns="http://www.w3.org/2000/svg"
   id="NATO Map Symbol"
   height="400"
   width="600">
  <path
     style="fill:#000000;stroke:#000000;stroke-width:6;stroke-linejoin:miter;stroke-miterlimit:4"
     id="Aviation"
     d="m 394.5,143.5 c 34,-20.3 81,25.3 81,56.5 0,31.2 -47.1,76.8 -81,56.5 L 205.5,143.5 c -34,-20.3 -81,25.3 -81,56.5 0,31.2 47.1,76.8 81,56.5 z" />
  <path
     id="ABN"
     d="m 185,357 c 0,0 35.45511,-32.13869 70,-31 39.3232,1.29621 45,41 45,41 0,0 4.74354,-39.62637 45,-41 40.25646,-1.37362 70,31 70,31"
     style="fill:none;stroke:#000000;stroke-width:10;stroke-linecap:butt;stroke-linejoin:miter;stroke-miterlimit:4" />
  <path
     id="Neutral Frame"
     style="fill:none;stroke:#000000;stroke-width:10;stroke-linejoin:miter;stroke-miterlimit:4"
     d="M 105,5 H 495 V 395 H 105 Z" />
</svg>
