<?xml version="1.0" encoding="UTF-8" standalone="no"?>
<svg
   xmlns="http://www.w3.org/2000/svg"
   id="NATO Map Symbol"
   height="400"
   width="600">
  <text
     id="S1"
     style="font-size:130px;font-family:sans-serif;text-align:center;text-anchor:middle;fill:#000000;stroke:none"
     y="126.5"
     x="300">CON</text>
  <g
     id="Pipe"
     style="fill:none;stroke:#000000;stroke-width:10;stroke-linecap:square;stroke-miterlimit:4" >
      <path
         d="m 237.09933,188.88127 a 24.687925,24.687925 0 1 1 -49.37585,0 24.687925,24.687925 0 1 1 49.37585,0 z"/>
      <path
         d="m 324.68792,188.88127 a 24.687925,24.687925 0 1 1 -49.37585,0 24.687925,24.687925 0 1 1 49.37585,0 z" />
      <path
         d="m 412.27643,188.88127 a 24.687925,24.687925 0 1 1 -49.37585,0 24.687925,24.687925 0 1 1 49.37585,0 z" />
      <path
         d="M 157.384,154.18454 H 442.616" />
      <path
         d="M 157,222.33898 H 442.616"/>
  </g>
  <path
     d="m 300,373.7 v -124 m -125,124 v -124 h 250 v 124"
     style="fill:none;stroke:#000000;stroke-width:20;stroke-linecap:butt;stroke-linejoin:miter;stroke-miterlimit:4"
     id="ENGR" />
  <path
     id="Neutral Frame"
     style="fill:none;stroke:#000000;stroke-width:10;stroke-linejoin:miter;stroke-miterlimit:4"
     d="M 105,5 H 495 V 395 H 105 Z" />
</svg>
