<?xml version="1.0" encoding="UTF-8" standalone="no"?>
<svg
   xmlns="http://www.w3.org/2000/svg"
   id="NATO Map Symbol"
   height="400"
   width="600">
  <g
     id="Sniper"
	 style="stroke:#000000;stroke-width:10;stroke-linecap:butt">
    <path
       d="m 222,29 h 55" />
    <path
       d="M 322,29 h 55" />
    <path
       d="M 300,96 v -55" />
  </g>
   <path
      id="ARMOUR"
      d="m 215,292 c -51,0 -92,-41 -92,-92 0,-51 41,-92 92,-92 h 170 c 51,0 92,41 92,92 0,51 -42,92 -92,92 z"
      style="fill:none;stroke:#000000;stroke-width:10" />
  <path
     id="ABN"
     d="m 185,357 c 0,0 35.45511,-32.13869 70,-31 39.3232,1.29621 45,41 45,41 0,0 4.74354,-39.62637 45,-41 40.25646,-1.37362 70,31 70,31"
     style="fill:none;stroke:#000000;stroke-width:10;stroke-linecap:butt;stroke-linejoin:miter;stroke-miterlimit:4" />
  <g
     style="fill:none;stroke:#000000;stroke-width:10;stroke-linecap:butt"
     id="Infantry">
  <path
     d="M 495,395 105,5" />
  <path
     d="M 495,5 105,395" />
  </g>
  <path
     id="Neutral Frame"
     style="fill:none;stroke:#000000;stroke-width:10;stroke-linejoin:miter;stroke-miterlimit:4"
     d="M 105,5 H 495 V 395 H 105 Z" />
</svg>
