<?xml version="1.0" encoding="UTF-8" standalone="no"?>
<svg
   xmlns="http://www.w3.org/2000/svg"
   id="NATO Map Symbol"
   height="400"
   width="600">
  <g
     style="fill:none;stroke:#000000;stroke-width:10;stroke-linecap:butt"
     id="Mortar">
    <path
       d="m 280,42 20,-20 20,20" />
    <path
       d="M 300,22 V 62" />
    <path
       d="M 315,77 A 15,15 0 0 1 300,92 15,15 0 0 1 285,77 15,15 0 0 1 300,62 15,15 0 0 1 315,77 Z" />
  </g>
  <path
     id="Snow"
     d="M 405,370 H 223 c -17,0 -31,-14 -31,-31 0,-8.5 3.5,-16.25 9.125,-21.875"
     style="fill:none;stroke:#000000;stroke-width:10" />
  <g
     style="fill:none;stroke:#000000;stroke-width:10;stroke-linecap:butt"
     id="Infantry">
  <path
     d="M 495,395 105,5" />
  <path
     d="M 495,5 105,395" />
  </g>
  <path
     id="Neutral Frame"
     style="fill:none;stroke:#000000;stroke-width:10;stroke-linejoin:miter;stroke-miterlimit:4"
     d="M 105,5 H 495 V 395 H 105 Z" />
</svg>
