<?xml version="1.0" encoding="UTF-8" standalone="no"?>
<svg
   xmlns="http://www.w3.org/2000/svg"
   id="NATO Map Symbol"
   height="400"
   width="600">
  <path
     d="m 385,200 a 85,85 0 0 1 -85,85 85,85 0 0 1 -85,-85 85,85 0 0 1 85,-85 85,85 0 0 1 85,85 z"
     id="Arty"
     style="fill:#000000;stroke:none" />
    <g
       id="Wheeled"
	   style="fill:none;stroke:#000000;stroke-width:10">
      <path
         d="m 250.28578,338.88127 a 31.357262,31.357262 0 1 1 -62.71451,0 31.357262,31.357262 0 1 1 62.71451,0 z" />
      <path
         d="m 331.35727,338.88127 a 31.357262,31.357262 0 1 1 -62.71452,0 31.357262,31.357262 0 1 1 62.71452,0 z" />
      <path
         d="m 412.42874,338.88127 a 31.357262,31.357262 0 1 1 -62.71452,0 31.357262,31.357262 0 1 1 62.71452,0 z" />
    </g>
  <path
     id="Neutral Frame"
     style="fill:none;stroke:#000000;stroke-width:10;stroke-linejoin:miter;stroke-miterlimit:4"
     d="M 105,5 H 495 V 395 H 105 Z" />
</svg>
