<?xml version="1.0" encoding="UTF-8" standalone="no"?>
<svg
   xmlns="http://www.w3.org/2000/svg"
   id="NATO Map Symbol"
   height="400"
   width="600">
  <g
     style="fill:none;stroke:#000000;stroke-width:10;stroke-linecap:round;stroke-linejoin:miter;stroke-miterlimit:4"
     id="Maint2">
    <path
       d="M 209.10077,200 H 392.41514"
       id="Maint-0" />
    <path
       d="m 159.93304,152.34818 c 26.31737,0 47.65182,21.33445 47.65182,47.65182 0,26.31737 -21.33445,47.65182 -47.65182,47.65182"
       id="Maint-1" />
    <path
       d="m 440.06696,152.34818 c -26.31738,0 -47.65182,21.33445 -47.65182,47.65182 0,26.31738 21.33444,47.65182 47.65182,47.65182"
       id="Maint-2" />
  </g>
  <g
     style="fill:none;stroke:#000000;stroke-width:10;stroke-linecap:round;stroke-linejoin:miter;stroke-miterlimit:4"
     id="Wheels">
  <path
     d="m 438.42874,289.02077 a 31.357262,31.357262 0 1 1 -62.71452,0 31.357262,31.357262 0 1 1 62.71452,0 z"
     id="Wheel-1" />
  <path
     d="m 224.28578,289.03052 a 31.357262,31.357262 0 1 1 -62.71451,0 31.357262,31.357262 0 1 1 62.71451,0 z"
     id="Wheel2" />
  <path
       d="M 160,257.65 H 440"
       id="Bed" />
  </g>
    <text
     style="font-size:100px;font-family:sans-serif;text-align:center;text-anchor:middle;fill:#000000;stroke:none"
     id="S2"
     y="380"
     x="300">H</text>
  <path
     id="Neutral Frame"
     style="fill:none;stroke:#000000;stroke-width:10;stroke-linejoin:miter;stroke-miterlimit:4"
     d="M 105,5 H 495 V 395 H 105 Z" />
</svg>
