<?xml version="1.0" encoding="UTF-8" standalone="no"?>
<svg
   xmlns="http://www.w3.org/2000/svg"
   id="NATO Map Symbol"
   height="400"
   width="600">
  <path
     d="m 215.40054,292.5 c -51.4861,0 -93.22383,-41.01389 -93.22383,-92.5 0,-51.4861 41.73773,-92.5 93.22383,-92.5 h 169.19892 c 51.4861,0 93.22383,41.0139 93.22383,92.5 0,51.48611 -41.73773,92.5 -93.22383,92.5 z"
     style="fill:none;stroke:#000000;stroke-width:10"
     id="ARMOUR" />
  <g
     id="Recov"
     style="fill:none;stroke:#000000;stroke-width:10;stroke-linecap:round;stroke-linejoin:miter;stroke-miterlimit:4;stroke-dasharray:none;stroke-opacity:1">
  <path
     id="Maint-0"
     d="M 239.57574,344.88127 H 361.43195"/>
  <path
     id="Maint-1"
     d="m 206.89204,313.20524 c 17.49418,0 31.67602,14.18184 31.67602,31.67603 0,17.49418 -14.18184,31.67602 -31.67602,31.67602"/>
  <path
     id="Maint-2"
     d="m 393.10797,313.20524 c -17.49419,0 -31.67602,14.18184 -31.67602,31.67603 0,17.49418 14.18183,31.67602 31.67602,31.67602"/>
  </g>
  <path
     id="Neutral Frame"
     style="fill:none;stroke:#000000;stroke-width:10;stroke-linejoin:miter;stroke-miterlimit:4"
     d="M 105,5 H 495 V 395 H 105 Z" />
</svg>
