<?xml version="1.0" encoding="UTF-8" standalone="no"?>
<svg
   xmlns:dc="http://purl.org/dc/elements/1.1/"
   xmlns:cc="http://creativecommons.org/ns#"
   xmlns:rdf="http://www.w3.org/1999/02/22-rdf-syntax-ns#"
   xmlns:svg="http://www.w3.org/2000/svg"
   xmlns="http://www.w3.org/2000/svg"
   version="1.1"
   width="600"
   height="400"
   id="NATO Map Symbol">
  <path
     style="fill:none;stroke:#000000;stroke-width:10;stroke-linecap:butt;stroke-linejoin:miter;stroke-miterlimit:4;stroke-dasharray:none;stroke-opacity:1"
     id="Infantry1"
     d="M 495,395 105,5" />
  <path
     style="fill:none;stroke:#000000;stroke-width:10;stroke-linecap:butt;stroke-linejoin:miter;stroke-miterlimit:4;stroke-dasharray:none;stroke-opacity:1"
     id="Infantry2"
     d="M 495,5 105,395" />
  <path
     id="Wave" 
     d="m 105,317.55241 c 31.6471,0 33.35292,62.65772 65.00001,62.65772 31.64711,0 33.36084,-62.01615 65,-62.65772 v 0 c 31.64711,0 33.35289,62.65772 65.00001,62.65772 31.64709,0 33.35289,-62.65772 64.99999,-62.65772 31.6471,0 33.35291,62.65772 65,62.65772 31.64711,0 33.3529,-62.65772 64.99999,-62.65772"
     style="fill:none;stroke:#000000;stroke-width:10;stroke-linecap:butt;stroke-linejoin:miter;stroke-miterlimit:4;stroke-dasharray:none;stroke-opacity:1"/>
  <path
     d="m 395.96174,162.20537 c 34.75175,-13.86787 82.89504,17.2689 82.89504,38.57118 0,21.30227 -48.14329,52.43904 -82.89504,38.57119 L 202.64897,162.20537 c -34.75174,-13.86787 -82.89505,17.2689 -82.89505,38.57118 0,21.30227 48.14331,52.43904 82.89505,38.57119 z"
     id="AirForce"
     style="color:#000000;display:inline;overflow:visible;visibility:visible;fill:none;fill-opacity:1;stroke:#000000;stroke-width:10;stroke-linecap:round;stroke-linejoin:miter;stroke-miterlimit:4;stroke-dasharray:none;stroke-dashoffset:0;stroke-opacity:1;marker:none;enable-background:accumulate" />
  <path
     id="Neutral Frame"
     style="opacity:1;fill:none;fill-opacity:1;stroke:#000000;stroke-width:10;stroke-linecap:butt;stroke-linejoin:miter;stroke-miterlimit:4;stroke-dasharray:none;stroke-dashoffset:0;stroke-opacity:1"
     d="M 105,5 H 495 V 395 H 105 Z" />
</svg>
