<?xml version="1.0" encoding="UTF-8" standalone="no"?>
<svg
   xmlns="http://www.w3.org/2000/svg"
   id="NATO Map Symbol"
   height="400"
   width="600">
  <g
     id="Tpt"
     style="fill:none;stroke:#000000;stroke-width:10;stroke-linecap:butt">
    <path
       id="Wheel"
       d="m 394.32926,258.822 a 94.329284,94.290644 0 1 1 -188.65855,0 94.329284,94.290644 0 1 1 188.65855,0 z" />
    <path
       id="Wheel-H"
       d="M 205.67071,258.822 H 394.32925" />
    <path
       id="Wheel-D1"
       d="M 233.29911,325.49555 366.70085,192.14846" />
    <path
       id="Wheel-V"
       d="M 299.99999,164.53137 V 353.11264" />
    <path
       id="Wheel-D2"
       d="M 233.29911,192.14846 366.70085,325.49555" />
  </g>
  <g
     id="Navy"
	 style="fill:#000000;fill-rule:nonzero;stroke:none">
    <path
       d="m 300.7429,27.415809 c -6.53007,0 -11.82273,5.096099 -11.82076,11.375009 -0.002,6.27891 5.29069,11.375009 11.82076,11.375009 6.53006,2e-6 11.82273,-5.096099 11.82076,-11.375009 0.002,-6.27891 -5.2907,-11.375009 -11.82076,-11.375009 z m -0.26415,5.530665 c 3.16993,0 5.74624,2.466142 5.74529,5.514155 10e-4,3.048019 -2.57536,5.514156 -5.74529,5.514156 -3.16994,0 -5.74624,-2.466136 -5.74529,-5.514156 -10e-4,-3.048014 2.57535,-5.514155 5.74529,-5.514155 z"
       id="Navy1" />
    <path
       d="m 296.32144,47.916152 c -0.55639,-0.0098 0,1.096159 0,4.79922 v 4.79922 l -11.55966,-0.161465 c -9.08821,-0.126941 -11.74255,-0.0097 -12.4151,0.548494 -1.07548,0.892567 -1.24462,6.909111 -0.19507,6.939034 l 23.64153,-0.05517 c 0.0265,5.647208 0.0999,11.294866 0.0279,16.942011 -0.2665,11.664941 -0.47107,23.330844 -0.57954,34.998344 -0.0479,6.31889 -0.28828,12.38116 -0.53411,13.47171 -0.92657,4.11036 -3.51897,4.66867 -11.50887,2.47861 -8.30926,-2.2776 -18.62994,-7.34095 -20.36706,-9.99212 -1.38099,-2.10765 -1.59652,-3.9148 -0.59846,-5.01766 0.49759,-0.54982 1.23745,-0.872 1.64412,-0.71594 0.44966,0.17255 0.9225,-0.20371 1.20664,-0.96016 1.00016,-2.66277 -2.33811,-6.59832 -8.91326,-10.50801 -1.59811,-0.95027 -4.21321,-2.99101 -5.81132,-4.535 -1.67681,-1.620011 -3.15565,-2.647105 -3.49676,-2.428594 -1.0614,0.67992 -3.23309,5.591264 -3.90036,8.820804 -1.34142,6.49229 0.36041,16.07189 3.52285,19.83025 1.6694,1.98396 2.60067,2.00126 2.98981,0.0555 0.68568,-3.42837 4.95288,-2.43946 9.60145,2.22512 3.67905,3.69172 10.68469,9.04339 13.73586,10.49292 1.16226,0.55217 2.82641,1.44991 3.69811,1.99498 0.8717,0.54508 3.4868,1.64155 5.81133,2.43659 4.86985,1.66562 10.57263,4.6146 12.83072,6.63493 0.85784,0.76751 2.15341,1.78449 2.87904,2.25994 1.26934,0.8317 1.35331,0.8126 2.21602,-0.50405 1.79599,-2.74103 4.8938,-5.13952 9.58653,-7.42238 2.63742,-1.28302 5.19159,-2.33277 5.67594,-2.33277 1.0295,0 9.71754,-3.84367 14.95131,-6.61459 4.10131,-2.17137 5.94883,-3.4802 10.53072,-7.46025 5.1728,-4.49334 7.79005,-5.00086 10.5048,-2.03705 l 1.69489,1.85039 1.08815,-1.19001 c 1.9688,-2.15309 2.69338,-4.31784 3.07405,-9.1839 0.29109,-3.72094 0.16766,-5.74108 -0.54806,-8.97033 -1.13095,-5.10273 -3.02724,-9.463684 -4.44508,-10.222485 -0.89521,-0.479107 -1.19992,-0.340353 -1.96496,0.894725 -1.33021,2.1475 -3.18895,3.83637 -6.76862,6.15002 -4.28624,2.77033 -6.87276,5.62626 -7.66805,8.46674 -0.76821,2.74379 -0.41849,3.7398 1.03922,2.95965 1.59018,-0.85103 2.62619,-0.61892 3.23882,0.72566 0.86253,1.89305 -0.4332,3.41584 -5.44138,6.39492 -8.55366,5.08809 -20.0227,9.25537 -25.47227,9.25537 -2.57154,0 -4.9864,-0.99472 -5.37316,-2.21329 -0.1865,-0.58761 -0.19608,-7.52152 -0.0213,-15.40869 0.17478,-7.88717 0.45756,-22.539499 0.62839,-32.560739 0.17083,-10.02124 0.39066,-18.349984 0.48852,-18.508327 0.0979,-0.158337 5.54571,-0.237878 12.10633,-0.176764 13.61152,0.126803 12.89549,0.38258 12.7828,-4.566207 l -0.0662,-2.905663 c -8.12881,-0.569938 -16.45022,0.497577 -24.54487,-0.595164 -0.15279,-0.152785 -0.31257,-2.03566 -0.35506,-4.18417 l -0.0773,-4.842768 -8.57,-0.151491 z"
       id="Navy2" />
  </g>
  <path
     id="Neutral Frame"
     style="fill:none;stroke:#000000;stroke-width:10;stroke-linejoin:miter;stroke-miterlimit:4"
     d="M 105,5 H 495 V 395 H 105 Z" />
</svg>
