<?xml version="1.0" encoding="UTF-8" standalone="no"?>
<svg
   xmlns="http://www.w3.org/2000/svg"
   id="NATO Map Symbol"
   height="400"
   width="600">
  <path
     style="fill:none;stroke:#000000;stroke-width:10"
     d="m 315,38 c 0,-8.3 -6.7,-17 -15,-17 -8.3,0 -15,8.7 -15,17 v 58"
     id="FlameWpns" />
  <path
     d="M 300,279 V 133 M 150,279 V 133 h 300 v 146"
     style="fill:none;stroke:#000000;stroke-width:25.5;stroke-linecap:butt;stroke-linejoin:miter;stroke-miterlimit:4"
     id="ENGR" />
  <path
     id="Track"
     d="m 223,370 c -17,0 -31,-14 -31,-31 0,-17 14,-31 31,-31 h 154 c 17,0 31,14 31,31 0,17 -14,31 -31,31 z"
     style="fill:none;stroke:#000000;stroke-width:10" />
  <path
     id="GunSys"
     d="M 165,5 V 395"
     style="fill:none;stroke:#000000;stroke-width:10;stroke-linecap:butt" />
  <g
     style="fill:none;stroke:#000000;stroke-width:10;stroke-linecap:butt"
     id="Infantry">
  <path
     d="M 495,395 105,5" />
  <path
     d="M 495,5 105,395" />
  </g>
  <path
     id="Neutral Frame"
     style="fill:none;stroke:#000000;stroke-width:10;stroke-linejoin:miter;stroke-miterlimit:4"
     d="M 105,5 H 495 V 395 H 105 Z" />
</svg>
