<?xml version="1.0" encoding="UTF-8" standalone="no"?>
<svg
   xmlns="http://www.w3.org/2000/svg"
   id="NATO Map Symbol"
   height="400"
   width="600">
  <g
     id="Ordnance"
	 style="fill:none;stroke:#000000;stroke-width:10;stroke-linecap:butt">
    <path
       d="m 349.76761,168 a 51,51 0 0 1 -51,51 51,51 0 0 1 -51,-51 51,51 0 0 1 51,-51 51,51 0 0 1 51,51 z" />
    <path
       d="m 316.73627,32.44476 c 21.56955,11.86441 35.98619,27.05757 35.98619,60.43477 0,16.6886 -4.02789,31.79729 -10.54011,42.73383" />
    <path
       d="m 257.49179,61.07698 c -6.31088,9.54033 -10.21425,22.72015 -10.21425,37.27819 0,14.55804 3.90336,27.73787 10.21425,37.27818" />
    <path
       d="m 292.10241,73.48758 c 5.88319,12.14729 9.52203,28.92857 9.52203,47.46469" />
    <path
       d="m 308.32023,41.9787 c 19.14504,9.64756 31.94119,22.0019 31.94119,49.14262 0,13.57036 -3.57514,25.85602 -9.35536,34.74908" />
  </g>
  <path
     style="fill:none;stroke:#000000;stroke-width:10;stroke-linecap:butt;stroke-linejoin:miter;stroke-miterlimit:4"
     id="ABN"
     d="m 127,269 c 0,0 51,-47 103,-45 59,2 70,60 70,60 0,0 10,-58 70,-60 60,-2 103,45 103,45" />
  <path
     id="Neutral Frame"
     style="fill:none;stroke:#000000;stroke-width:10;stroke-linejoin:miter;stroke-miterlimit:4"
     d="M 105,5 H 495 V 395 H 105 Z" />
</svg>
