<?xml version="1.0" encoding="UTF-8" standalone="no"?>
<svg
   xmlns="http://www.w3.org/2000/svg"
   id="NATO Map Symbol"
   height="400"
   width="600">
  <g
     id="Rail"
     style="fill:none;stroke:#000000;stroke-width:10;stroke-linecap:square;stroke-miterlimit:4" >
      <path
         d="m 206.75972,114.88127 a 24.687925,24.687925 0 1 1 -49.37584,0 24.687925,24.687925 0 1 1 49.37584,0 z"/>
      <path
         d="m 267.43896,114.88127 a 24.687925,24.687925 0 1 1 -49.37585,0 24.687925,24.687925 0 1 1 49.37585,0 z" />
      <path
         d="m 381.93688,114.88127 a 24.687925,24.687925 0 1 1 -49.37584,0 24.687925,24.687925 0 1 1 49.37584,0 z" />
      <path
         d="m 442.616,114.88127 a 24.687925,24.687925 0 1 1 -49.37584,0 24.687925,24.687925 0 1 1 49.37584,0 z" />
      <path
         d="M 157.384,80.184538 H 442.616"/>
  </g>
  <path
     d="m 300,330 v -146 m -150,146 v -146 h 300 v 146"
     style="fill:none;stroke:#000000;stroke-width:25.5;stroke-linecap:butt;stroke-linejoin:miter;stroke-miterlimit:4"
     id="ENGR" />
  <path
     id="Neutral Frame"
     style="fill:none;stroke:#000000;stroke-width:10;stroke-linejoin:miter;stroke-miterlimit:4"
     d="M 105,5 H 495 V 395 H 105 Z" />
</svg>
