<?xml version="1.0" encoding="UTF-8" standalone="no"?>
<svg
   xmlns:dc="http://purl.org/dc/elements/1.1/"
   xmlns:cc="http://creativecommons.org/ns#"
   xmlns:rdf="http://www.w3.org/1999/02/22-rdf-syntax-ns#"
   xmlns:svg="http://www.w3.org/2000/svg"
   xmlns="http://www.w3.org/2000/svg"
   xmlns:sodipodi="http://sodipodi.sourceforge.net/DTD/sodipodi-0.dtd"
   xmlns:inkscape="http://www.inkscape.org/namespaces/inkscape"
   version="1.0"
   width="170"
   height="106"
   id="svg4028"
   inkscape:version="0.91 r13725"
   sodipodi:docname="APP-6_Quartermaster.svg">
  <metadata
     id="metadata4038">
    <rdf:RDF>
      <cc:Work
         rdf:about="">
        <dc:format>image/svg+xml</dc:format>
        <dc:type
           rdf:resource="http://purl.org/dc/dcmitype/StillImage" />
        <dc:title></dc:title>
      </cc:Work>
    </rdf:RDF>
  </metadata>
  <defs
     id="defs4036" />
  <sodipodi:namedview
     pagecolor="#ffffff"
     bordercolor="#666666"
     borderopacity="1"
     objecttolerance="10"
     gridtolerance="10"
     guidetolerance="10"
     inkscape:pageopacity="0"
     inkscape:pageshadow="2"
     inkscape:window-width="640"
     inkscape:window-height="480"
     id="namedview4034"
     showgrid="false"
     inkscape:zoom="1.5705882"
     inkscape:cx="85"
     inkscape:cy="53"
     inkscape:window-x="0"
     inkscape:window-y="0"
     inkscape:window-maximized="0"
     inkscape:current-layer="svg4028" />
  <rect
     x="1.5"
     y="1.5"
     height="103"
     width="167"
     fill="#fff"
     stroke="#000"
     stroke-width="3"
     id="rect4030" />
  <path
     d="m 49.033807,33.759631 c -2.158208,0.79519 -3.927553,2.76537 -4.932065,5.12712 -0.758985,1.80967 -0.798445,3.87157 -0.761719,5.84643 -3.212854,-1.05049 -6.915894,1.0442 -8.305726,4.60693 -0.36664,0.93985 -0.330526,0.94402 -0.468247,1.88255 -0.191158,1.30268 -0.166295,1.72778 -0.0871,2.61004 0.05673,1.03911 0.288573,1.79592 0.288573,1.79592 0.748794,2.72933 2.755153,4.94286 5.127242,5.5962 1.162415,0.33706 2.378579,0.25558 3.550154,0.0229 -0.395539,2.28816 0.02572,4.73638 1.066674,6.71282 1.584392,3.25652 4.911444,5.10559 8.050034,4.6809 2.35395,-0.23394 4.52186,-1.8312 5.86537,-4.1047 1.73336,-2.79705 1.94859,-6.68969 0.77207,-9.82656 -0.3885,-1.07231 -1.03206,-1.97046 -1.67664,-2.8382 1.1102,0.39517 2.04517,1.25254 3.11507,1.76214 0.59327,-0.60595 1.22983,-1.15487 1.798,-1.79915 0.14728,0.41713 0.15207,0.88469 0.31174,1.29407 0.39858,0.78363 1.15592,1.3627 1.95017,1.26205 1.19378,-0.0258 2.26532,-1.37298 2.07543,-2.80163 2.10311,0.13177 4.21076,0.0746 6.31615,0.10015 14.59152,0.0695 29.184323,0.11197 43.776393,0.16626 0.0494,0.69282 0.085,1.39183 -0.0271,2.07774 -1.99202,-0.0382 -3.98473,-0.0393 -5.97605,-0.017 -0.021,1.19014 -0.0562,2.38143 0.0167,3.56891 0.50287,0.25489 1.02771,0.44741 1.5533,0.62806 0.11468,0.46862 0.094,0.96353 0.0292,1.43683 -0.53928,0.16722 -1.04922,0.44481 -1.59503,0.57384 -0.01,2.73615 -0.13455,5.4767 -0.0345,8.21055 1.76112,0.0168 3.52528,-0.0845 5.28593,0.0451 0.0933,-1.94682 0.0551,-3.89799 0.0271,-5.84663 0.79133,-0.12566 1.5915,0.019 2.38758,-0.0751 0.0868,1.93033 -0.0309,3.87412 -0.0266,5.80785 1.42154,0.13563 2.84851,0.0974 4.27408,0.0358 0.0959,-1.92685 -0.0439,-3.85955 0.0834,-5.78727 0.73858,-0.0288 1.4797,0.01 2.22124,-0.0177 0.25777,1.92637 -0.0286,3.88909 0.12294,5.82755 1.74785,0.0819 3.49868,-0.003 5.24829,0.06 0.12032,-2.72168 0.0507,-5.44793 0.0523,-8.17333 -0.53457,-0.18834 -1.04694,-0.45931 -1.59359,-0.58605 -0.0972,-0.48689 -0.047,-0.98929 0.0196,-1.47954 0.52039,-0.14884 1.02184,-0.37691 1.53359,-0.57554 0.14982,-0.45837 0.0166,-0.95072 0.0412,-1.42911 -0.0434,-0.73541 0.005,-1.46991 0.0611,-2.20173 -0.23909,-0.0393 -0.48349,-0.0478 -0.71963,-0.0368 -1.77952,0.0824 -3.561,-0.0136 -5.34112,0.0587 -0.0528,-0.65215 -0.0131,-1.3102 -0.0348,-1.9666 1.93486,-0.1574 3.87642,-0.007 5.8134,-0.0319 -0.005,-0.34636 -0.0252,-0.69313 -0.0131,-1.04425 0.11287,-0.23821 0.33892,-0.0817 0.46157,0.063 0.37686,0.46393 0.75648,0.97472 1.29357,1.18138 1.24928,0.55208 2.73589,-0.26365 3.30872,-1.65066 0.58817,-1.41687 0.0584,-3.31246 -1.11271,-4.06119 -0.82539,-0.42702 -1.83818,-0.54913 -2.63759,0.0199 -0.50276,0.30223 -0.68766,1.18099 -1.33128,1.15141 -0.0122,-0.39964 0.10113,-0.79947 0.0318,-1.20112 -21.15541,-0.13748 -42.310013,0.14916 -63.464273,-0.017 0.1972,-1.92675 -1.80805,-3.37279 -3.21223,-2.48976 -0.68964,0.44722 -0.99331,1.3677 -1.17553,2.21928 -0.62235,-0.56323 -1.22356,-1.15512 -1.80496,-1.77391 -1.03597,0.5969 -2.00294,1.3716 -3.10333,1.79537 0.52339,-0.72646 1.07017,-1.44304 1.44775,-2.29552 1.19606,-2.4516 1.23566,-5.50163 0.50894,-8.14691 -0.5495,-1.96301 -1.72665,-3.63704 -3.1879,-4.75917 -2.10369,-1.66348 -4.85496,-2.09544 -7.26363,-1.19377 z m 5.33316,4.03394 c 1.41696,1.02478 2.44003,2.84276 2.56068,4.81407 0.1903,2.23323 -0.77915,4.53658 -2.3831,5.7323 -0.59069,0.45592 -1.26398,0.74526 -1.95196,0.90617 -0.15489,0.0582 -0.42261,0.0415 -0.40771,0.31801 -0.0287,0.45684 0.0887,0.92357 -0.0478,1.36572 -0.42164,0.009 -0.60996,-0.49861 -0.87159,-0.7986 -0.47656,-0.67959 -1.35165,-0.76419 -1.991,-0.38337 -0.833689,0.44728 -1.284282,1.51283 -1.407863,2.53633 -0.173143,1.29521 0.08628,2.79052 0.977443,3.65485 0.67852,0.69328 1.81435,0.70088 2.4476,-0.0733 0.2317,-0.30354 0.40877,-0.8315 0.82153,-0.79812 0.17838,0.50885 0.0335,1.05099 0.0316,1.57464 1.12191,0.23098 2.25434,0.68829 3.07367,1.66456 1.93327,1.99063 2.26593,5.74059 0.70202,8.14668 -0.90592,1.44637 -2.32269,2.47856 -3.85685,2.60976 -1.30844,0.16144 -2.64366,-0.34825 -3.676419,-1.2918 -1.409645,-1.31154 -2.224536,-3.49343 -2.015696,-5.60965 0.120612,-1.48449 0.81114,-2.81047 1.660954,-3.87852 -0.947771,-0.97751 -1.885048,-1.97101 -2.831485,-2.9503 -0.77763,1.13114 -1.801291,2.17815 -3.075452,2.34015 -2.196751,0.26309 -4.390182,-1.93002 -4.482008,-4.54843 -0.07273,-1.81198 0.872601,-3.58141 2.25655,-4.34832 1.154802,-0.68577 2.608487,-0.68241 3.726423,0.10939 0.62439,0.40484 1.107129,1.04351 1.513862,1.72379 1.02787,-0.87903 1.913719,-1.9652 2.911721,-2.89058 -0.86996,-1.13374 -1.519749,-2.54813 -1.660301,-4.08355 -0.321604,-3.05564 1.712971,-6.06603 4.237711,-6.62034 1.2684,-0.30796 2.63336,-0.0196 3.7374,0.77845 z"
     id="path3833"
     inkscape:connector-curvature="0" />
</svg>
