<?xml version="1.0" encoding="UTF-8" ?>
<!DOCTYPE svg PUBLIC "-//W3C//DTD SVG 1.1//EN" "http://www.w3.org/Graphics/SVG/1.1/DTD/svg11.dtd">
<svg width="82pt" height="55pt" viewBox="0 0 82 55" version="1.1" xmlns="http://www.w3.org/2000/svg">
<g id="#ffffffff">
<path fill="#ffffff" opacity="1.00" d=" M 0.00 0.00 L 82.00 0.00 L 82.00 55.00 L 0.00 55.00 L 0.00 0.00 M 1.01 2.01 C 0.98 19.34 0.98 36.66 1.01 53.99 C 27.65 53.99 54.30 54.08 80.95 53.95 C 81.04 36.65 81.05 19.35 80.95 2.05 C 54.30 1.93 27.65 2.02 1.01 2.01 Z" />
<path fill="#ffffff" opacity="1.00" d=" M 3.03 4.02 C 28.34 3.99 53.66 3.99 78.98 4.02 C 78.99 10.57 79.07 17.12 78.94 23.67 C 69.42 33.00 59.98 42.41 50.67 51.94 C 34.79 52.06 18.91 51.98 3.03 51.98 C 2.98 35.99 2.98 20.01 3.03 4.02 Z" />
<path fill="#ffffff" opacity="1.00" d=" M 53.69 51.99 C 61.98 43.42 70.42 34.98 78.99 26.69 C 78.99 35.12 79.01 43.55 78.98 51.98 C 70.55 52.02 62.12 52.00 53.69 51.99 Z" />
</g>
<g id="#07070aff">
<path fill="#07070a" opacity="1.00" d=" M 1.01 2.01 C 27.65 2.02 54.30 1.93 80.95 2.05 C 81.05 19.35 81.04 36.65 80.95 53.95 C 54.30 54.08 27.65 53.99 1.01 53.99 C 0.98 36.66 0.98 19.34 1.01 2.01 M 3.03 4.02 C 2.98 20.01 2.98 35.99 3.03 51.98 C 18.91 51.98 34.79 52.06 50.67 51.94 C 59.98 42.41 69.42 33.00 78.94 23.67 C 79.07 17.12 78.99 10.57 78.98 4.02 C 53.66 3.99 28.34 3.99 3.03 4.02 M 53.69 51.99 C 62.12 52.00 70.55 52.02 78.98 51.98 C 79.01 43.55 78.99 35.12 78.99 26.69 C 70.42 34.98 61.98 43.42 53.69 51.99 Z" />
</g>
</svg>
