<?xml version="1.0" encoding="UTF-8" ?>
<!DOCTYPE svg PUBLIC "-//W3C//DTD SVG 1.1//EN" "http://www.w3.org/Graphics/SVG/1.1/DTD/svg11.dtd">
<svg width="82pt" height="55pt" viewBox="0 0 82 55" version="1.1" xmlns="http://www.w3.org/2000/svg">
<g id="#fffffeff">
<path fill="#fffffe" opacity="1.00" d=" M 0.00 0.00 L 82.00 0.00 L 82.00 55.00 L 0.00 55.00 L 0.00 0.00 M 1.01 1.01 C 0.98 18.34 0.94 35.67 1.01 53.01 C 27.69 52.97 54.37 53.04 81.05 52.97 C 80.89 35.65 81.17 18.33 80.98 1.02 C 54.32 0.95 27.66 0.98 1.01 1.01 Z" />
<path fill="#fffffe" opacity="1.00" d=" M 3.00 3.01 C 28.29 2.96 53.59 3.07 78.89 2.96 C 79.04 9.85 79.10 16.76 78.89 23.65 C 69.77 32.69 60.68 41.77 51.64 50.90 C 35.44 51.18 19.22 50.86 3.01 51.05 C 2.98 35.03 3.02 19.02 3.00 3.01 Z" />
</g>
<g id="#0a050dff">
<path fill="#0a050d" opacity="1.00" d=" M 1.01 1.01 C 27.66 0.98 54.32 0.95 80.98 1.02 C 81.17 18.33 80.89 35.65 81.05 52.97 C 54.37 53.04 27.69 52.97 1.01 53.01 C 0.94 35.67 0.98 18.34 1.01 1.01 M 3.00 3.01 C 3.02 19.02 2.98 35.03 3.01 51.05 C 19.22 50.86 35.44 51.18 51.64 50.90 C 60.68 41.77 69.77 32.69 78.89 23.65 C 79.10 16.76 79.04 9.85 78.89 2.96 C 53.59 3.07 28.29 2.96 3.00 3.01 Z" />
</g>
</svg>
