<?xml version="1.0" encoding="UTF-8" standalone="no"?>
<!-- Created with Inkscape (http://www.inkscape.org/) -->
<svg
   xmlns:svg="http://www.w3.org/2000/svg"
   xmlns="http://www.w3.org/2000/svg"
   version="1.0"
   width="180.00049"
   height="130"
   id="svg2">
  <defs
     id="defs4" />
  <g
     transform="matrix(2.386666,0,0,2.579998,-1.1101,-0.789718)"
     id="layer1">
    <rect
       width="71.23011"
       height="46.512623"
       ry="0"
       x="2.5596795"
       y="2.2436907"
       style="opacity:1;fill:none;fill-opacity:1;stroke:black;stroke-width:4.02909613;stroke-miterlimit:4;stroke-dasharray:none;stroke-opacity:1"
       id="GF" />
    <path
       d="M 5,130 C 5,146.66667 5,163.33333 5,180"
       transform="matrix(0.418995,0,0,0.387597,0.465224,0.306183)"
       style="opacity:1;color:black;fill:black;fill-opacity:1;fill-rule:nonzero;stroke:none;stroke-width:1;stroke-linecap:butt;stroke-linejoin:miter;marker:none;marker-start:none;marker-mid:none;marker-end:none;stroke-miterlimit:4;stroke-dasharray:none;stroke-dashoffset:0;stroke-opacity:1;visibility:visible;display:inline;overflow:visible"
       id="path1870" />
    <path
       d="M 5,180 C 5,163.33333 5,146.66667 5,130 L 4.9999951,130.00007 C 4.9999951,130.00007 4.9999951,130.00007 4.9999951,130.00007"
       transform="matrix(0.418995,0,0,0.387597,0.465224,0.306183)"
       style="opacity:1;color:black;fill:black;fill-opacity:1;fill-rule:nonzero;stroke:none;stroke-width:1;stroke-linecap:butt;stroke-linejoin:miter;marker:none;marker-start:none;marker-mid:none;marker-end:none;stroke-miterlimit:4;stroke-dasharray:none;stroke-dashoffset:0;stroke-opacity:1;visibility:visible;display:inline;overflow:visible"
       id="path1872" />
    <path
       d="M 71.722784,4.1556539 C 48.678059,23.535504 46.554525,25.49991 46.554525,25.49991"
       style="opacity:1;fill:none;fill-opacity:1;fill-rule:nonzero;stroke:black;stroke-width:3.22392273;stroke-linejoin:bevel;stroke-miterlimit:4;stroke-dasharray:none;stroke-opacity:1"
       id="path6493" />
    <path
       d="M 71.722783,46.817756 C 48.678058,27.437906 46.554525,25.4735 46.554525,25.4735"
       style="opacity:1;fill:none;fill-opacity:1;fill-rule:nonzero;stroke:black;stroke-width:3.22392273;stroke-linejoin:bevel;stroke-miterlimit:4;stroke-dasharray:none;stroke-opacity:1"
       id="path6497" />
    <path
       d="M 170,65 C 10,65 10,65 10,65"
       transform="matrix(0.418995,0,0,0.387597,0.465126,0.306092)"
       style="opacity:1;fill:none;fill-opacity:1;fill-rule:nonzero;stroke:black;stroke-width:8;stroke-linejoin:bevel;stroke-miterlimit:4;stroke-dasharray:none;stroke-opacity:1"
       id="path6499" />
  </g>
</svg>
