<?xml version="1.0" encoding="UTF-8" standalone="no"?>
<svg
   xmlns="http://www.w3.org/2000/svg"
   id="NATO Map Symbol"
   height="400"
   width="600">
  <path
     id="Recce"
     style="fill:none;stroke:#af0000;stroke-width:10;stroke-linecap:butt"
     d="M 495,5 105,395" />
  <text
     style="fill:#af0000;font-size:60px;font-family:sans-serif;text-align:center;text-anchor:middle;stroke:none"
     id="S1"
     y="129.8"
     x="300">RS</text>
  <g
     id="CBRN"
	 style="fill:none;stroke:#af0000;stroke-width:10;stroke-linecap:round;stroke-linejoin:round">
    <path
       d="m 249.78974,152.05983 c 3.82873,-4.59447 0,-25.26959 -16.84639,-36.75577 -17.61214,-11.48618 -37.52152,-13.01767 -42.88173,-3.82873 -7.65746,9.18894 0,25.26959 16.84639,36.75577 17.61214,11.48618 39.05301,8.4232 42.88173,3.82873 z m -31.39555,-43.64748 c 65.85409,26.03534 134.00541,135.5369 134.00541,135.5369" />
    <path
       d="m 350.21026,152.05983 c -3.82873,-4.59447 0,-25.26959 16.84639,-36.75577 17.61214,-11.48618 37.52152,-13.01767 42.88174,-3.82873 7.65745,9.18894 0,25.26959 -16.8464,36.75577 -17.61214,11.48618 -39.053,8.4232 -42.88173,3.82873 z m 31.39555,-43.64748 C 315.75172,134.44769 247.6004,243.94925 247.6004,243.94925" />
    <g
        id="CBRN1"
	    style="fill:#af0000;stroke:none">
	   <path
          d="m 249.78974,152.05983 c 3.82873,-4.59447 0,-25.26959 -16.84639,-36.75577 -17.61214,-11.48618 -37.52152,-13.01767 -42.88173,-3.82873 -7.65746,9.18894 0,25.26959 16.84639,36.75577 17.61214,11.48618 39.05301,8.4232 42.88173,3.82873 z" />
       <path
          d="m 350.21026,152.05983 c -3.82873,-4.59447 0,-25.26959 16.84639,-36.75577 17.61214,-11.48618 37.52152,-13.01767 42.88174,-3.82873 7.65745,9.18894 0,25.26959 -16.8464,36.75577 -17.61214,11.48618 -39.053,8.4232 -42.88173,3.82873 z" />
    </g>
  </g>
    <g
       id="Wheeled AFV"
	   style="fill:none;stroke:#af0000;stroke-width:10">
      <path
         d="m 215.40054,259.62026 c -51.4861,0 -93.22383,-41.01389 -93.22383,-92.5 0,-51.4861 41.73773,-92.499995 93.22383,-92.499995 h 169.19892 c 51.4861,0 93.22383,41.013895 93.22383,92.499995 0,51.48611 -41.73773,92.5 -93.22383,92.5 z" />
      <path
         d="m 250.28578,306.00153 a 31.357262,31.357262 0 1 1 -62.71451,0 31.357262,31.357262 0 1 1 62.71451,0 z" />
      <path
         d="m 331.35727,306.00153 a 31.357262,31.357262 0 1 1 -62.71452,0 31.357262,31.357262 0 1 1 62.71452,0 z" />
      <path
         d="m 412.42874,306.00153 a 31.357262,31.357262 0 1 1 -62.71452,0 31.357262,31.357262 0 1 1 62.71452,0 z" />
    </g>
  <path
     id="Neutral Frame"
     style="fill:none;stroke:#af0000;stroke-width:10;stroke-linejoin:miter;stroke-miterlimit:4"
     d="M 105,5 H 495 V 395 H 105 Z" />
</svg>
