<?xml version="1.0" encoding="UTF-8" standalone="no"?>
<svg
   xmlns="http://www.w3.org/2000/svg"
   id="NATO Map Symbol"
   height="400"
   width="600">
  <g
     style="fill:none;stroke:#af0000;stroke-width:10;stroke-miterlimit:4"
     id="Navy">
    <path
       id="N1"
       d="m 300.50736,18.143453 c -4.4596,0 -8.07413,3.31824 -8.07279,7.406648 -0.002,4.088409 3.61319,7.40665 8.07279,7.40665 4.4596,0 8.07414,-3.318241 8.07279,-7.40665 0,-0.0011 0,-0.0023 0,-0.0034 0,-4.086846 -3.61442,-7.403244 -8.07279,-7.403244 z" />
    <path
       d="M 329.03992,82.061119 C 313.09363,97.264894 287.09043,97.12268 270.96015,81.743472"
       id="N2" />
    <path
       d="m 300.00001,33.974692 v 57.42945"
       id="N3" />
    <path
       d="m 279.92196,46.417739 h 40.15611"
       id="N4" />
    <path
       d="m 267.1479,80.661286 3.44603,-3.538798 -4.54961,-1.442353 z"
       id="N5" />
    <path
       d="m 332.85213,80.661286 -3.44605,-3.538798 4.54962,-1.442353 z"
       id="N6" />
  </g>
  <path
     id="Neutral Frame"
     style="fill:none;stroke:#af0000;stroke-width:10;stroke-linejoin:miter;stroke-miterlimit:4"
     d="M 105,5 H 495 V 395 H 105 Z" />
</svg>
