<?xml version="1.0" encoding="UTF-8" standalone="no"?>
<svg
   xmlns="http://www.w3.org/2000/svg"
   id="NATO Map Symbol"
   height="400"
   width="600">
  <g
     style="fill:none;stroke:#af0000;stroke-width:10;stroke-miterlimit:4"
     id="Bridge">
   <path
       d="m 166,94 56,30 h 156 l 56,-30" />
   <path
       d="m 166,186 56,-30 h 156 l 56,30" />
  </g>
  <path
     id="ENGR"
     style="fill:none;stroke:#af0000;stroke-width:25.5;stroke-linecap:butt;stroke-linejoin:miter;stroke-miterlimit:4"
     d="M 300,340 V 210 M 150,340 V 210 h 300 v 130" />
  <path
     id="Wave" 
     d="m 105,83 c 32,0 33,-63 65,-63 32,0 32,62 65,63 v 0 c 32,0 33,-63 65,-63 32,0 33,63 65,63 32,0 33,-63 65,-63 32,0 33,63 65,63"
     style="fill:none;stroke:#af0000;stroke-width:10;stroke-linecap:butt"/>
  <path
     id="Neutral Frame"
     style="fill:none;stroke:#af0000;stroke-width:10;stroke-linejoin:miter;stroke-miterlimit:4"
     d="M 105,5 H 495 V 395 H 105 Z" />
</svg>
