<?xml version="1.0" encoding="UTF-8" standalone="no"?>
<svg
   xmlns="http://www.w3.org/2000/svg"
   id="NATO Map Symbol"
   height="400"
   width="600">
  <path
     id="Sigs"
     style="fill:none;stroke:#af0000;stroke-width:10;stroke-linecap:butt;stroke-linejoin:miter;stroke-miterlimit:4;"
     d="M 495,395 300,160 v 80 L 105,5" />
  <g
     id="Radio"
     style="fill:none;stroke:#af0000;stroke-width:10;stroke-linecap:butt;stroke-linejoin:miter;stroke-miterlimit:4">
    <path
       d="M 350.82794,310.82795 A 50.827942,50.827942 0 0 1 300,361.65589 50.827942,50.827942 0 0 1 249.17205,310.82795 50.827942,50.827942 0 0 1 300,260 a 50.827942,50.827942 0 0 1 50.82794,50.82795 z"
       id="Base" />
    <path
       d="m 116.29184,246.66234 56.25001,-97.42786"
       id="Waves1" />
    <path
       d="m 269.04442,269.54297 -75.57204,-22.53903 26.5165,-26.5165 -75.57204,-22.53903"
       id="ANT1" />
    <path
       d="m 483.70816,246.66235 -56.25,-97.42787"
       id="Waves2" />
    <path
       d="m 330.95559,269.54297 75.57204,-22.53903 -26.51651,-26.51649 75.57204,-22.53903"
       id="ANT2" />
  </g>
  <path
     id="Neutral Frame"
     style="fill:none;stroke:#af0000;stroke-width:10;stroke-linejoin:miter;stroke-miterlimit:4"
     d="M 105,5 H 495 V 395 H 105 Z" />
</svg>
