<?xml version="1.0" encoding="UTF-8" standalone="no"?>
<svg
   xmlns="http://www.w3.org/2000/svg"
   id="NATO Map Symbol"
   height="400"
   width="600">
  <circle
     cy="56"
     cx="218"
     id="Point 2"
     style="fill:none;stroke:#af0000;stroke-width:10;stroke-linejoin:miter;stroke-miterlimit:4"
     r="32" />
  <circle
     cy="56"
     cx="382"
     id="Point 1"
     style="fill:none;stroke:#af0000;stroke-width:10;stroke-linejoin:miter;stroke-miterlimit:4"
     r="32" />
  <path
     style="fill:#af0000;stroke:#af0000;stroke-width:4;stroke-linejoin:miter;stroke-miterlimit:3"
     d="m 252,53 v 6 h 70 v 9 L 340,56 322,44 v 9 z"
     id="Link" />
  <text
     style="font-size:175px;font-family:sans-serif;text-align:center;text-anchor:middle;fill:#af0000;stroke:none"
     id="MAIN"
     y="263"
     x="300">SOF</text>
    <g
       id="Wheeled"
	   style="fill:none;stroke:#af0000;stroke-width:10">
      <path
         id="Wheel-L"
         d="m 250.28578,338.88127 a 31.357262,31.357262 0 1 1 -62.71451,0 31.357262,31.357262 0 1 1 62.71451,0 z" />
      <path
         id="Wheel-C"
         d="m 331.35727,338.88127 a 31.357262,31.357262 0 1 1 -62.71452,0 31.357262,31.357262 0 1 1 62.71452,0 z" />
      <path
         id="Wheel-R"
         d="m 412.42874,338.88127 a 31.357262,31.357262 0 1 1 -62.71452,0 31.357262,31.357262 0 1 1 62.71452,0 z" />
    </g>
  <path
     id="GunSys"
     d="M 165,5 V 395"
     style="fill:none;stroke:#af0000;stroke-width:10;stroke-linecap:butt" />
  <path
     id="Wave" 
     d="m 105,231.32886 c 31.6471,0 33.35292,-62.65772 65.00001,-62.65772 31.64711,0 33.36084,62.01615 65,62.65772 v 0 c 31.64711,0 33.35289,-62.65772 65.00001,-62.65772 31.64709,0 33.35289,62.65772 64.99999,62.65772 31.6471,0 33.35291,-62.65772 65,-62.65772 31.64711,0 33.3529,62.65772 64.99999,62.65772"
     style="fill:none;stroke:#af0000;stroke-width:10;stroke-linecap:butt;"/>
  <path
     id="Neutral Frame"
     style="fill:none;stroke:#af0000;stroke-width:10;stroke-linejoin:miter;stroke-miterlimit:4"
     d="M 105,5 H 495 V 395 H 105 Z" />
</svg>
