<?xml version="1.0" encoding="UTF-8" standalone="no"?>
<svg
   xmlns="http://www.w3.org/2000/svg"
   width="600"
   height="400"
   id="NATO Map Symbol">
  <g
     id="Maint"
     style="fill:none;stroke:#af0000;stroke-width:10;stroke-linecap:round;stroke-linejoin:miter;stroke-miterlimit:4;stroke-dasharray:none;stroke-opacity:1">
  <path
     id="Maint-0"
     d="M 209.10077,200 H 392.41514"/>
  <path
     id="Maint-1"
     d="m 159.93304,152.34818 c 26.31737,0 47.65182,21.33445 47.65182,47.65182 0,26.31737 -21.33445,47.65182 -47.65182,47.65182"/>
  <path
     id="Maint-2"
     d="m 440.06696,152.34818 c -26.31738,0 -47.65182,21.33445 -47.65182,47.65182 0,26.31738 21.33444,47.65182 47.65182,47.65182"/>
  </g>
  <path
     id="ARMOUR"
     d="m 215.40054,292.5 c -51.4861,0 -93.22383,-41.01389 -93.22383,-92.5 0,-51.4861 41.73773,-92.5 93.22383,-92.5 h 169.19892 c 51.4861,0 93.22383,41.0139 93.22383,92.5 0,51.48611 -41.73773,92.5 -93.22383,92.5 z"
     style="fill:none;stroke:#af0000;stroke-width:10" />
  <g
     id="X-Cty"
     style="fill:none;stroke:#af0000;stroke-width:10">
  <path
     id="Wheel-L"
     d="m 250.28578,344.88127 a 31.357262,31.357262 0 1 1 -62.71451,0 31.357262,31.357262 0 1 1 62.71451,0 z" />
  <path
     id="Wheel-C"
     d="m 331.35727,344.88127 a 31.357262,31.357262 0 1 1 -62.71452,0 31.357262,31.357262 0 1 1 62.71452,0 z" />
  <path
     id="Wheel-R"
     d="m 412.42874,344.88127 a 31.357262,31.357262 0 1 1 -62.71452,0 31.357262,31.357262 0 1 1 62.71452,0 z" />
  </g>
  <path
     id="Neutral Frame"
     style="fill:none;stroke:#af0000;stroke-width:10;stroke-linejoin:miter;stroke-miterlimit:4"
     d="M 105,5 H 495 V 395 H 105 Z" />
</svg>
