<?xml version="1.0" encoding="UTF-8" standalone="no"?>
<svg
   xmlns="http://www.w3.org/2000/svg"
   id="NATO Map Symbol"
   height="400"
   width="600">
  <path
     style="fill:none;stroke:#af0000;stroke-width:10;stroke-linecap:butt"
     d="M 105,303.79177 H 495"
     id="Supply" />
  <g
     id="MEI"
	 style="fill:#af0000;stroke:#af0000;stroke-width:10;stroke-linecap:butt">
    <path
       d="m 219.30588,204.88903 a 44.24791,44.24791 0 0 1 -44.24791,44.24791 44.24791,44.24791 0 0 1 -44.24791,-44.24791 44.24791,44.24791 0 0 1 44.24791,-44.24791 44.24791,44.24791 0 0 1 44.24791,44.24791 z"
       id="Ball-2" />
    <path
       d="m 469.18994,204.88903 a 44.24791,44.24791 0 0 1 -44.24791,44.24791 44.24791,44.24791 0 0 1 -44.24791,-44.24791 44.24791,44.24791 0 0 1 44.24791,-44.24791 44.24791,44.24791 0 0 1 44.24791,44.24791 z"
       id="Ball-1" />
    <path
       style="fill:none"
       d="m 144.57577,214.11311 c 39.07913,-39.07911 93.06643,-63.25005 152.69917,-63.25005 59.63273,0 113.62003,24.17094 152.69915,63.25006"
       id="Link" />
  </g>
  <path
     id="Neutral Frame"
     style="fill:none;stroke:#af0000;stroke-width:10;stroke-linejoin:miter;stroke-miterlimit:4"
     d="M 105,5 H 495 V 395 H 105 Z" />
</svg>
