<?xml version="1.0" encoding="UTF-8" standalone="no"?>
<svg
   xmlns="http://www.w3.org/2000/svg"
   id="NATO Map Symbol"
   height="400"
   width="600">
  <path
     d="m 385,296 a 85,85 0 0 1 -85,85 85,85 0 0 1 -85,-85 85,85 0 0 1 85,-85 85,85 0 0 1 85,85 z"
     id="Arty"
     style="fill:#af0000;stroke:none" />
  <g
     style="fill:none;stroke:#af0000;stroke-width:10;stroke-linecap:butt;stroke-linejoin:miter;stroke-miterlimit:4"
     id="RADAR">
    <path
       id="Dish"
       d="m 388,151 -40,32 c -29,19 -69,18 -97,-2 -28,-19 -43,-57 -35,-90 4,-21 28,-46 34,-52 l 15,-14" />
    <path
       id="Bolt"
       d="m 226,162 84,-71 -3,44 76,-64" />
  </g>
  <path
     id="Neutral Frame"
     style="fill:none;stroke:#af0000;stroke-width:10;stroke-linejoin:miter;stroke-miterlimit:4"
     d="M 105,5 H 495 V 395 H 105 Z" />
</svg>
