<?xml version="1.0" encoding="UTF-8" standalone="no"?>
<svg
   xmlns="http://www.w3.org/2000/svg"
   id="NATO Map Symbol"
   height="400"
   width="600">
  <g
     id="RADAR"
	 style="fill:none;stroke:#af0000;stroke-width:10;stroke-linecap:butt;stroke-linejoin:miter;stroke-miterlimit:4">
    <path
       id="Dish"
       d="M 339.85093,73.12644 321.94031,87.34267 C 309.08075,95.999383 291.02517,95.59846 278.49595,86.505965 265.86717,77.815614 259.47351,61.201493 263.0405,46.289266 265.02966,37.04098 275.45304,25.705554 278.21253,23.22177 l 6.85843,-6.173193" />
    <path
       id="Bolt"
       d="m 267.40924,77.995382 37.5941,-31.775964 -1.34264,19.692146 34.0137,-28.643122" />
  </g>
  <path
     id="Surv"
     d="M 423.74368,287.49982 H 176.25631 L 300,112.49982 Z"
     style="fill:#af0000;stroke:#af0000;stroke-width:10;stroke-linejoin:miter;stroke-miterlimit:10" />
  <path
     id="Sled"
     d="m 381.07148,313.51307 c 17.32251,0 31.36345,14.04593 31.35726,31.36845 0.006,17.32252 -14.03475,31.36845 -31.35726,31.36845 l -162.14296,0.01 c -17.32632,0 -31.36883,-14.05187 -31.35725,-31.3782 -0.0116,-17.32633 14.03093,-31.3782 31.35725,-31.3782"
     style="fill:none;stroke:#af0000;stroke-width:10;stroke-linecap:round;stroke-linejoin:miter;stroke-miterlimit:4" />
  <path
     id="Neutral Frame"
     style="fill:none;stroke:#af0000;stroke-width:10;stroke-linejoin:miter;stroke-miterlimit:4"
     d="M 105,5 H 495 V 395 H 105 Z" />
</svg>
