<?xml version="1.0" encoding="UTF-8" standalone="no"?>
<svg
   xmlns="http://www.w3.org/2000/svg"
   id="NATO Map Symbol"
   height="400"
   width="600">
  <path
     id="Recce"
     style="fill:none;stroke:#af0000;stroke-width:10;stroke-linecap:butt"
     d="M 495,5 105,395" />
  <g
     id="Sniper"
	 style="stroke:#af0000;stroke-width:10;stroke-linecap:butt">
    <path
       d="m 222,29 h 55" />
    <path
       d="M 322,29 h 55" />
    <path
       d="M 300,96 v -55" />
  </g>
    <path
     id="Surv"
     d="M 413.137,279.99976 H 186.86299 L 300,119.99988 Z"
     style="fill:#af0000;stroke:none" />
   <path
      id="ARMOUR"
      d="m 215.40054,292.5 c -51.4861,0 -93.22383,-41.01389 -93.22383,-92.5 0,-51.4861 41.73773,-92.5 93.22383,-92.5 h 169.19892 c 51.4861,0 93.22383,41.0139 93.22383,92.5 0,51.48611 -41.73773,92.5 -93.22383,92.5 z"
      style="fill:none;stroke:#af0000;stroke-width:10" />
  <path
     id="AAslt"
     style="fill:none;stroke:#af0000;stroke-width:10;stroke-linecap:butt;stroke-linejoin:miter;stroke-miterlimit:4"
     d="m 105,306 h 142 l 53,64 53,-64 h 142" />
  <path
     id="Neutral Frame"
     style="fill:none;stroke:#af0000;stroke-width:10;stroke-linejoin:miter;stroke-miterlimit:4"
     d="M 105,5 H 495 V 395 H 105 Z" />
</svg>
