<?xml version="1.0" encoding="UTF-8" standalone="no"?>
<svg
   xmlns="http://www.w3.org/2000/svg"
   id="NATO Map Symbol"
   height="400"
   width="600">
  <path
     id="Sigs"
     style="fill:none;stroke:#af0000;stroke-width:10;stroke-linecap:butt;stroke-linejoin:miter;stroke-miterlimit:4;"
     d="M 495,395 300,160 v 80 L 105,5" />
  <g
     id="Radio"
	 style="fill:none;stroke:#af0000;stroke-width:10;stroke-linecap:butt;stroke-linejoin:miter;stroke-miterlimit:4;stroke-dasharray:none">
    <path
       id="Base"
       d="M 326.09181,246.71807 A 26.091814,26.091814 0 0 1 300,272.80988 26.091814,26.091814 0 0 1 273.90818,246.71807 26.091814,26.091814 0 0 1 300,220.62625 a 26.091814,26.091814 0 0 1 26.09181,26.09182 z" />
    <path
       id="Waves"
       d="m 261.4998,148.75921 12.8334,-17.96677 12.8334,17.96677 12.8334,-17.96677 12.8334,17.96677 12.8334,-17.96677 12.8334,17.96677" />
    <path
       id="ANT"
       d="M 300,220.62625 V 130.79244" />
  </g>
  <text
     id="S1"
     style="font-size:75px;font-family:sans-serif;text-align:center;text-anchor:middle;fill:#af0000;stroke:none"
     y="93"
     x="300">XX</text>
  <path
     id="Neutral Frame"
     style="fill:none;stroke:#af0000;stroke-width:10;stroke-linejoin:miter;stroke-miterlimit:4"
     d="M 105,5 H 495 V 395 H 105 Z" />
</svg>
