<?xml version="1.0" encoding="UTF-8" standalone="no"?>
<svg xmlns="http://www.w3.org/2000/svg" 
   id="NATO Map Symbol"
   height="400"
   width="600">
  <path
     id="ARMOUR"
     style="color:#af0000;display:inline;overflow:visible;visibility:visible;fill:none;stroke:#af0000;stroke-width:10;stroke-linecap:round;stroke-linejoin:miter;stroke-miterlimit:4;stroke-dasharray:none;stroke-dashoffset:0;stroke-opacity:1;marker:none;enable-background:accumulate"
     d="m 215.40054,292.5 c -51.4861,0 -93.22383,-41.01389 -93.22383,-92.5 0,-51.4861 41.73773,-92.5 93.22383,-92.5 h 169.19892 c 51.4861,0 93.22383,41.0139 93.22383,92.5 0,51.48611 -41.73773,92.5 -93.22383,92.5 z"	 />
  <path
     d="m 356.68995,200 a 56.689957,56.689957 0 1 1 -113.37991,0 56.689957,56.689957 0 1 1 113.37991,0 z"
     id="Arty"
     style="fill:#af0000;fill-opacity:1;stroke:#af0000;stroke-width:10;stroke-linecap:round;stroke-linejoin:miter;stroke-miterlimit:4;stroke-dasharray:none;stroke-opacity:1" />
  <path
     id="ABN"
     d="m 184.38444,356.7218 c 0,0 34.41086,-31.99987 68.95575,-30.86118 39.3232,1.29621 46.49508,40.79953 46.49508,40.79953 0,0 6.23863,-39.4259 46.49509,-40.79953 40.25646,-1.37362 68.95575,30.86118 68.95575,30.86118"
     style="fill:none;stroke:#af0000;stroke-width:10;stroke-linecap:butt;stroke-linejoin:miter;stroke-miterlimit:4;stroke-dasharray:none;stroke-opacity:1" />
  <path
     id="Neutral Frame"
     style="opacity:1;fill:none;fill-opacity:1;stroke:#af0000;stroke-width:10;stroke-linecap:butt;stroke-linejoin:miter;stroke-miterlimit:4;stroke-dasharray:none;stroke-dashoffset:0;stroke-opacity:1"
     d="M 105,5 H 495 V 395 H 105 Z" />
</svg>
