<?xml version="1.0" encoding="UTF-8" standalone="no"?>
<svg
   xmlns="http://www.w3.org/2000/svg"
   id="NATO Map Symbol"
   height="400"
   width="600">
  <g
     id="MOR"
	 style="fill:none;stroke:#af0000;stroke-width:10;stroke-linecap:round;stroke-linejoin:miter;stroke-miterlimit:4">
    <path
       d="m 334,210 a 34,34 0 0 1 -34,34 34,34 0 0 1 -34,-34 34,34 0 0 1 34,-34 34,34 0 0 1 34,34 z" />
    <path
       d="M 300,175 V 25" />
    <path
       d="M 336,59 300,25 264,59" />
  </g>
  <g
     id="Tow"
	 style="fill:none;stroke:#af0000;stroke-width:10;stroke-linecap:butt;stroke-linejoin:miter;stroke-miterlimit:4">
    <path
       d="m 441,259 a 34,34 0 0 1 -34,34 34,34 0 0 1 -34,-34 34,34 0 0 1 34,-34 34,34 0 0 1 34,34 z" />
    <path
       d="m 227,259 a 34,34 0 0 1 -34,34 34,34 0 0 1 -34,-34 34,34 0 0 1 34,-34 34,34 0 0 1 34,34 z" />
    <path
       d="M 373,259 H 227" />
  </g>
  <path
     style="fill:#af0000;stroke:none"
     id="MTN"
     d="M 355,395 H 245 l 55,-100 z" />
  <path
     id="Neutral Frame"
     style="fill:none;stroke:#af0000;stroke-width:10;stroke-linejoin:miter;stroke-miterlimit:4"
     d="M 105,5 H 495 V 395 H 105 Z" />
</svg>
