<?xml version="1.0" encoding="UTF-8" standalone="no"?>
<svg
   xmlns="http://www.w3.org/2000/svg"
   id="NATO Map Symbol"
   height="400"
   width="600">
  <text
     id="S1"
     style="font-size:100px;font-family:sans-serif;text-align:center;text-anchor:middle;fill:#af0000;stroke:none"
     y="93"
     x="300">CS</text>
   <path
      id="ARMOUR"
      d="m 215,292 c -51,0 -92,-41 -92,-92 0,-51 41,-92 92,-92 h 170 c 51,0 92,41 92,92 0,51 -42,92 -92,92 z"
      style="fill:none;stroke:#af0000;stroke-width:10" />
  <text
     style="font-size:100px;font-family:sans-serif;text-align:center;text-anchor:middle;fill:#af0000;stroke:none"
     id="S2"
     y="380"
     x="300">M</text>
  <path
     id="Wave" 
     d="m 105,231.32886 c 31.6471,0 33.35292,-62.65772 65.00001,-62.65772 31.64711,0 33.36084,62.01615 65,62.65772 v 0 c 31.64711,0 33.35289,-62.65772 65.00001,-62.65772 31.64709,0 33.35289,62.65772 64.99999,62.65772 31.6471,0 33.35291,-62.65772 65,-62.65772 31.64711,0 33.3529,62.65772 64.99999,62.65772"
     style="fill:none;stroke:#af0000;stroke-width:10;stroke-linecap:butt;"/>
  <g
     style="fill:none;stroke:#af0000;stroke-width:10;stroke-linecap:butt"
     id="Infantry">
  <path
     d="M 495,395 105,5" />
  <path
     d="M 495,5 105,395" />
  </g>
  <path
     id="Neutral Frame"
     style="fill:none;stroke:#af0000;stroke-width:10;stroke-linejoin:miter;stroke-miterlimit:4"
     d="M 105,5 H 495 V 395 H 105 Z" />
</svg>
