<?xml version="1.0" encoding="UTF-8" standalone="no"?>
<svg
   xmlns="http://www.w3.org/2000/svg"
   id="NATO Map Symbol"
   height="400"
   width="600">
  <path
     id="Recce"
     style="fill:none;stroke:#af0000;stroke-width:10;stroke-linecap:butt"
     d="M 495,5 105,395" />
    <g
       style="fill:none;stroke:#af0000;stroke-width:10"
       id="AFV Wheeled">
      <path
         d="m 250.28578,260.64899 a 31.357262,31.357262 0 1 1 -62.71451,0 31.357262,31.357262 0 1 1 62.71451,0 z" />
      <path
         d="m 331.35727,260.64899 a 31.357262,31.357262 0 1 1 -62.71452,0 31.357262,31.357262 0 1 1 62.71452,0 z" />
      <path
         d="m 412.42874,260.64899 a 31.357262,31.357262 0 1 1 -62.71452,0 31.357262,31.357262 0 1 1 62.71452,0 z" />
      <path
         d="m 215.40054,214.26772 c -51.4861,0 -93.22383,-41.01389 -93.22383,-92.49999 0,-51.486105 41.73773,-92.500005 93.22383,-92.500005 h 169.19892 c 51.4861,0 93.22383,41.0139 93.22383,92.500005 0,51.4861 -41.73773,92.49999 -93.22383,92.49999 z"/>
    </g>
  <text
     style="font-size:100px;font-family:sans-serif;text-align:center;text-anchor:middle;fill:#af0000;stroke:none"
     id="S2"
     y="380"
     x="300">L</text>
  <path
     id="Neutral Frame"
     style="fill:none;stroke:#af0000;stroke-width:10;stroke-linejoin:miter;stroke-miterlimit:4"
     d="M 105,5 H 495 V 395 H 105 Z" />
</svg>
