<?xml version="1.0" encoding="UTF-8" standalone="no"?>
<svg
   xmlns="http://www.w3.org/2000/svg"
   id="NATO Map Symbol"
   height="400"
   width="600">
  <path
     id="Sigs"
     style="fill:none;stroke:#af0000;stroke-width:10;stroke-linecap:butt;stroke-linejoin:miter;stroke-miterlimit:4;"
     d="M 495,395 300,160 v 80 L 105,5" />
  <g
     id="LOS RRB">
    <path
       style="fill:#af0000;fill-opacity:1;fill-rule:evenodd;stroke:#af0000;stroke-width:5;stroke-linejoin:miter;stroke-miterlimit:3.6;"
       d="m 336.94238,321.53621 -36.9414,17.62304 36.92968,17.61719 a 40.969758,40.969758 0 0 0 4.03906,-17.61719 40.969758,40.969758 0 0 0 -4.02734,-17.62304 z m -36.9414,17.62304 -36.93164,-17.61914 a 40.969758,40.969758 0 0 0 -4.03906,17.61914 40.969758,40.969758 0 0 0 4.02734,17.62305 z"
       id="RRB-1" />
    <path
       style="fill:none;stroke:#af0000;stroke-width:10"
       d="m 340.96976,339.15926 a 40.969758,40.969758 0 0 1 -40.96975,40.96976 40.969758,40.969758 0 0 1 -40.96977,-40.96976 40.969758,40.969758 0 0 1 40.96977,-40.96977 40.969758,40.969758 0 0 1 40.96975,40.96977 z"
       id="RRB-2" />
  </g>
  <text
     id="S1"
     style="font-size:95px;font-family:sans-serif;text-align:center;text-anchor:middle;fill:#af0000;stroke:none"
     y="93"
     x="300">F</text>
  <path
     id="Neutral Frame"
     style="fill:none;stroke:#af0000;stroke-width:10;stroke-linejoin:miter;stroke-miterlimit:4"
     d="M 105,5 H 495 V 395 H 105 Z" />
</svg>
