<?xml version="1.0" encoding="UTF-8" standalone="no"?>
<svg
   xmlns="http://www.w3.org/2000/svg"
   id="NATO Map Symbol"
   height="400"
   width="600">
  <text
     style="font-size:175px;font-family:sans-serif;text-align:center;text-anchor:middle;fill:#af0000;stroke:none"
     id="MAIN"
     y="263"
     x="300">SOF</text>
  <g
   id="Dive"
   style="fill:none;stroke:#af0000;stroke-width:8.5;stroke-linecap:butt;stroke-linejoin:miter;stroke-miterlimit:4">
   <path
      id="Face"
      d="m 323.7096,60.414332 a 23.709604,23.709604 0 1 1 -47.4192,0 23.709604,23.709604 0 1 1 47.4192,0 z" />
   <path
      id="Right"
      d="M 335.21393,75.290207 H 348.2669 V 45.538459 h -13.05297" />
   <path
      id="Left"
      d="M 264.78606,75.290207 H 251.73309 V 45.53846 h 13.05297" />
   <path
      id="Neck"
      d="m 285.12412,95.62826 -8.41322,15.45675 h 46.57818 l -8.41322,-15.45675" />
   <path
      d="m 336.62051,60.427977 a 36.754102,36.939029 0 1 1 -73.5082,0 36.754102,36.939029 0 1 1 73.5082,0 z"
      id="Helmet" />
  </g>
  <text
     style="font-size:100px;font-family:sans-serif;text-align:center;text-anchor:middle;fill:#af0000;stroke:none"
     id="S2"
     y="380"
     x="300">CLR</text>
  <path
     id="Neutral Frame"
     style="fill:none;stroke:#af0000;stroke-width:10;stroke-linejoin:miter;stroke-miterlimit:4"
     d="M 105,5 H 495 V 395 H 105 Z" />
</svg>
