<?xml version="1.0" encoding="UTF-8" standalone="no"?>
<svg
   xmlns="http://www.w3.org/2000/svg"
   id="NATO Map Symbol"
   height="400"
   width="600">
  <g
     style="fill:none;stroke:#af0000;stroke-width:10;stroke-linecap:butt"
     id="Mortar">
    <path
       d="m 280,42 20,-20 20,20" />
    <path
       d="M 300,22 V 62" />
    <path
       d="M 315,77 A 15,15 0 0 1 300,92 15,15 0 0 1 285,77 15,15 0 0 1 300,62 15,15 0 0 1 315,77 Z" />
  </g>
   <g
       id="Wheeled AFV"
	   style="fill:none;stroke:#af0000;stroke-width:10">
     <path
         d="m 215,292 c -51,0 -92,-41 -92,-92 0,-51 41,-92 92,-92 h 170 c 51,0 92,41 92,92 0,51 -42,92 -92,92 z" />
      <path
         d="m 250.28578,338.88127 a 31.357262,31.357262 0 1 1 -62.71451,0 31.357262,31.357262 0 1 1 62.71451,0 z" />
      <path
         d="m 331.35727,338.88127 a 31.357262,31.357262 0 1 1 -62.71452,0 31.357262,31.357262 0 1 1 62.71452,0 z" />
      <path
         d="m 412.42874,338.88127 a 31.357262,31.357262 0 1 1 -62.71452,0 31.357262,31.357262 0 1 1 62.71452,0 z" />
    </g>
  <g
     style="fill:none;stroke:#af0000;stroke-width:10;stroke-linecap:butt"
     id="Infantry">
  <path
     d="M 495,395 105,5" />
  <path
     d="M 495,5 105,395" />
  </g>
  <path
     id="Neutral Frame"
     style="fill:none;stroke:#af0000;stroke-width:10;stroke-linejoin:miter;stroke-miterlimit:4"
     d="M 105,5 H 495 V 395 H 105 Z" />
</svg>
