<?xml version="1.0" encoding="UTF-8" standalone="no"?>
<svg
   xmlns="http://www.w3.org/2000/svg"
   id="NATO Map Symbol"
   height="400"
   width="600">
  <path
     id="Recce"
     style="fill:none;stroke:#af0000;stroke-width:10;stroke-linecap:butt"
     d="M 495,5 105,395" />
  <g
     id="RADAR"
	 style="fill:none;stroke:#af0000;stroke-width:10;stroke-linecap:butt;stroke-linejoin:miter;stroke-miterlimit:4">
    <path
       d="M 339.85093,73.12644 321.94031,87.34267 C 309.08075,95.999383 291.02517,95.59846 278.49595,86.505965 265.86717,77.815614 259.47351,61.201493 263.0405,46.289266 265.02966,37.04098 275.45304,25.705554 278.21253,23.22177 l 6.85843,-6.173193" />
    <path
       d="m 267.40924,77.995382 37.5941,-31.775964 -1.34264,19.692146 34.0137,-28.643122" />
  </g>
  <path
     d="m 378,200 a 78,78 0 0 1 -78,78 78,78 0 0 1 -78,-78 78,78 0 0 1 78,-78 78,78 0 0 1 78,78 z"
     id="Arty"
     style="fill:#af0000;stroke:none" />
   <path
      id="ARMOUR"
      d="m 215.40054,292.5 c -51.4861,0 -93.22383,-41.01389 -93.22383,-92.5 0,-51.4861 41.73773,-92.5 93.22383,-92.5 h 169.19892 c 51.4861,0 93.22383,41.0139 93.22383,92.5 0,51.48611 -41.73773,92.5 -93.22383,92.5 z"
      style="fill:none;stroke:#af0000;stroke-width:10" />
  <path
     id="GunSys"
     d="M 165,5 V 395"
     style="fill:none;stroke:#af0000;stroke-width:10;stroke-linecap:butt" />
  <path
     id="Wave" 
     d="m 105,231.32886 c 31.6471,0 33.35292,-62.65772 65.00001,-62.65772 31.64711,0 33.36084,62.01615 65,62.65772 v 0 c 31.64711,0 33.35289,-62.65772 65.00001,-62.65772 31.64709,0 33.35289,62.65772 64.99999,62.65772 31.6471,0 33.35291,-62.65772 65,-62.65772 31.64711,0 33.3529,62.65772 64.99999,62.65772"
     style="fill:none;stroke:#af0000;stroke-width:10;stroke-linecap:butt;"/>
  <path
     id="Neutral Frame"
     style="fill:none;stroke:#af0000;stroke-width:10;stroke-linejoin:miter;stroke-miterlimit:4"
     d="M 105,5 H 495 V 395 H 105 Z" />
</svg>
