<?xml version="1.0" encoding="UTF-8" standalone="no"?>
<svg
   xmlns="http://www.w3.org/2000/svg"
   id="NATO Map Symbol"
   height="400"
   width="600">
  <path
     style="fill:#af0000;stroke:none"
     d="M 299.96746,16.250008 A 69.414315,69.412745 0 0 1 260,56.281638 69.414315,69.412745 0 0 1 300.03253,96.25 69.414315,69.412745 0 0 1 340,56.216558 69.414315,69.412745 0 0 1 299.96746,16.250008 Z"
     id="Sensor" />
  <path
     id="Surv"
     d="M 423.74368,287.49982 H 176.25631 L 300,112.49982 Z"
     style="fill:#af0000;stroke:#af0000;stroke-width:10;stroke-linejoin:miter;stroke-miterlimit:10" />
    <g
       id="Wheeled"
	   style="fill:none;stroke:#af0000;stroke-width:10">
      <path
         id="Wheel-L"
         d="m 250.28578,338.88127 a 31.357262,31.357262 0 1 1 -62.71451,0 31.357262,31.357262 0 1 1 62.71451,0 z" />
      <path
         id="Wheel-C"
         d="m 331.35727,338.88127 a 31.357262,31.357262 0 1 1 -62.71452,0 31.357262,31.357262 0 1 1 62.71452,0 z" />
      <path
         id="Wheel-R"
         d="m 412.42874,338.88127 a 31.357262,31.357262 0 1 1 -62.71452,0 31.357262,31.357262 0 1 1 62.71452,0 z" />
    </g>
  <path
     id="Neutral Frame"
     style="fill:none;stroke:#af0000;stroke-width:10;stroke-linejoin:miter;stroke-miterlimit:4"
     d="M 105,5 H 495 V 395 H 105 Z" />
</svg>
