<?xml version="1.0" encoding="UTF-8" standalone="no"?>
<svg
   xmlns="http://www.w3.org/2000/svg"
   version="1.1"
   width="600"
   height="400"
   id="NATO Map Symbol">
  <g
     id="CBRN">
    <path
       style="fill:none;stroke:#af0000;stroke-width:17.39164543;stroke-linecap:round;stroke-linejoin:round"
       id="path2001"
       d="m 236.66819,170.59803 c 10.26147,-11.82621 0.18615,-33.31792 -22.4775,-47.96925 -22.66947,-14.65711 -49.39931,-16.95649 -59.66078,-5.1245 -10.25565,11.82621 -0.18615,33.31792 22.48332,47.96925 22.66365,14.65134 49.39349,16.95072 59.65496,5.1245 z m -41.06914,-56.84902 c 86.23938,34.46761 174.58457,177.56077 174.58457,177.56077" />
    <path
       style="fill:none;stroke:#af0000;stroke-width:17.39164543;stroke-linecap:round;stroke-linejoin:round;stroke-opacity:1"
       id="path2003"
       d="m 363.35427,169.37324 c -10.26146,-11.82622 -0.18615,-33.31792 22.4775,-47.97504 22.66947,-14.65133 49.39932,-16.94493 59.66078,-5.1245 10.26147,11.82622 0.19779,33.31792 -22.48331,47.97504 -22.66947,14.65711 -49.3935,16.95649 -59.65497,5.1245 z M 404.4176,112.52421 C 318.17822,146.9976 229.84466,290.0792 229.84466,290.0792" />
    <path
       style="fill:#af0000;fill-opacity:1;stroke:none"
       id="path3828"
       d="m 232.5853,163.30855 a 41.544636,27.95895 27.294547 1 1 -73.83819,-38.10183 41.544636,27.95895 27.294547 1 1 73.83819,38.10183 z" />
    <path
       style="fill:#af0000;fill-opacity:1;stroke:none"
       id="path3828-1"
       d="m 368.04544,164.09613 a 27.95895,41.544636 62.705453 1 0 73.83819,-38.10183 27.95895,41.544636 62.705453 1 0 -73.83819,38.10183 z" />
  </g>
  <text
     style="font-style:normal;font-weight:normal;font-size:100px;line-height:0%;font-family:sans-serif;text-align:center;letter-spacing:0px;word-spacing:0px;text-anchor:middle;fill:#af0000;fill-opacity:1;stroke:none"
     xml:space="preserve"
     id="S1Text"
     y="91"
     x="297">B</text>
  <text
     style="font-style:normal;font-weight:normal;font-size:100px;line-height:0%;font-family:sans-serif;text-align:center;letter-spacing:0px;word-spacing:0px;text-anchor:middle;fill:#af0000;fill-opacity:1;stroke:none"
     xml:space="preserve"
     id="S2Text"
     y="382"
     x="300">W</text>
  <path
     id="Neutral Frame"
     style="opacity:1;fill:none;fill-opacity:1;stroke:#af0000;stroke-width:10;stroke-linecap:butt;stroke-linejoin:miter;stroke-miterlimit:4;stroke-dasharray:none;stroke-dashoffset:0;stroke-opacity:1"
     d="M 105,5 H 495 V 395 H 105 Z" />
</svg>
